<svg xmlns="http://www.w3.org/2000/svg" xmlns:xlink="http://www.w3.org/1999/xlink" version="1.1" width="440.08415" height="339.80888" viewBox="0 0 440.08415 339.80888">
<defs>
<clipPath id="clip_0">
<path transform="matrix(1,0,0,-1,0,339.80888)" d="M74.49687 66.49687H431.61689V332.6089H74.49687Z"/>
</clipPath>
<clipPath id="clip_1">
<path transform="matrix(1,0,0,-1,0,339.80888)" d="M74.49687 66.49687H431.61689V332.6089H74.49687Z"/>
</clipPath>
<clipPath id="clip_2">
<path transform="matrix(1,0,0,-1,0,339.80888)" d="M74.49687 66.49687H431.61689V332.6089H74.49687Z"/>
</clipPath>
<clipPath id="clip_3">
<path transform="matrix(1,0,0,-1,0,339.80888)" d="M74.49687 66.49687H431.61689V332.6089H74.49687Z"/>
</clipPath>
<clipPath id="clip_4">
<path transform="matrix(1,0,0,-1,0,339.80888)" d="M74.49687 66.49687H431.61689V332.6089H74.49687Z"/>
</clipPath>
<clipPath id="clip_5">
<path transform="matrix(1,0,0,-1,0,339.80888)" d="M74.49687 66.49687H431.61689V332.6089H74.49687Z"/>
</clipPath>
<clipPath id="clip_6">
<path transform="matrix(1,0,0,-1,0,339.80888)" d="M74.49687 66.49687H431.61689V332.6089H74.49687Z"/>
</clipPath>
<clipPath id="clip_7">
<path transform="matrix(1,0,0,-1,0,339.80888)" d="M74.49687 66.49687H431.61689V332.6089H74.49687Z"/>
</clipPath>
<clipPath id="clip_8">
<path transform="matrix(1,0,0,-1,0,339.80888)" d="M74.49687 66.49687H431.61689V332.6089H74.49687Z"/>
</clipPath>
<clipPath id="clip_9">
<path transform="matrix(1,0,0,-1,0,339.80888)" d="M74.49687 66.49687H431.61689V332.6089H74.49687Z"/>
</clipPath>
<clipPath id="clip_10">
<path transform="matrix(1,0,0,-1,0,339.80888)" d="M74.49687 66.49687H431.61689V332.6089H74.49687Z"/>
</clipPath>
<clipPath id="clip_11">
<path transform="matrix(1,0,0,-1,0,339.80888)" d="M74.49687 66.49687H431.61689V332.6089H74.49687Z"/>
</clipPath>
<clipPath id="clip_12">
<path transform="matrix(1,0,0,-1,0,339.80888)" d="M74.49687 66.49687H431.61689V332.6089H74.49687Z"/>
</clipPath>
<clipPath id="clip_13">
<path transform="matrix(1,0,0,-1,0,339.80888)" d="M74.49687 66.49687H431.61689V332.6089H74.49687Z"/>
</clipPath>
<clipPath id="clip_14">
<path transform="matrix(1,0,0,-1,0,339.80888)" d="M74.49687 66.49687H431.61689V332.6089H74.49687Z"/>
</clipPath>
<clipPath id="clip_15">
<path transform="matrix(1,0,0,-1,0,339.80888)" d="M74.49687 66.49687H431.61689V332.6089H74.49687Z"/>
</clipPath>
<clipPath id="clip_16">
<path transform="matrix(1,0,0,-1,0,339.80888)" d="M74.49687 66.49687H431.61689V332.6089H74.49687Z"/>
</clipPath>
<clipPath id="clip_17">
<path transform="matrix(1,0,0,-1,0,339.80888)" d="M74.49687 66.49687H431.61689V332.6089H74.49687Z"/>
</clipPath>
<clipPath id="clip_18">
<path transform="matrix(1,0,0,-1,0,339.80888)" d="M74.49687 66.49687H431.61689V332.6089H74.49687Z"/>
</clipPath>
<clipPath id="clip_19">
<path transform="matrix(1,0,0,-1,0,339.80888)" d="M74.49687 66.49687H431.61689V332.6089H74.49687Z"/>
</clipPath>
<clipPath id="clip_20">
<path transform="matrix(1,0,0,-1,0,339.80888)" d="M74.49687 66.49687H431.61689V332.6089H74.49687Z"/>
</clipPath>
<clipPath id="clip_21">
<path transform="matrix(1,0,0,-1,0,339.80888)" d="M74.49687 66.49687H431.61689V332.6089H74.49687Z"/>
</clipPath>
<clipPath id="clip_22">
<path transform="matrix(1,0,0,-1,0,339.80888)" d="M74.49687 66.49687H431.61689V332.6089H74.49687Z"/>
</clipPath>
<clipPath id="clip_23">
<path transform="matrix(1,0,0,-1,0,339.80888)" d="M74.49687 66.49687H431.61689V332.6089H74.49687Z"/>
</clipPath>
<clipPath id="clip_24">
<path transform="matrix(1,0,0,-1,0,339.80888)" d="M74.49687 66.49687H431.61689V332.6089H74.49687Z"/>
</clipPath>
<clipPath id="clip_25">
<path transform="matrix(1,0,0,-1,0,339.80888)" d="M74.49687 66.49687H431.61689V332.6089H74.49687Z"/>
</clipPath>
<clipPath id="clip_26">
<path transform="matrix(1,0,0,-1,0,339.80888)" d="M74.49687 66.49687H431.61689V332.6089H74.49687Z"/>
</clipPath>
<clipPath id="clip_27">
<path transform="matrix(1,0,0,-1,0,339.80888)" d="M74.49687 66.49687H431.61689V332.6089H74.49687Z"/>
</clipPath>
<clipPath id="clip_28">
<path transform="matrix(1,0,0,-1,0,339.80888)" d="M74.49687 66.49687H431.61689V332.6089H74.49687Z"/>
</clipPath>
<clipPath id="clip_29">
<path transform="matrix(1,0,0,-1,0,339.80888)" d="M74.49687 66.49687H431.61689V332.6089H74.49687Z"/>
</clipPath>
<clipPath id="clip_30">
<path transform="matrix(1,0,0,-1,0,339.80888)" d="M74.49687 66.49687H431.61689V332.6089H74.49687Z"/>
</clipPath>
<clipPath id="clip_31">
<path transform="matrix(1,0,0,-1,0,339.80888)" d="M74.49687 66.49687H431.61689V332.6089H74.49687Z"/>
</clipPath>
<clipPath id="clip_32">
<path transform="matrix(1,0,0,-1,0,339.80888)" d="M74.49687 66.49687H431.61689V332.6089H74.49687Z"/>
</clipPath>
<clipPath id="clip_33">
<path transform="matrix(1,0,0,-1,0,339.80888)" d="M74.49687 66.49687H431.61689V332.6089H74.49687Z"/>
</clipPath>
<clipPath id="clip_34">
<path transform="matrix(1,0,0,-1,0,339.80888)" d="M74.49687 66.49687H431.61689V332.6089H74.49687Z"/>
</clipPath>
<clipPath id="clip_35">
<path transform="matrix(1,0,0,-1,0,339.80888)" d="M74.49687 66.49687H431.61689V332.6089H74.49687Z"/>
</clipPath>
<clipPath id="clip_36">
<path transform="matrix(1,0,0,-1,0,339.80888)" d="M74.49687 66.49687H431.61689V332.6089H74.49687Z"/>
</clipPath>
<clipPath id="clip_37">
<path transform="matrix(1,0,0,-1,0,339.80888)" d="M74.49687 66.49687H431.61689V332.6089H74.49687Z"/>
</clipPath>
<clipPath id="clip_38">
<path transform="matrix(1,0,0,-1,0,339.80888)" d="M74.49687 66.49687H431.61689V332.6089H74.49687Z"/>
</clipPath>
<clipPath id="clip_39">
<path transform="matrix(1,0,0,-1,0,339.80888)" d="M74.49687 66.49687H431.61689V332.6089H74.49687Z"/>
</clipPath>
<clipPath id="clip_40">
<path transform="matrix(1,0,0,-1,0,339.80888)" d="M74.49687 66.49687H431.61689V332.6089H74.49687Z"/>
</clipPath>
<clipPath id="clip_41">
<path transform="matrix(1,0,0,-1,0,339.80888)" d="M74.49687 66.49687H431.61689V332.6089H74.49687Z"/>
</clipPath>
<clipPath id="clip_42">
<path transform="matrix(1,0,0,-1,0,339.80888)" d="M74.49687 66.49687H431.61689V332.6089H74.49687Z"/>
</clipPath>
<clipPath id="clip_43">
<path transform="matrix(1,0,0,-1,0,339.80888)" d="M74.49687 66.49687H431.61689V332.6089H74.49687Z"/>
</clipPath>
<clipPath id="clip_44">
<path transform="matrix(1,0,0,-1,0,339.80888)" d="M74.49687 66.49687H431.61689V332.6089H74.49687Z"/>
</clipPath>
<clipPath id="clip_45">
<path transform="matrix(1,0,0,-1,0,339.80888)" d="M74.49687 66.49687H431.61689V332.6089H74.49687Z"/>
</clipPath>
<clipPath id="clip_46">
<path transform="matrix(1,0,0,-1,0,339.80888)" d="M74.49687 66.49687H431.61689V332.6089H74.49687Z"/>
</clipPath>
<clipPath id="clip_47">
<path transform="matrix(1,0,0,-1,0,339.80888)" d="M74.49687 66.49687H431.61689V332.6089H74.49687Z"/>
</clipPath>
<clipPath id="clip_48">
<path transform="matrix(1,0,0,-1,0,339.80888)" d="M74.49687 66.49687H431.61689V332.6089H74.49687Z"/>
</clipPath>
<clipPath id="clip_49">
<path transform="matrix(1,0,0,-1,0,339.80888)" d="M74.49687 66.49687H431.61689V332.6089H74.49687Z"/>
</clipPath>
<clipPath id="clip_50">
<path transform="matrix(1,0,0,-1,0,339.80888)" d="M74.49687 66.49687H431.61689V332.6089H74.49687Z"/>
</clipPath>
<clipPath id="clip_51">
<path transform="matrix(1,0,0,-1,0,339.80888)" d="M74.49687 66.49687H431.61689V332.6089H74.49687Z"/>
</clipPath>
<clipPath id="clip_52">
<path transform="matrix(1,0,0,-1,0,339.80888)" d="M74.49687 66.49687H431.61689V332.6089H74.49687Z"/>
</clipPath>
<clipPath id="clip_53">
<path transform="matrix(1,0,0,-1,0,339.80888)" d="M74.49687 66.49687H431.61689V332.6089H74.49687Z"/>
</clipPath>
<clipPath id="clip_54">
<path transform="matrix(1,0,0,-1,0,339.80888)" d="M74.49687 66.49687H431.61689V332.6089H74.49687Z"/>
</clipPath>
<clipPath id="clip_55">
<path transform="matrix(1,0,0,-1,0,339.80888)" d="M74.49687 66.49687H431.61689V332.6089H74.49687Z"/>
</clipPath>
<clipPath id="clip_56">
<path transform="matrix(1,0,0,-1,0,339.80888)" d="M74.49687 66.49687H431.61689V332.6089H74.49687Z"/>
</clipPath>
<clipPath id="clip_57">
<path transform="matrix(1,0,0,-1,0,339.80888)" d="M74.49687 66.49687H431.61689V332.6089H74.49687Z"/>
</clipPath>
<clipPath id="clip_58">
<path transform="matrix(1,0,0,-1,0,339.80888)" d="M74.49687 66.49687H431.61689V332.6089H74.49687Z"/>
</clipPath>
<clipPath id="clip_59">
<path transform="matrix(1,0,0,-1,0,339.80888)" d="M74.49687 66.49687H431.61689V332.6089H74.49687Z"/>
</clipPath>
<clipPath id="clip_60">
<path transform="matrix(1,0,0,-1,0,339.80888)" d="M74.49687 66.49687H431.61689V332.6089H74.49687Z"/>
</clipPath>
<clipPath id="clip_61">
<path transform="matrix(1,0,0,-1,0,339.80888)" d="M74.49687 66.49687H431.61689V332.6089H74.49687Z"/>
</clipPath>
<clipPath id="clip_62">
<path transform="matrix(1,0,0,-1,0,339.80888)" d="M74.49687 66.49687H431.61689V332.6089H74.49687Z"/>
</clipPath>
<clipPath id="clip_63">
<path transform="matrix(1,0,0,-1,0,339.80888)" d="M74.49687 66.49687H431.61689V332.6089H74.49687Z"/>
</clipPath>
<clipPath id="clip_64">
<path transform="matrix(1,0,0,-1,0,339.80888)" d="M74.49687 66.49687H431.61689V332.6089H74.49687Z"/>
</clipPath>
<clipPath id="clip_65">
<path transform="matrix(1,0,0,-1,0,339.80888)" d="M74.49687 66.49687H431.61689V332.6089H74.49687Z"/>
</clipPath>
<clipPath id="clip_66">
<path transform="matrix(1,0,0,-1,0,339.80888)" d="M74.49687 66.49687H431.61689V332.6089H74.49687Z"/>
</clipPath>
<clipPath id="clip_67">
<path transform="matrix(1,0,0,-1,0,339.80888)" d="M74.49687 66.49687H431.61689V332.6089H74.49687Z"/>
</clipPath>
<clipPath id="clip_68">
<path transform="matrix(1,0,0,-1,0,339.80888)" d="M74.49687 66.49687H431.61689V332.6089H74.49687Z"/>
</clipPath>
<clipPath id="clip_69">
<path transform="matrix(1,0,0,-1,0,339.80888)" d="M74.49687 66.49687H431.61689V332.6089H74.49687Z"/>
</clipPath>
<clipPath id="clip_70">
<path transform="matrix(1,0,0,-1,0,339.80888)" d="M74.49687 66.49687H431.61689V332.6089H74.49687Z"/>
</clipPath>
<clipPath id="clip_71">
<path transform="matrix(1,0,0,-1,0,339.80888)" d="M74.49687 66.49687H431.61689V332.6089H74.49687Z"/>
</clipPath>
<clipPath id="clip_72">
<path transform="matrix(1,0,0,-1,0,339.80888)" d="M74.49687 66.49687H431.61689V332.6089H74.49687Z"/>
</clipPath>
<clipPath id="clip_73">
<path transform="matrix(1,0,0,-1,0,339.80888)" d="M74.49687 66.49687H431.61689V332.6089H74.49687Z"/>
</clipPath>
<clipPath id="clip_74">
<path transform="matrix(1,0,0,-1,0,339.80888)" d="M74.49687 66.49687H431.61689V332.6089H74.49687Z"/>
</clipPath>
<clipPath id="clip_75">
<path transform="matrix(1,0,0,-1,0,339.80888)" d="M74.49687 66.49687H431.61689V332.6089H74.49687Z"/>
</clipPath>
<clipPath id="clip_76">
<path transform="matrix(1,0,0,-1,0,339.80888)" d="M74.49687 66.49687H431.61689V332.6089H74.49687Z"/>
</clipPath>
<clipPath id="clip_77">
<path transform="matrix(1,0,0,-1,0,339.80888)" d="M74.49687 66.49687H431.61689V332.6089H74.49687Z"/>
</clipPath>
<clipPath id="clip_78">
<path transform="matrix(1,0,0,-1,0,339.80888)" d="M74.49687 66.49687H431.61689V332.6089H74.49687Z"/>
</clipPath>
<clipPath id="clip_79">
<path transform="matrix(1,0,0,-1,0,339.80888)" d="M74.49687 66.49687H431.61689V332.6089H74.49687Z"/>
</clipPath>
<clipPath id="clip_80">
<path transform="matrix(1,0,0,-1,0,339.80888)" d="M74.49687 66.49687H431.61689V332.6089H74.49687Z"/>
</clipPath>
<clipPath id="clip_81">
<path transform="matrix(1,0,0,-1,0,339.80888)" d="M74.49687 66.49687H431.61689V332.6089H74.49687Z"/>
</clipPath>
<clipPath id="clip_82">
<path transform="matrix(1,0,0,-1,0,339.80888)" d="M74.49687 66.49687H431.61689V332.6089H74.49687Z"/>
</clipPath>
<clipPath id="clip_83">
<path transform="matrix(1,0,0,-1,0,339.80888)" d="M74.49687 66.49687H431.61689V332.6089H74.49687Z"/>
</clipPath>
<clipPath id="clip_84">
<path transform="matrix(1,0,0,-1,0,339.80888)" d="M74.49687 66.49687H431.61689V332.6089H74.49687Z"/>
</clipPath>
<clipPath id="clip_85">
<path transform="matrix(1,0,0,-1,0,339.80888)" d="M74.49687 66.49687H431.61689V332.6089H74.49687Z"/>
</clipPath>
<clipPath id="clip_86">
<path transform="matrix(1,0,0,-1,0,339.80888)" d="M74.49687 66.49687H431.61689V332.6089H74.49687Z"/>
</clipPath>
<clipPath id="clip_87">
<path transform="matrix(1,0,0,-1,0,339.80888)" d="M74.49687 66.49687H431.61689V332.6089H74.49687Z"/>
</clipPath>
<clipPath id="clip_88">
<path transform="matrix(1,0,0,-1,0,339.80888)" d="M74.49687 66.49687H431.61689V332.6089H74.49687Z"/>
</clipPath>
<clipPath id="clip_89">
<path transform="matrix(1,0,0,-1,0,339.80888)" d="M74.49687 66.49687H431.61689V332.6089H74.49687Z"/>
</clipPath>
<clipPath id="clip_90">
<path transform="matrix(1,0,0,-1,0,339.80888)" d="M74.49687 66.49687H431.61689V332.6089H74.49687Z"/>
</clipPath>
<clipPath id="clip_91">
<path transform="matrix(1,0,0,-1,0,339.80888)" d="M74.49687 66.49687H431.61689V332.6089H74.49687Z"/>
</clipPath>
<clipPath id="clip_92">
<path transform="matrix(1,0,0,-1,0,339.80888)" d="M74.49687 66.49687H431.61689V332.6089H74.49687Z"/>
</clipPath>
<clipPath id="clip_93">
<path transform="matrix(1,0,0,-1,0,339.80888)" d="M74.49687 66.49687H431.61689V332.6089H74.49687Z"/>
</clipPath>
<clipPath id="clip_94">
<path transform="matrix(1,0,0,-1,0,339.80888)" d="M74.49687 66.49687H431.61689V332.6089H74.49687Z"/>
</clipPath>
<clipPath id="clip_95">
<path transform="matrix(1,0,0,-1,0,339.80888)" d="M74.49687 66.49687H431.61689V332.6089H74.49687Z"/>
</clipPath>
<clipPath id="clip_96">
<path transform="matrix(1,0,0,-1,0,339.80888)" d="M74.49687 66.49687H431.61689V332.6089H74.49687Z"/>
</clipPath>
<clipPath id="clip_97">
<path transform="matrix(1,0,0,-1,0,339.80888)" d="M74.49687 66.49687H431.61689V332.6089H74.49687Z"/>
</clipPath>
<clipPath id="clip_98">
<path transform="matrix(1,0,0,-1,0,339.80888)" d="M74.49687 66.49687H431.61689V332.6089H74.49687Z"/>
</clipPath>
<clipPath id="clip_99">
<path transform="matrix(1,0,0,-1,0,339.80888)" d="M74.49687 66.49687H431.61689V332.6089H74.49687Z"/>
</clipPath>
<clipPath id="clip_100">
<path transform="matrix(1,0,0,-1,0,339.80888)" d="M74.49687 66.49687H431.61689V332.6089H74.49687Z"/>
</clipPath>
<clipPath id="clip_101">
<path transform="matrix(1,0,0,-1,0,339.80888)" d="M74.49687 66.49687H431.61689V332.6089H74.49687Z"/>
</clipPath>
<clipPath id="clip_102">
<path transform="matrix(1,0,0,-1,0,339.80888)" d="M74.49687 66.49687H431.61689V332.6089H74.49687Z"/>
</clipPath>
<clipPath id="clip_103">
<path transform="matrix(1,0,0,-1,0,339.80888)" d="M74.49687 66.49687H431.61689V332.6089H74.49687Z"/>
</clipPath>
<clipPath id="clip_104">
<path transform="matrix(1,0,0,-1,0,339.80888)" d="M74.49687 66.49687H431.61689V332.6089H74.49687Z"/>
</clipPath>
<clipPath id="clip_105">
<path transform="matrix(1,0,0,-1,0,339.80888)" d="M74.49687 66.49687H431.61689V332.6089H74.49687Z"/>
</clipPath>
<clipPath id="clip_106">
<path transform="matrix(1,0,0,-1,0,339.80888)" d="M74.49687 66.49687H431.61689V332.6089H74.49687Z"/>
</clipPath>
<clipPath id="clip_107">
<path transform="matrix(1,0,0,-1,0,339.80888)" d="M74.49687 66.49687H431.61689V332.6089H74.49687Z"/>
</clipPath>
<clipPath id="clip_108">
<path transform="matrix(1,0,0,-1,0,339.80888)" d="M74.49687 66.49687H431.61689V332.6089H74.49687Z"/>
</clipPath>
<clipPath id="clip_109">
<path transform="matrix(1,0,0,-1,0,339.80888)" d="M74.49687 66.49687H431.61689V332.6089H74.49687Z"/>
</clipPath>
<clipPath id="clip_110">
<path transform="matrix(1,0,0,-1,0,339.80888)" d="M74.49687 66.49687H431.61689V332.6089H74.49687Z"/>
</clipPath>
<clipPath id="clip_111">
<path transform="matrix(1,0,0,-1,0,339.80888)" d="M74.49687 66.49687H431.61689V332.6089H74.49687Z"/>
</clipPath>
<clipPath id="clip_112">
<path transform="matrix(1,0,0,-1,0,339.80888)" d="M74.49687 66.49687H431.61689V332.6089H74.49687Z"/>
</clipPath>
<clipPath id="clip_113">
<path transform="matrix(1,0,0,-1,0,339.80888)" d="M74.49687 66.49687H431.61689V332.6089H74.49687Z"/>
</clipPath>
<clipPath id="clip_114">
<path transform="matrix(1,0,0,-1,0,339.80888)" d="M74.49687 66.49687H431.61689V332.6089H74.49687Z"/>
</clipPath>
<clipPath id="clip_115">
<path transform="matrix(1,0,0,-1,0,339.80888)" d="M74.49687 66.49687H431.61689V332.6089H74.49687Z"/>
</clipPath>
<clipPath id="clip_116">
<path transform="matrix(1,0,0,-1,0,339.80888)" d="M74.49687 66.49687H431.61689V332.6089H74.49687Z"/>
</clipPath>
<clipPath id="clip_117">
<path transform="matrix(1,0,0,-1,0,339.80888)" d="M74.49687 66.49687H431.61689V332.6089H74.49687Z"/>
</clipPath>
<clipPath id="clip_118">
<path transform="matrix(1,0,0,-1,0,339.80888)" d="M74.49687 66.49687H431.61689V332.6089H74.49687Z"/>
</clipPath>
<clipPath id="clip_119">
<path transform="matrix(1,0,0,-1,0,339.80888)" d="M74.49687 66.49687H431.61689V332.6089H74.49687Z"/>
</clipPath>
<clipPath id="clip_120">
<path transform="matrix(1,0,0,-1,0,339.80888)" d="M74.49687 66.49687H431.61689V332.6089H74.49687Z"/>
</clipPath>
<clipPath id="clip_121">
<path transform="matrix(1,0,0,-1,0,339.80888)" d="M74.49687 66.49687H431.61689V332.6089H74.49687Z"/>
</clipPath>
<clipPath id="clip_122">
<path transform="matrix(1,0,0,-1,0,339.80888)" d="M74.49687 66.49687H431.61689V332.6089H74.49687Z"/>
</clipPath>
<clipPath id="clip_123">
<path transform="matrix(1,0,0,-1,0,339.80888)" d="M74.49687 66.49687H431.61689V332.6089H74.49687Z"/>
</clipPath>
<clipPath id="clip_124">
<path transform="matrix(1,0,0,-1,0,339.80888)" d="M74.49687 66.49687H431.61689V332.6089H74.49687Z"/>
</clipPath>
<clipPath id="clip_125">
<path transform="matrix(1,0,0,-1,0,339.80888)" d="M74.49687 66.49687H431.61689V332.6089H74.49687Z"/>
</clipPath>
<clipPath id="clip_126">
<path transform="matrix(1,0,0,-1,0,339.80888)" d="M74.49687 66.49687H431.61689V332.6089H74.49687Z"/>
</clipPath>
<clipPath id="clip_127">
<path transform="matrix(1,0,0,-1,0,339.80888)" d="M74.49687 66.49687H431.61689V332.6089H74.49687Z"/>
</clipPath>
<clipPath id="clip_128">
<path transform="matrix(1,0,0,-1,0,339.80888)" d="M74.49687 66.49687H431.61689V332.6089H74.49687Z"/>
</clipPath>
<clipPath id="clip_129">
<path transform="matrix(1,0,0,-1,0,339.80888)" d="M74.49687 66.49687H431.61689V332.6089H74.49687Z"/>
</clipPath>
<clipPath id="clip_130">
<path transform="matrix(1,0,0,-1,0,339.80888)" d="M74.49687 66.49687H431.61689V332.6089H74.49687Z"/>
</clipPath>
<clipPath id="clip_131">
<path transform="matrix(1,0,0,-1,0,339.80888)" d="M74.49687 66.49687H431.61689V332.6089H74.49687Z"/>
</clipPath>
<clipPath id="clip_132">
<path transform="matrix(1,0,0,-1,0,339.80888)" d="M74.49687 66.49687H431.61689V332.6089H74.49687Z"/>
</clipPath>
<clipPath id="clip_133">
<path transform="matrix(1,0,0,-1,0,339.80888)" d="M74.49687 66.49687H431.61689V332.6089H74.49687Z"/>
</clipPath>
<clipPath id="clip_134">
<path transform="matrix(1,0,0,-1,0,339.80888)" d="M74.49687 66.49687H431.61689V332.6089H74.49687Z"/>
</clipPath>
<clipPath id="clip_135">
<path transform="matrix(1,0,0,-1,0,339.80888)" d="M74.49687 66.49687H431.61689V332.6089H74.49687Z"/>
</clipPath>
<clipPath id="clip_136">
<path transform="matrix(1,0,0,-1,0,339.80888)" d="M74.49687 66.49687H431.61689V332.6089H74.49687Z"/>
</clipPath>
<clipPath id="clip_137">
<path transform="matrix(1,0,0,-1,0,339.80888)" d="M74.49687 66.49687H431.61689V332.6089H74.49687Z"/>
</clipPath>
<clipPath id="clip_138">
<path transform="matrix(1,0,0,-1,0,339.80888)" d="M74.49687 66.49687H431.61689V332.6089H74.49687Z"/>
</clipPath>
<clipPath id="clip_139">
<path transform="matrix(1,0,0,-1,0,339.80888)" d="M74.49687 66.49687H431.61689V332.6089H74.49687Z"/>
</clipPath>
<clipPath id="clip_140">
<path transform="matrix(1,0,0,-1,0,339.80888)" d="M74.49687 66.49687H431.61689V332.6089H74.49687Z"/>
</clipPath>
<clipPath id="clip_141">
<path transform="matrix(1,0,0,-1,0,339.80888)" d="M74.49687 66.49687H431.61689V332.6089H74.49687Z"/>
</clipPath>
<clipPath id="clip_142">
<path transform="matrix(1,0,0,-1,0,339.80888)" d="M74.49687 66.49687H431.61689V332.6089H74.49687Z"/>
</clipPath>
<clipPath id="clip_143">
<path transform="matrix(1,0,0,-1,0,339.80888)" d="M74.49687 66.49687H431.61689V332.6089H74.49687Z"/>
</clipPath>
<clipPath id="clip_144">
<path transform="matrix(1,0,0,-1,0,339.80888)" d="M74.49687 66.49687H431.61689V332.6089H74.49687Z"/>
</clipPath>
<clipPath id="clip_145">
<path transform="matrix(1,0,0,-1,0,339.80888)" d="M74.49687 66.49687H431.61689V332.6089H74.49687Z"/>
</clipPath>
<clipPath id="clip_146">
<path transform="matrix(1,0,0,-1,0,339.80888)" d="M74.49687 66.49687H431.61689V332.6089H74.49687Z"/>
</clipPath>
<clipPath id="clip_147">
<path transform="matrix(1,0,0,-1,0,339.80888)" d="M74.49687 66.49687H431.61689V332.6089H74.49687Z"/>
</clipPath>
<clipPath id="clip_148">
<path transform="matrix(1,0,0,-1,0,339.80888)" d="M74.49687 66.49687H431.61689V332.6089H74.49687Z"/>
</clipPath>
<clipPath id="clip_149">
<path transform="matrix(1,0,0,-1,0,339.80888)" d="M74.49687 66.49687H431.61689V332.6089H74.49687Z"/>
</clipPath>
<clipPath id="clip_150">
<path transform="matrix(1,0,0,-1,0,339.80888)" d="M74.49687 66.49687H431.61689V332.6089H74.49687Z"/>
</clipPath>
<clipPath id="clip_151">
<path transform="matrix(1,0,0,-1,0,339.80888)" d="M74.49687 66.49687H431.61689V332.6089H74.49687Z"/>
</clipPath>
<clipPath id="clip_152">
<path transform="matrix(1,0,0,-1,0,339.80888)" d="M74.49687 66.49687H431.61689V332.6089H74.49687Z"/>
</clipPath>
<clipPath id="clip_153">
<path transform="matrix(1,0,0,-1,0,339.80888)" d="M74.49687 66.49687H431.61689V332.6089H74.49687Z"/>
</clipPath>
<clipPath id="clip_154">
<path transform="matrix(1,0,0,-1,0,339.80888)" d="M74.49687 66.49687H431.61689V332.6089H74.49687Z"/>
</clipPath>
<clipPath id="clip_155">
<path transform="matrix(1,0,0,-1,0,339.80888)" d="M74.49687 66.49687H431.61689V332.6089H74.49687Z"/>
</clipPath>
<clipPath id="clip_156">
<path transform="matrix(1,0,0,-1,0,339.80888)" d="M74.49687 66.49687H431.61689V332.6089H74.49687Z"/>
</clipPath>
<clipPath id="clip_157">
<path transform="matrix(1,0,0,-1,0,339.80888)" d="M74.49687 66.49687H431.61689V332.6089H74.49687Z"/>
</clipPath>
<clipPath id="clip_158">
<path transform="matrix(1,0,0,-1,0,339.80888)" d="M74.49687 66.49687H431.61689V332.6089H74.49687Z"/>
</clipPath>
<clipPath id="clip_159">
<path transform="matrix(1,0,0,-1,0,339.80888)" d="M74.49687 66.49687H431.61689V332.6089H74.49687Z"/>
</clipPath>
<clipPath id="clip_160">
<path transform="matrix(1,0,0,-1,0,339.80888)" d="M74.49687 66.49687H431.61689V332.6089H74.49687Z"/>
</clipPath>
<clipPath id="clip_161">
<path transform="matrix(1,0,0,-1,0,339.80888)" d="M74.49687 66.49687H431.61689V332.6089H74.49687Z"/>
</clipPath>
<clipPath id="clip_162">
<path transform="matrix(1,0,0,-1,0,339.80888)" d="M74.49687 66.49687H431.61689V332.6089H74.49687Z"/>
</clipPath>
<clipPath id="clip_163">
<path transform="matrix(1,0,0,-1,0,339.80888)" d="M74.49687 66.49687H431.61689V332.6089H74.49687Z"/>
</clipPath>
<clipPath id="clip_164">
<path transform="matrix(1,0,0,-1,0,339.80888)" d="M74.49687 66.49687H431.61689V332.6089H74.49687Z"/>
</clipPath>
<clipPath id="clip_165">
<path transform="matrix(1,0,0,-1,0,339.80888)" d="M74.49687 66.49687H431.61689V332.6089H74.49687Z"/>
</clipPath>
<clipPath id="clip_166">
<path transform="matrix(1,0,0,-1,0,339.80888)" d="M74.49687 66.49687H431.61689V332.6089H74.49687Z"/>
</clipPath>
<clipPath id="clip_167">
<path transform="matrix(1,0,0,-1,0,339.80888)" d="M74.49687 66.49687H431.61689V332.6089H74.49687Z"/>
</clipPath>
<clipPath id="clip_168">
<path transform="matrix(1,0,0,-1,0,339.80888)" d="M74.49687 66.49687H431.61689V332.6089H74.49687Z"/>
</clipPath>
<clipPath id="clip_169">
<path transform="matrix(1,0,0,-1,0,339.80888)" d="M74.49687 66.49687H431.61689V332.6089H74.49687Z"/>
</clipPath>
<clipPath id="clip_170">
<path transform="matrix(1,0,0,-1,0,339.80888)" d="M74.49687 66.49687H431.61689V332.6089H74.49687Z"/>
</clipPath>
<clipPath id="clip_171">
<path transform="matrix(1,0,0,-1,0,339.80888)" d="M74.49687 66.49687H431.61689V332.6089H74.49687Z"/>
</clipPath>
<clipPath id="clip_172">
<path transform="matrix(1,0,0,-1,0,339.80888)" d="M74.49687 66.49687H431.61689V332.6089H74.49687Z"/>
</clipPath>
<clipPath id="clip_173">
<path transform="matrix(1,0,0,-1,0,339.80888)" d="M74.49687 66.49687H431.61689V332.6089H74.49687Z"/>
</clipPath>
<clipPath id="clip_174">
<path transform="matrix(1,0,0,-1,0,339.80888)" d="M74.49687 66.49687H431.61689V332.6089H74.49687Z"/>
</clipPath>
<clipPath id="clip_175">
<path transform="matrix(1,0,0,-1,0,339.80888)" d="M74.49687 66.49687H431.61689V332.6089H74.49687Z"/>
</clipPath>
<clipPath id="clip_176">
<path transform="matrix(1,0,0,-1,0,339.80888)" d="M74.49687 66.49687H431.61689V332.6089H74.49687Z"/>
</clipPath>
<clipPath id="clip_177">
<path transform="matrix(1,0,0,-1,0,339.80888)" d="M74.49687 66.49687H431.61689V332.6089H74.49687Z"/>
</clipPath>
<clipPath id="clip_178">
<path transform="matrix(1,0,0,-1,0,339.80888)" d="M74.49687 66.49687H431.61689V332.6089H74.49687Z"/>
</clipPath>
<clipPath id="clip_179">
<path transform="matrix(1,0,0,-1,0,339.80888)" d="M74.49687 66.49687H431.61689V332.6089H74.49687Z"/>
</clipPath>
<clipPath id="clip_180">
<path transform="matrix(1,0,0,-1,0,339.80888)" d="M74.49687 66.49687H431.61689V332.6089H74.49687Z"/>
</clipPath>
<clipPath id="clip_181">
<path transform="matrix(1,0,0,-1,0,339.80888)" d="M74.49687 66.49687H431.61689V332.6089H74.49687Z"/>
</clipPath>
<clipPath id="clip_182">
<path transform="matrix(1,0,0,-1,0,339.80888)" d="M74.49687 66.49687H431.61689V332.6089H74.49687Z"/>
</clipPath>
<clipPath id="clip_183">
<path transform="matrix(1,0,0,-1,0,339.80888)" d="M74.49687 66.49687H431.61689V332.6089H74.49687Z"/>
</clipPath>
<clipPath id="clip_184">
<path transform="matrix(1,0,0,-1,0,339.80888)" d="M74.49687 66.49687H431.61689V332.6089H74.49687Z"/>
</clipPath>
<clipPath id="clip_185">
<path transform="matrix(1,0,0,-1,0,339.80888)" d="M74.49687 66.49687H431.61689V332.6089H74.49687Z"/>
</clipPath>
<clipPath id="clip_186">
<path transform="matrix(1,0,0,-1,0,339.80888)" d="M74.49687 66.49687H431.61689V332.6089H74.49687Z"/>
</clipPath>
<clipPath id="clip_187">
<path transform="matrix(1,0,0,-1,0,339.80888)" d="M74.49687 66.49687H431.61689V332.6089H74.49687Z"/>
</clipPath>
<clipPath id="clip_188">
<path transform="matrix(1,0,0,-1,0,339.80888)" d="M74.49687 66.49687H431.61689V332.6089H74.49687Z"/>
</clipPath>
<clipPath id="clip_189">
<path transform="matrix(1,0,0,-1,0,339.80888)" d="M74.49687 66.49687H431.61689V332.6089H74.49687Z"/>
</clipPath>
<clipPath id="clip_190">
<path transform="matrix(1,0,0,-1,0,339.80888)" d="M74.49687 66.49687H431.61689V332.6089H74.49687Z"/>
</clipPath>
<clipPath id="clip_191">
<path transform="matrix(1,0,0,-1,0,339.80888)" d="M74.49687 66.49687H431.61689V332.6089H74.49687Z"/>
</clipPath>
<clipPath id="clip_192">
<path transform="matrix(1,0,0,-1,0,339.80888)" d="M74.49687 66.49687H431.61689V332.6089H74.49687Z"/>
</clipPath>
<clipPath id="clip_193">
<path transform="matrix(1,0,0,-1,0,339.80888)" d="M74.49687 66.49687H431.61689V332.6089H74.49687Z"/>
</clipPath>
<clipPath id="clip_194">
<path transform="matrix(1,0,0,-1,0,339.80888)" d="M74.49687 66.49687H431.61689V332.6089H74.49687Z"/>
</clipPath>
<clipPath id="clip_195">
<path transform="matrix(1,0,0,-1,0,339.80888)" d="M74.49687 66.49687H431.61689V332.6089H74.49687Z"/>
</clipPath>
<clipPath id="clip_196">
<path transform="matrix(1,0,0,-1,0,339.80888)" d="M74.49687 66.49687H431.61689V332.6089H74.49687Z"/>
</clipPath>
<clipPath id="clip_197">
<path transform="matrix(1,0,0,-1,0,339.80888)" d="M74.49687 66.49687H431.61689V332.6089H74.49687Z"/>
</clipPath>
<clipPath id="clip_198">
<path transform="matrix(1,0,0,-1,0,339.80888)" d="M74.49687 66.49687H431.61689V332.6089H74.49687Z"/>
</clipPath>
<clipPath id="clip_199">
<path transform="matrix(1,0,0,-1,0,339.80888)" d="M74.49687 66.49687H431.61689V332.6089H74.49687Z"/>
</clipPath>
<g id="font_200_48">
<path transform="matrix(.001,0,0,.001,0,0)" d="M318 664C267 664 229 639 203 589 177 539 165 464 165 364 165 264 177 189 203 139 229 89 267 64 318 64 369 64 407 89 433 139 458 189 471 264 471 364 471 464 458 539 433 589 407 639 369 664 318 664ZM318 742C399 742 461 709 505 645 548 580 570 486 570 364 570 241 548 147 505 83 461 19 399-13 317-13 235-13 173 19 130 83 87 147 66 241 66 364 66 486 87 580 130 645 173 709 236 742 318 742Z"/>
</g>
<g id="font_200_46">
<path transform="matrix(.001,0,0,.001,0,0)" d="M107 124H210V0H107V124Z"/>
</g>
<g id="font_200_53">
<path transform="matrix(.001,0,0,.001,0,0)" d="M108 729H495V646H198V467C212 472 227 476 241 478 255 480 270 482 284 482 365 482 429 459 477 415 525 370 549 310 549 234 549 155 524 94 475 51 426 8 357-13 269-13 238-13 207-10 175-6 143-1 111 6 77 17V116C106 100 136 88 168 80 199 72 232 69 267 69 323 69 368 83 401 113 433 143 450 183 450 234 450 284 433 324 401 354 368 384 323 399 267 399 241 399 214 396 188 390 162 384 135 375 108 363V729Z"/>
</g>
<g id="font_200_49">
<path transform="matrix(.001,0,0,.001,0,0)" d="M124 83H285V639L110 604V694L284 729H383V83H544V0H124V83Z"/>
</g>
<g id="font_200_50">
<path transform="matrix(.001,0,0,.001,0,0)" d="M192 83H536V0H73V83C110 121 161 173 226 239 290 304 331 346 348 365 380 400 402 430 414 455 426 479 433 504 433 528 433 566 419 598 392 622 365 646 330 659 286 659 255 659 222 653 188 643 154 632 117 616 78 594V694C118 710 155 722 189 730 223 738 255 742 284 742 359 742 419 723 464 685 509 647 532 597 532 534 532 504 526 475 515 449 504 422 484 390 454 354 446 344 420 317 376 272 332 227 271 164 192 83Z"/>
</g>
<g id="font_200_124">
<path transform="matrix(.001,0,0,.001,0,0)" d="M210 764V-235H127V764H210Z"/>
</g>
<g id="font_201_120">
<path transform="matrix(.001,0,0,.001,0,0)" d="M600 547 349 279 503 0H400L284 217 83 0H-25L243 288 100 547H203L308 349 491 547H600Z"/>
</g>
<g id="font_200_40">
<path transform="matrix(.001,0,0,.001,0,0)" d="M310 759C266 683 234 609 213 536 191 463 181 389 181 314 181 238 191 164 213 91 234 17 266-56 310-131H232C183-54 146 20 122 94 98 168 86 241 86 314 86 386 98 459 122 533 146 607 182 682 232 759H310Z"/>
</g>
<g id="font_201_103">
<path transform="matrix(.001,0,0,.001,0,0)" d="M596 547 503 68C485-24 450-92 400-138 349-184 281-207 196-207 164-207 134-204 107-200 80-195 55-188 32-178L49-91C71-105 94-115 119-122 143-129 170-133 198-133 255-133 302-117 339-86 375-55 399-11 411 47L419 88C393 59 364 37 331 22 298 7 262 0 224 0 168 0 125 18 93 55 61 91 46 142 46 206 46 256 55 306 75 354 94 402 121 445 156 483 178 507 205 526 236 540 267 553 299 560 333 560 369 560 401 551 429 534 456 517 476 493 490 462L506 547H596ZM461 346C461 390 450 425 429 449 408 473 379 485 341 485 317 485 294 480 273 471 251 461 233 448 218 431 193 403 174 370 160 332 146 294 139 255 139 215 139 169 149 135 170 111 191 87 221 75 261 75 318 75 366 100 404 152 442 204 461 268 461 346Z"/>
</g>
<g id="font_200_41">
<path transform="matrix(.001,0,0,.001,0,0)" d="M80 759H158C206 682 243 607 267 533 291 459 304 386 304 314 304 241 291 168 267 94 243 20 206-54 158-131H80C123-56 155 17 177 91 198 164 209 238 209 314 209 389 198 463 177 536 155 609 123 683 80 759Z"/>
</g>
<g id="font_201_116">
<path transform="matrix(.001,0,0,.001,0,0)" d="M423 547 409 477H230L172 180C170 169 168 160 167 152 166 144 166 139 166 135 166 114 172 99 185 89 197 79 217 75 245 75H336L321 0H235C181 0 141 10 115 31 89 52 76 84 76 126 76 133 76 141 77 150 78 159 80 169 82 180L140 477H64L78 547H153L183 702H273L243 547H423Z"/>
</g>
<clipPath id="clip_202">
<path transform="matrix(.022,0,0,-.022,219.45726,324.99324)" d="M-1021-463H1794V1233H-1021Z"/>
</clipPath>
<clipPath id="clip_203">
<path transform="matrix(.022,0,0,-.022,245.62445,325.71199)" d="M-1021-463H1794V1233H-1021Z"/>
</clipPath>
<clipPath id="clip_204">
<path transform="matrix(.022,0,0,-.022,282.83247,324.99324)" d="M-1021-463H1794V1233H-1021Z"/>
</clipPath>
<g id="font_201_80">
<path transform="matrix(.001,0,0,.001,0,0)" d="M169 729H397C463 729 514 713 549 682 583 651 601 606 601 547 601 467 575 404 524 360 472 315 400 293 307 293H183L126 0H27L169 729ZM252 648 199 374H323C379 374 422 388 452 417 482 445 497 486 497 540 497 574 486 600 466 619 446 638 417 648 381 648H252Z"/>
</g>
<clipPath id="clip_205">
<path transform="matrix(1,0,0,-1,0,339.80888)" d="M74.49687 66.49687H431.61689V332.6089H74.49687Z"/>
</clipPath>
<clipPath id="clip_206">
<path transform="matrix(1,0,0,-1,0,339.80888)" d="M74.49687 66.49687H431.61689V332.6089H74.49687Z"/>
</clipPath>
</defs>
<path transform="matrix(1,0,0,-1,0,339.80888)" d="M0 0H440.08415V339.80888H0Z" fill="#ffffff"/>
<path transform="matrix(1,0,0,-1,0,339.80888)" d="M74.49687 66.49687H431.61689V332.6089H74.49687Z" fill="#ffffff"/>
<g clip-path="url(#clip_0)">
<path transform="matrix(1,0,0,-1,0,339.80888)" d="M90.7296 66.49687H93.97615 90.7296Z" fill="#3cb371" fill-opacity=".5"/>
</g>
<g clip-path="url(#clip_1)">
<path transform="matrix(1,0,0,-1,0,339.80888)" d="M93.97615 66.49687H97.222698 93.97615Z" fill="#3cb371" fill-opacity=".5"/>
</g>
<g clip-path="url(#clip_2)">
<path transform="matrix(1,0,0,-1,0,339.80888)" d="M97.222698 66.49687H100.46924 97.222698Z" fill="#3cb371" fill-opacity=".5"/>
</g>
<g clip-path="url(#clip_3)">
<path transform="matrix(1,0,0,-1,0,339.80888)" d="M100.46924 66.49687H103.71578 100.46924Z" fill="#3cb371" fill-opacity=".5"/>
</g>
<g clip-path="url(#clip_4)">
<path transform="matrix(1,0,0,-1,0,339.80888)" d="M103.71578 66.49687H106.96233 103.71578Z" fill="#3cb371" fill-opacity=".5"/>
</g>
<g clip-path="url(#clip_5)">
<path transform="matrix(1,0,0,-1,0,339.80888)" d="M106.96233 66.49687H110.20888 106.96233Z" fill="#3cb371" fill-opacity=".5"/>
</g>
<g clip-path="url(#clip_6)">
<path transform="matrix(1,0,0,-1,0,339.80888)" d="M110.20888 66.49687H113.45542 110.20888Z" fill="#3cb371" fill-opacity=".5"/>
</g>
<g clip-path="url(#clip_7)">
<path transform="matrix(1,0,0,-1,0,339.80888)" d="M113.45542 66.49687H116.701969 113.45542Z" fill="#3cb371" fill-opacity=".5"/>
</g>
<g clip-path="url(#clip_8)">
<path transform="matrix(1,0,0,-1,0,339.80888)" d="M116.701969 66.49687H119.94851 116.701969Z" fill="#3cb371" fill-opacity=".5"/>
</g>
<g clip-path="url(#clip_9)">
<path transform="matrix(1,0,0,-1,0,339.80888)" d="M119.94851 66.49687H123.19506 119.94851Z" fill="#3cb371" fill-opacity=".5"/>
</g>
<g clip-path="url(#clip_10)">
<path transform="matrix(1,0,0,-1,0,339.80888)" d="M123.19506 66.49687H126.441608 123.19506Z" fill="#3cb371" fill-opacity=".5"/>
</g>
<g clip-path="url(#clip_11)">
<path transform="matrix(1,0,0,-1,0,339.80888)" d="M126.441608 66.49687H129.68814 126.441608Z" fill="#3cb371" fill-opacity=".5"/>
</g>
<g clip-path="url(#clip_12)">
<path transform="matrix(1,0,0,-1,0,339.80888)" d="M129.68814 66.49687H132.9347 129.68814Z" fill="#3cb371" fill-opacity=".5"/>
</g>
<g clip-path="url(#clip_13)">
<path transform="matrix(1,0,0,-1,0,339.80888)" d="M132.9347 66.49687H136.18125 132.9347Z" fill="#3cb371" fill-opacity=".5"/>
</g>
<g clip-path="url(#clip_14)">
<path transform="matrix(1,0,0,-1,0,339.80888)" d="M136.18125 66.49687H139.42778 136.18125Z" fill="#3cb371" fill-opacity=".5"/>
</g>
<g clip-path="url(#clip_15)">
<path transform="matrix(1,0,0,-1,0,339.80888)" d="M139.42778 66.49687H142.67433 139.42778Z" fill="#3cb371" fill-opacity=".5"/>
</g>
<g clip-path="url(#clip_16)">
<path transform="matrix(1,0,0,-1,0,339.80888)" d="M142.67433 66.49687H145.92089V66.71294H142.67433Z" fill="#3cb371" fill-opacity=".5"/>
</g>
<g clip-path="url(#clip_17)">
<path transform="matrix(1,0,0,-1,0,339.80888)" d="M145.92089 66.49687H149.16742V67.79324H145.92089Z" fill="#3cb371" fill-opacity=".5"/>
</g>
<g clip-path="url(#clip_18)">
<path transform="matrix(1,0,0,-1,0,339.80888)" d="M149.16742 66.49687H152.41397V67.79324H149.16742Z" fill="#3cb371" fill-opacity=".5"/>
</g>
<g clip-path="url(#clip_19)">
<path transform="matrix(1,0,0,-1,0,339.80888)" d="M152.41397 66.49687H155.6605V69.7378H152.41397Z" fill="#3cb371" fill-opacity=".5"/>
</g>
<g clip-path="url(#clip_20)">
<path transform="matrix(1,0,0,-1,0,339.80888)" d="M155.6605 66.49687H158.90706V72.33055H155.6605Z" fill="#3cb371" fill-opacity=".5"/>
</g>
<g clip-path="url(#clip_21)">
<path transform="matrix(1,0,0,-1,0,339.80888)" d="M158.90706 66.49687H162.1536V82.48544H158.90706Z" fill="#3cb371" fill-opacity=".5"/>
</g>
<g clip-path="url(#clip_22)">
<path transform="matrix(1,0,0,-1,0,339.80888)" d="M162.1536 66.49687H165.40015V96.52945H162.1536Z" fill="#3cb371" fill-opacity=".5"/>
</g>
<g clip-path="url(#clip_23)">
<path transform="matrix(1,0,0,-1,0,339.80888)" d="M165.40015 66.49687H168.6467V119.8642H165.40015Z" fill="#3cb371" fill-opacity=".5"/>
</g>
<g clip-path="url(#clip_24)">
<path transform="matrix(1,0,0,-1,0,339.80888)" d="M168.6467 66.49687H171.89324V141.9024H168.6467Z" fill="#3cb371" fill-opacity=".5"/>
</g>
<g clip-path="url(#clip_25)">
<path transform="matrix(1,0,0,-1,0,339.80888)" d="M171.89324 66.49687H175.13979V184.89887H171.89324Z" fill="#3cb371" fill-opacity=".5"/>
</g>
<g clip-path="url(#clip_26)">
<path transform="matrix(1,0,0,-1,0,339.80888)" d="M175.13979 66.49687H178.38634V207.3689H175.13979Z" fill="#3cb371" fill-opacity=".5"/>
</g>
<g clip-path="url(#clip_27)">
<path transform="matrix(1,0,0,-1,0,339.80888)" d="M178.38634 66.49687H181.63288V247.34079H178.38634Z" fill="#3cb371" fill-opacity=".5"/>
</g>
<g clip-path="url(#clip_28)">
<path transform="matrix(1,0,0,-1,0,339.80888)" d="M181.63288 66.49687H184.87943V270.45945H181.63288Z" fill="#3cb371" fill-opacity=".5"/>
</g>
<g clip-path="url(#clip_29)">
<path transform="matrix(1,0,0,-1,0,339.80888)" d="M184.87943 66.49687H188.12598V292.49708H184.87943Z" fill="#3cb371" fill-opacity=".5"/>
</g>
<g clip-path="url(#clip_30)">
<path transform="matrix(1,0,0,-1,0,339.80888)" d="M188.12598 66.49687H191.37252V306.75785H188.12598Z" fill="#3cb371" fill-opacity=".5"/>
</g>
<g clip-path="url(#clip_31)">
<path transform="matrix(1,0,0,-1,0,339.80888)" d="M191.37252 66.49687H194.61905V313.45579H191.37252Z" fill="#3cb371" fill-opacity=".5"/>
</g>
<g clip-path="url(#clip_32)">
<path transform="matrix(1,0,0,-1,0,339.80888)" d="M194.61905 66.49687H197.8656V319.9369H194.61905Z" fill="#3cb371" fill-opacity=".5"/>
</g>
<g clip-path="url(#clip_33)">
<path transform="matrix(1,0,0,-1,0,339.80888)" d="M197.8656 66.49687H201.11215V305.4615H197.8656Z" fill="#3cb371" fill-opacity=".5"/>
</g>
<g clip-path="url(#clip_34)">
<path transform="matrix(1,0,0,-1,0,339.80888)" d="M201.11215 66.49687H204.35869V277.3734H201.11215Z" fill="#3cb371" fill-opacity=".5"/>
</g>
<g clip-path="url(#clip_35)">
<path transform="matrix(1,0,0,-1,0,339.80888)" d="M204.35869 66.49687H207.60524V271.107H204.35869Z" fill="#3cb371" fill-opacity=".5"/>
</g>
<g clip-path="url(#clip_36)">
<path transform="matrix(1,0,0,-1,0,339.80888)" d="M207.60524 66.49687H210.85179V287.52833H207.60524Z" fill="#3cb371" fill-opacity=".5"/>
</g>
<g clip-path="url(#clip_37)">
<path transform="matrix(1,0,0,-1,0,339.80888)" d="M210.85179 66.49687H214.09833V288.8247H210.85179Z" fill="#3cb371" fill-opacity=".5"/>
</g>
<g clip-path="url(#clip_38)">
<path transform="matrix(1,0,0,-1,0,339.80888)" d="M214.09833 66.49687H217.34487V265.05787H214.09833Z" fill="#3cb371" fill-opacity=".5"/>
</g>
<g clip-path="url(#clip_39)">
<path transform="matrix(1,0,0,-1,0,339.80888)" d="M217.34487 66.49687H220.59142V227.03049H217.34487Z" fill="#3cb371" fill-opacity=".5"/>
</g>
<g clip-path="url(#clip_40)">
<path transform="matrix(1,0,0,-1,0,339.80888)" d="M220.59142 66.49687H223.83797V195.91803H220.59142Z" fill="#3cb371" fill-opacity=".5"/>
</g>
<g clip-path="url(#clip_41)">
<path transform="matrix(1,0,0,-1,0,339.80888)" d="M223.83797 66.49687H227.0845V179.28125H223.83797Z" fill="#3cb371" fill-opacity=".5"/>
</g>
<g clip-path="url(#clip_42)">
<path transform="matrix(1,0,0,-1,0,339.80888)" d="M227.0845 66.49687H230.33106V177.98455H227.0845Z" fill="#3cb371" fill-opacity=".5"/>
</g>
<g clip-path="url(#clip_43)">
<path transform="matrix(1,0,0,-1,0,339.80888)" d="M230.33106 66.49687H233.5776V182.30612H230.33106Z" fill="#3cb371" fill-opacity=".5"/>
</g>
<g clip-path="url(#clip_44)">
<path transform="matrix(1,0,0,-1,0,339.80888)" d="M233.5776 66.49687H236.82415V173.66364H233.5776Z" fill="#3cb371" fill-opacity=".5"/>
</g>
<g clip-path="url(#clip_45)">
<path transform="matrix(1,0,0,-1,0,339.80888)" d="M236.82415 66.49687H240.0707V154.21779H236.82415Z" fill="#3cb371" fill-opacity=".5"/>
</g>
<g clip-path="url(#clip_46)">
<path transform="matrix(1,0,0,-1,0,339.80888)" d="M240.0707 66.49687H243.31725V160.05173H240.0707Z" fill="#3cb371" fill-opacity=".5"/>
</g>
<g clip-path="url(#clip_47)">
<path transform="matrix(1,0,0,-1,0,339.80888)" d="M243.31725 66.49687H246.56378V155.51444H243.31725Z" fill="#3cb371" fill-opacity=".5"/>
</g>
<g clip-path="url(#clip_48)">
<path transform="matrix(1,0,0,-1,0,339.80888)" d="M246.56378 66.49687H249.81034V144.71109H246.56378Z" fill="#3cb371" fill-opacity=".5"/>
</g>
<g clip-path="url(#clip_49)">
<path transform="matrix(1,0,0,-1,0,339.80888)" d="M249.81034 66.49687H253.05687V145.35951H249.81034Z" fill="#3cb371" fill-opacity=".5"/>
</g>
<g clip-path="url(#clip_50)">
<path transform="matrix(1,0,0,-1,0,339.80888)" d="M253.05687 66.49687H256.3034V141.25434H253.05687Z" fill="#3cb371" fill-opacity=".5"/>
</g>
<g clip-path="url(#clip_51)">
<path transform="matrix(1,0,0,-1,0,339.80888)" d="M256.3034 66.49687H259.54997V127.85849H256.3034Z" fill="#3cb371" fill-opacity=".5"/>
</g>
<g clip-path="url(#clip_52)">
<path transform="matrix(1,0,0,-1,0,339.80888)" d="M259.54997 66.49687H262.7965V123.75331H259.54997Z" fill="#3cb371" fill-opacity=".5"/>
</g>
<g clip-path="url(#clip_53)">
<path transform="matrix(1,0,0,-1,0,339.80888)" d="M262.7965 66.49687H266.04307V120.07994H262.7965Z" fill="#3cb371" fill-opacity=".5"/>
</g>
<g clip-path="url(#clip_54)">
<path transform="matrix(1,0,0,-1,0,339.80888)" d="M266.04307 66.49687H269.2896V108.196849H266.04307Z" fill="#3cb371" fill-opacity=".5"/>
</g>
<g clip-path="url(#clip_55)">
<path transform="matrix(1,0,0,-1,0,339.80888)" d="M269.2896 66.49687H272.53617V103.44348H269.2896Z" fill="#3cb371" fill-opacity=".5"/>
</g>
<g clip-path="url(#clip_56)">
<path transform="matrix(1,0,0,-1,0,339.80888)" d="M272.53617 66.49687H275.78269V100.41861H272.53617Z" fill="#3cb371" fill-opacity=".5"/>
</g>
<g clip-path="url(#clip_57)">
<path transform="matrix(1,0,0,-1,0,339.80888)" d="M275.78269 66.49687H279.02925V94.36887H275.78269Z" fill="#3cb371" fill-opacity=".5"/>
</g>
<g clip-path="url(#clip_58)">
<path transform="matrix(1,0,0,-1,0,339.80888)" d="M279.02925 66.49687H282.2758V91.992198H279.02925Z" fill="#3cb371" fill-opacity=".5"/>
</g>
<g clip-path="url(#clip_59)">
<path transform="matrix(1,0,0,-1,0,339.80888)" d="M282.2758 66.49687H285.52235V82.91749H282.2758Z" fill="#3cb371" fill-opacity=".5"/>
</g>
<g clip-path="url(#clip_60)">
<path transform="matrix(1,0,0,-1,0,339.80888)" d="M285.52235 66.49687H288.7689V81.40515H285.52235Z" fill="#3cb371" fill-opacity=".5"/>
</g>
<g clip-path="url(#clip_61)">
<path transform="matrix(1,0,0,-1,0,339.80888)" d="M288.7689 66.49687H292.0154V79.02847H288.7689Z" fill="#3cb371" fill-opacity=".5"/>
</g>
<g clip-path="url(#clip_62)">
<path transform="matrix(1,0,0,-1,0,339.80888)" d="M292.0154 66.49687H295.26197V78.38029H292.0154Z" fill="#3cb371" fill-opacity=".5"/>
</g>
<g clip-path="url(#clip_63)">
<path transform="matrix(1,0,0,-1,0,339.80888)" d="M295.26197 66.49687H298.5085V74.923297H295.26197Z" fill="#3cb371" fill-opacity=".5"/>
</g>
<g clip-path="url(#clip_64)">
<path transform="matrix(1,0,0,-1,0,339.80888)" d="M298.5085 66.49687H301.75505V74.059047H298.5085Z" fill="#3cb371" fill-opacity=".5"/>
</g>
<g clip-path="url(#clip_65)">
<path transform="matrix(1,0,0,-1,0,339.80888)" d="M301.75505 66.49687H305.00163V71.25021H301.75505Z" fill="#3cb371" fill-opacity=".5"/>
</g>
<g clip-path="url(#clip_66)">
<path transform="matrix(1,0,0,-1,0,339.80888)" d="M305.00163 66.49687H308.24815V70.385997H305.00163Z" fill="#3cb371" fill-opacity=".5"/>
</g>
<g clip-path="url(#clip_67)">
<path transform="matrix(1,0,0,-1,0,339.80888)" d="M308.24815 66.49687H311.4947V69.953868H308.24815Z" fill="#3cb371" fill-opacity=".5"/>
</g>
<g clip-path="url(#clip_68)">
<path transform="matrix(1,0,0,-1,0,339.80888)" d="M311.4947 66.49687H314.74125V68.00931H311.4947Z" fill="#3cb371" fill-opacity=".5"/>
</g>
<g clip-path="url(#clip_69)">
<path transform="matrix(1,0,0,-1,0,339.80888)" d="M314.74125 66.49687H317.9878V69.08962H314.74125Z" fill="#3cb371" fill-opacity=".5"/>
</g>
<g clip-path="url(#clip_70)">
<path transform="matrix(1,0,0,-1,0,339.80888)" d="M317.9878 66.49687H321.2343V68.44144H317.9878Z" fill="#3cb371" fill-opacity=".5"/>
</g>
<g clip-path="url(#clip_71)">
<path transform="matrix(1,0,0,-1,0,339.80888)" d="M321.2343 66.49687H324.4809V68.0093H321.2343Z" fill="#3cb371" fill-opacity=".5"/>
</g>
<g clip-path="url(#clip_72)">
<path transform="matrix(1,0,0,-1,0,339.80888)" d="M324.4809 66.49687H327.72743V66.71294H324.4809Z" fill="#3cb371" fill-opacity=".5"/>
</g>
<g clip-path="url(#clip_73)">
<path transform="matrix(1,0,0,-1,0,339.80888)" d="M327.72743 66.49687H330.97398V67.36112H327.72743Z" fill="#3cb371" fill-opacity=".5"/>
</g>
<g clip-path="url(#clip_74)">
<path transform="matrix(1,0,0,-1,0,339.80888)" d="M330.97398 66.49687H334.22053V66.71294H330.97398Z" fill="#3cb371" fill-opacity=".5"/>
</g>
<g clip-path="url(#clip_75)">
<path transform="matrix(1,0,0,-1,0,339.80888)" d="M334.22053 66.49687H337.46705 334.22053Z" fill="#3cb371" fill-opacity=".5"/>
</g>
<g clip-path="url(#clip_76)">
<path transform="matrix(1,0,0,-1,0,339.80888)" d="M337.46705 66.49687H340.7136V66.71294H337.46705Z" fill="#3cb371" fill-opacity=".5"/>
</g>
<g clip-path="url(#clip_77)">
<path transform="matrix(1,0,0,-1,0,339.80888)" d="M340.7136 66.49687H343.96015 340.7136Z" fill="#3cb371" fill-opacity=".5"/>
</g>
<g clip-path="url(#clip_78)">
<path transform="matrix(1,0,0,-1,0,339.80888)" d="M343.96015 66.49687H347.2067 343.96015Z" fill="#3cb371" fill-opacity=".5"/>
</g>
<g clip-path="url(#clip_79)">
<path transform="matrix(1,0,0,-1,0,339.80888)" d="M347.2067 66.49687H350.45326 347.2067Z" fill="#3cb371" fill-opacity=".5"/>
</g>
<g clip-path="url(#clip_80)">
<path transform="matrix(1,0,0,-1,0,339.80888)" d="M350.45326 66.49687H353.6998 350.45326Z" fill="#3cb371" fill-opacity=".5"/>
</g>
<g clip-path="url(#clip_81)">
<path transform="matrix(1,0,0,-1,0,339.80888)" d="M353.6998 66.49687H356.94633 353.6998Z" fill="#3cb371" fill-opacity=".5"/>
</g>
<g clip-path="url(#clip_82)">
<path transform="matrix(1,0,0,-1,0,339.80888)" d="M356.94633 66.49687H360.19288 356.94633Z" fill="#3cb371" fill-opacity=".5"/>
</g>
<g clip-path="url(#clip_83)">
<path transform="matrix(1,0,0,-1,0,339.80888)" d="M360.19288 66.49687H363.43943 360.19288Z" fill="#3cb371" fill-opacity=".5"/>
</g>
<g clip-path="url(#clip_84)">
<path transform="matrix(1,0,0,-1,0,339.80888)" d="M363.43943 66.49687H366.68598 363.43943Z" fill="#3cb371" fill-opacity=".5"/>
</g>
<g clip-path="url(#clip_85)">
<path transform="matrix(1,0,0,-1,0,339.80888)" d="M366.68598 66.49687H369.93254 366.68598Z" fill="#3cb371" fill-opacity=".5"/>
</g>
<g clip-path="url(#clip_86)">
<path transform="matrix(1,0,0,-1,0,339.80888)" d="M369.93254 66.49687H373.17906 369.93254Z" fill="#3cb371" fill-opacity=".5"/>
</g>
<g clip-path="url(#clip_87)">
<path transform="matrix(1,0,0,-1,0,339.80888)" d="M373.17906 66.49687H376.4256 373.17906Z" fill="#3cb371" fill-opacity=".5"/>
</g>
<g clip-path="url(#clip_88)">
<path transform="matrix(1,0,0,-1,0,339.80888)" d="M376.4256 66.49687H379.67216 376.4256Z" fill="#3cb371" fill-opacity=".5"/>
</g>
<g clip-path="url(#clip_89)">
<path transform="matrix(1,0,0,-1,0,339.80888)" d="M379.67216 66.49687H382.91868 379.67216Z" fill="#3cb371" fill-opacity=".5"/>
</g>
<g clip-path="url(#clip_90)">
<path transform="matrix(1,0,0,-1,0,339.80888)" d="M382.91868 66.49687H386.16526 382.91868Z" fill="#3cb371" fill-opacity=".5"/>
</g>
<g clip-path="url(#clip_91)">
<path transform="matrix(1,0,0,-1,0,339.80888)" d="M386.16526 66.49687H389.4118 386.16526Z" fill="#3cb371" fill-opacity=".5"/>
</g>
<g clip-path="url(#clip_92)">
<path transform="matrix(1,0,0,-1,0,339.80888)" d="M389.4118 66.49687H392.65834 389.4118Z" fill="#3cb371" fill-opacity=".5"/>
</g>
<g clip-path="url(#clip_93)">
<path transform="matrix(1,0,0,-1,0,339.80888)" d="M392.65834 66.49687H395.90489 392.65834Z" fill="#3cb371" fill-opacity=".5"/>
</g>
<g clip-path="url(#clip_94)">
<path transform="matrix(1,0,0,-1,0,339.80888)" d="M395.90489 66.49687H399.15144 395.90489Z" fill="#3cb371" fill-opacity=".5"/>
</g>
<g clip-path="url(#clip_95)">
<path transform="matrix(1,0,0,-1,0,339.80888)" d="M399.15144 66.49687H402.39796 399.15144Z" fill="#3cb371" fill-opacity=".5"/>
</g>
<g clip-path="url(#clip_96)">
<path transform="matrix(1,0,0,-1,0,339.80888)" d="M402.39796 66.49687H405.64454 402.39796Z" fill="#3cb371" fill-opacity=".5"/>
</g>
<g clip-path="url(#clip_97)">
<path transform="matrix(1,0,0,-1,0,339.80888)" d="M405.64454 66.49687H408.89106 405.64454Z" fill="#3cb371" fill-opacity=".5"/>
</g>
<g clip-path="url(#clip_98)">
<path transform="matrix(1,0,0,-1,0,339.80888)" d="M408.89106 66.49687H412.1376 408.89106Z" fill="#3cb371" fill-opacity=".5"/>
</g>
<g clip-path="url(#clip_99)">
<path transform="matrix(1,0,0,-1,0,339.80888)" d="M412.1376 66.49687H415.38417 412.1376Z" fill="#3cb371" fill-opacity=".5"/>
</g>
<g clip-path="url(#clip_100)">
<path transform="matrix(1,0,0,-1,0,339.80888)" d="M90.7296 66.49687H93.97615 90.7296Z" fill="#fa8072" fill-opacity=".5"/>
</g>
<g clip-path="url(#clip_101)">
<path transform="matrix(1,0,0,-1,0,339.80888)" d="M93.97615 66.49687H97.222698 93.97615Z" fill="#fa8072" fill-opacity=".5"/>
</g>
<g clip-path="url(#clip_102)">
<path transform="matrix(1,0,0,-1,0,339.80888)" d="M97.222698 66.49687H100.46924 97.222698Z" fill="#fa8072" fill-opacity=".5"/>
</g>
<g clip-path="url(#clip_103)">
<path transform="matrix(1,0,0,-1,0,339.80888)" d="M100.46924 66.49687H103.71578 100.46924Z" fill="#fa8072" fill-opacity=".5"/>
</g>
<g clip-path="url(#clip_104)">
<path transform="matrix(1,0,0,-1,0,339.80888)" d="M103.71578 66.49687H106.96233 103.71578Z" fill="#fa8072" fill-opacity=".5"/>
</g>
<g clip-path="url(#clip_105)">
<path transform="matrix(1,0,0,-1,0,339.80888)" d="M106.96233 66.49687H110.20888 106.96233Z" fill="#fa8072" fill-opacity=".5"/>
</g>
<g clip-path="url(#clip_106)">
<path transform="matrix(1,0,0,-1,0,339.80888)" d="M110.20888 66.49687H113.45542 110.20888Z" fill="#fa8072" fill-opacity=".5"/>
</g>
<g clip-path="url(#clip_107)">
<path transform="matrix(1,0,0,-1,0,339.80888)" d="M113.45542 66.49687H116.701969 113.45542Z" fill="#fa8072" fill-opacity=".5"/>
</g>
<g clip-path="url(#clip_108)">
<path transform="matrix(1,0,0,-1,0,339.80888)" d="M116.701969 66.49687H119.94851 116.701969Z" fill="#fa8072" fill-opacity=".5"/>
</g>
<g clip-path="url(#clip_109)">
<path transform="matrix(1,0,0,-1,0,339.80888)" d="M119.94851 66.49687H123.19506 119.94851Z" fill="#fa8072" fill-opacity=".5"/>
</g>
<g clip-path="url(#clip_110)">
<path transform="matrix(1,0,0,-1,0,339.80888)" d="M123.19506 66.49687H126.441608 123.19506Z" fill="#fa8072" fill-opacity=".5"/>
</g>
<g clip-path="url(#clip_111)">
<path transform="matrix(1,0,0,-1,0,339.80888)" d="M126.441608 66.49687H129.68814 126.441608Z" fill="#fa8072" fill-opacity=".5"/>
</g>
<g clip-path="url(#clip_112)">
<path transform="matrix(1,0,0,-1,0,339.80888)" d="M129.68814 66.49687H132.9347 129.68814Z" fill="#fa8072" fill-opacity=".5"/>
</g>
<g clip-path="url(#clip_113)">
<path transform="matrix(1,0,0,-1,0,339.80888)" d="M132.9347 66.49687H136.18125 132.9347Z" fill="#fa8072" fill-opacity=".5"/>
</g>
<g clip-path="url(#clip_114)">
<path transform="matrix(1,0,0,-1,0,339.80888)" d="M136.18125 66.49687H139.42778 136.18125Z" fill="#fa8072" fill-opacity=".5"/>
</g>
<g clip-path="url(#clip_115)">
<path transform="matrix(1,0,0,-1,0,339.80888)" d="M139.42778 66.49687H142.67433 139.42778Z" fill="#fa8072" fill-opacity=".5"/>
</g>
<g clip-path="url(#clip_116)">
<path transform="matrix(1,0,0,-1,0,339.80888)" d="M142.67433 66.49687H145.92089 142.67433Z" fill="#fa8072" fill-opacity=".5"/>
</g>
<g clip-path="url(#clip_117)">
<path transform="matrix(1,0,0,-1,0,339.80888)" d="M145.92089 66.49687H149.16742 145.92089Z" fill="#fa8072" fill-opacity=".5"/>
</g>
<g clip-path="url(#clip_118)">
<path transform="matrix(1,0,0,-1,0,339.80888)" d="M149.16742 66.49687H152.41397 149.16742Z" fill="#fa8072" fill-opacity=".5"/>
</g>
<g clip-path="url(#clip_119)">
<path transform="matrix(1,0,0,-1,0,339.80888)" d="M152.41397 66.49687H155.6605 152.41397Z" fill="#fa8072" fill-opacity=".5"/>
</g>
<g clip-path="url(#clip_120)">
<path transform="matrix(1,0,0,-1,0,339.80888)" d="M155.6605 66.49687H158.90706 155.6605Z" fill="#fa8072" fill-opacity=".5"/>
</g>
<g clip-path="url(#clip_121)">
<path transform="matrix(1,0,0,-1,0,339.80888)" d="M158.90706 66.49687H162.1536 158.90706Z" fill="#fa8072" fill-opacity=".5"/>
</g>
<g clip-path="url(#clip_122)">
<path transform="matrix(1,0,0,-1,0,339.80888)" d="M162.1536 66.49687H165.40015 162.1536Z" fill="#fa8072" fill-opacity=".5"/>
</g>
<g clip-path="url(#clip_123)">
<path transform="matrix(1,0,0,-1,0,339.80888)" d="M165.40015 66.49687H168.6467V66.71294H165.40015Z" fill="#fa8072" fill-opacity=".5"/>
</g>
<g clip-path="url(#clip_124)">
<path transform="matrix(1,0,0,-1,0,339.80888)" d="M168.6467 66.49687H171.89324V66.71294H168.6467Z" fill="#fa8072" fill-opacity=".5"/>
</g>
<g clip-path="url(#clip_125)">
<path transform="matrix(1,0,0,-1,0,339.80888)" d="M171.89324 66.49687H175.13979V67.14506H171.89324Z" fill="#fa8072" fill-opacity=".5"/>
</g>
<g clip-path="url(#clip_126)">
<path transform="matrix(1,0,0,-1,0,339.80888)" d="M175.13979 66.49687H178.38634V67.14506H175.13979Z" fill="#fa8072" fill-opacity=".5"/>
</g>
<g clip-path="url(#clip_127)">
<path transform="matrix(1,0,0,-1,0,339.80888)" d="M178.38634 66.49687H181.63288V67.79324H178.38634Z" fill="#fa8072" fill-opacity=".5"/>
</g>
<g clip-path="url(#clip_128)">
<path transform="matrix(1,0,0,-1,0,339.80888)" d="M181.63288 66.49687H184.87943V67.57719H181.63288Z" fill="#fa8072" fill-opacity=".5"/>
</g>
<g clip-path="url(#clip_129)">
<path transform="matrix(1,0,0,-1,0,339.80888)" d="M184.87943 66.49687H188.12598V67.14506H184.87943Z" fill="#fa8072" fill-opacity=".5"/>
</g>
<g clip-path="url(#clip_130)">
<path transform="matrix(1,0,0,-1,0,339.80888)" d="M188.12598 66.49687H191.37252V68.44144H188.12598Z" fill="#fa8072" fill-opacity=".5"/>
</g>
<g clip-path="url(#clip_131)">
<path transform="matrix(1,0,0,-1,0,339.80888)" d="M191.37252 66.49687H194.61905V68.22537H191.37252Z" fill="#fa8072" fill-opacity=".5"/>
</g>
<g clip-path="url(#clip_132)">
<path transform="matrix(1,0,0,-1,0,339.80888)" d="M194.61905 66.49687H197.8656V68.87355H194.61905Z" fill="#fa8072" fill-opacity=".5"/>
</g>
<g clip-path="url(#clip_133)">
<path transform="matrix(1,0,0,-1,0,339.80888)" d="M197.8656 66.49687H201.11215V68.44144H197.8656Z" fill="#fa8072" fill-opacity=".5"/>
</g>
<g clip-path="url(#clip_134)">
<path transform="matrix(1,0,0,-1,0,339.80888)" d="M201.11215 66.49687H204.35869V68.87356H201.11215Z" fill="#fa8072" fill-opacity=".5"/>
</g>
<g clip-path="url(#clip_135)">
<path transform="matrix(1,0,0,-1,0,339.80888)" d="M204.35869 66.49687H207.60524V70.8181H204.35869Z" fill="#fa8072" fill-opacity=".5"/>
</g>
<g clip-path="url(#clip_136)">
<path transform="matrix(1,0,0,-1,0,339.80888)" d="M207.60524 66.49687H210.85179V71.682369H207.60524Z" fill="#fa8072" fill-opacity=".5"/>
</g>
<g clip-path="url(#clip_137)">
<path transform="matrix(1,0,0,-1,0,339.80888)" d="M210.85179 66.49687H214.09833V72.97874H210.85179Z" fill="#fa8072" fill-opacity=".5"/>
</g>
<g clip-path="url(#clip_138)">
<path transform="matrix(1,0,0,-1,0,339.80888)" d="M214.09833 66.49687H217.34487V77.29997H214.09833Z" fill="#fa8072" fill-opacity=".5"/>
</g>
<g clip-path="url(#clip_139)">
<path transform="matrix(1,0,0,-1,0,339.80888)" d="M217.34487 66.49687H220.59142V74.92327H217.34487Z" fill="#fa8072" fill-opacity=".5"/>
</g>
<g clip-path="url(#clip_140)">
<path transform="matrix(1,0,0,-1,0,339.80888)" d="M220.59142 66.49687H223.83797V80.54091H220.59142Z" fill="#fa8072" fill-opacity=".5"/>
</g>
<g clip-path="url(#clip_141)">
<path transform="matrix(1,0,0,-1,0,339.80888)" d="M223.83797 66.49687H227.0845V84.43002H223.83797Z" fill="#fa8072" fill-opacity=".5"/>
</g>
<g clip-path="url(#clip_142)">
<path transform="matrix(1,0,0,-1,0,339.80888)" d="M227.0845 66.49687H230.33106V82.70148H227.0845Z" fill="#fa8072" fill-opacity=".5"/>
</g>
<g clip-path="url(#clip_143)">
<path transform="matrix(1,0,0,-1,0,339.80888)" d="M230.33106 66.49687H233.5776V88.96732H230.33106Z" fill="#fa8072" fill-opacity=".5"/>
</g>
<g clip-path="url(#clip_144)">
<path transform="matrix(1,0,0,-1,0,339.80888)" d="M233.5776 66.49687H236.82415V92.42432H233.5776Z" fill="#fa8072" fill-opacity=".5"/>
</g>
<g clip-path="url(#clip_145)">
<path transform="matrix(1,0,0,-1,0,339.80888)" d="M236.82415 66.49687H240.0707V101.49882H236.82415Z" fill="#fa8072" fill-opacity=".5"/>
</g>
<g clip-path="url(#clip_146)">
<path transform="matrix(1,0,0,-1,0,339.80888)" d="M240.0707 66.49687H243.31725V97.393749H240.0707Z" fill="#fa8072" fill-opacity=".5"/>
</g>
<g clip-path="url(#clip_147)">
<path transform="matrix(1,0,0,-1,0,339.80888)" d="M243.31725 66.49687H246.56378V104.30773H243.31725Z" fill="#fa8072" fill-opacity=".5"/>
</g>
<g clip-path="url(#clip_148)">
<path transform="matrix(1,0,0,-1,0,339.80888)" d="M246.56378 66.49687H249.81034V107.7646H246.56378Z" fill="#fa8072" fill-opacity=".5"/>
</g>
<g clip-path="url(#clip_149)">
<path transform="matrix(1,0,0,-1,0,339.80888)" d="M249.81034 66.49687H253.05687V113.166278H249.81034Z" fill="#fa8072" fill-opacity=".5"/>
</g>
<g clip-path="url(#clip_150)">
<path transform="matrix(1,0,0,-1,0,339.80888)" d="M253.05687 66.49687H256.3034V117.48751H253.05687Z" fill="#fa8072" fill-opacity=".5"/>
</g>
<g clip-path="url(#clip_151)">
<path transform="matrix(1,0,0,-1,0,339.80888)" d="M256.3034 66.49687H259.54997V131.31548H256.3034Z" fill="#fa8072" fill-opacity=".5"/>
</g>
<g clip-path="url(#clip_152)">
<path transform="matrix(1,0,0,-1,0,339.80888)" d="M259.54997 66.49687H262.7965V123.53725H259.54997Z" fill="#fa8072" fill-opacity=".5"/>
</g>
<g clip-path="url(#clip_153)">
<path transform="matrix(1,0,0,-1,0,339.80888)" d="M262.7965 66.49687H266.04307V136.2845H262.7965Z" fill="#fa8072" fill-opacity=".5"/>
</g>
<g clip-path="url(#clip_154)">
<path transform="matrix(1,0,0,-1,0,339.80888)" d="M266.04307 66.49687H269.2896V139.52584H266.04307Z" fill="#fa8072" fill-opacity=".5"/>
</g>
<g clip-path="url(#clip_155)">
<path transform="matrix(1,0,0,-1,0,339.80888)" d="M269.2896 66.49687H272.53617V144.71134H269.2896Z" fill="#fa8072" fill-opacity=".5"/>
</g>
<g clip-path="url(#clip_156)">
<path transform="matrix(1,0,0,-1,0,339.80888)" d="M272.53617 66.49687H275.78269V159.18749H272.53617Z" fill="#fa8072" fill-opacity=".5"/>
</g>
<g clip-path="url(#clip_157)">
<path transform="matrix(1,0,0,-1,0,339.80888)" d="M275.78269 66.49687H279.02925V166.10147H275.78269Z" fill="#fa8072" fill-opacity=".5"/>
</g>
<g clip-path="url(#clip_158)">
<path transform="matrix(1,0,0,-1,0,339.80888)" d="M279.02925 66.49687H282.2758V174.74396H279.02925Z" fill="#fa8072" fill-opacity=".5"/>
</g>
<g clip-path="url(#clip_159)">
<path transform="matrix(1,0,0,-1,0,339.80888)" d="M282.2758 66.49687H285.52235V175.39148H282.2758Z" fill="#fa8072" fill-opacity=".5"/>
</g>
<g clip-path="url(#clip_160)">
<path transform="matrix(1,0,0,-1,0,339.80888)" d="M285.52235 66.49687H288.7689V194.62166H285.52235Z" fill="#fa8072" fill-opacity=".5"/>
</g>
<g clip-path="url(#clip_161)">
<path transform="matrix(1,0,0,-1,0,339.80888)" d="M288.7689 66.49687H292.0154V206.07294H288.7689Z" fill="#fa8072" fill-opacity=".5"/>
</g>
<g clip-path="url(#clip_162)">
<path transform="matrix(1,0,0,-1,0,339.80888)" d="M292.0154 66.49687H295.26197V215.79573H292.0154Z" fill="#fa8072" fill-opacity=".5"/>
</g>
<g clip-path="url(#clip_163)">
<path transform="matrix(1,0,0,-1,0,339.80888)" d="M295.26197 66.49687H298.5085V228.97553H295.26197Z" fill="#fa8072" fill-opacity=".5"/>
</g>
<g clip-path="url(#clip_164)">
<path transform="matrix(1,0,0,-1,0,339.80888)" d="M298.5085 66.49687H301.75505V244.09986H298.5085Z" fill="#fa8072" fill-opacity=".5"/>
</g>
<g clip-path="url(#clip_165)">
<path transform="matrix(1,0,0,-1,0,339.80888)" d="M301.75505 66.49687H305.00163V260.95155H301.75505Z" fill="#fa8072" fill-opacity=".5"/>
</g>
<g clip-path="url(#clip_166)">
<path transform="matrix(1,0,0,-1,0,339.80888)" d="M305.00163 66.49687H308.24815V275.86097H305.00163Z" fill="#fa8072" fill-opacity=".5"/>
</g>
<g clip-path="url(#clip_167)">
<path transform="matrix(1,0,0,-1,0,339.80888)" d="M308.24815 66.49687H311.4947V276.2931H308.24815Z" fill="#fa8072" fill-opacity=".5"/>
</g>
<g clip-path="url(#clip_168)">
<path transform="matrix(1,0,0,-1,0,339.80888)" d="M311.4947 66.49687H314.74125V278.66978H311.4947Z" fill="#fa8072" fill-opacity=".5"/>
</g>
<g clip-path="url(#clip_169)">
<path transform="matrix(1,0,0,-1,0,339.80888)" d="M314.74125 66.49687H317.9878V272.62007H314.74125Z" fill="#fa8072" fill-opacity=".5"/>
</g>
<g clip-path="url(#clip_170)">
<path transform="matrix(1,0,0,-1,0,339.80888)" d="M317.9878 66.49687H321.2343V285.3677H317.9878Z" fill="#fa8072" fill-opacity=".5"/>
</g>
<g clip-path="url(#clip_171)">
<path transform="matrix(1,0,0,-1,0,339.80888)" d="M321.2343 66.49687H324.4809V266.56913H321.2343Z" fill="#fa8072" fill-opacity=".5"/>
</g>
<g clip-path="url(#clip_172)">
<path transform="matrix(1,0,0,-1,0,339.80888)" d="M324.4809 66.49687H327.72743V250.79778H324.4809Z" fill="#fa8072" fill-opacity=".5"/>
</g>
<g clip-path="url(#clip_173)">
<path transform="matrix(1,0,0,-1,0,339.80888)" d="M327.72743 66.49687H330.97398V241.075H327.72743Z" fill="#fa8072" fill-opacity=".5"/>
</g>
<g clip-path="url(#clip_174)">
<path transform="matrix(1,0,0,-1,0,339.80888)" d="M330.97398 66.49687H334.22053V240.85894H330.97398Z" fill="#fa8072" fill-opacity=".5"/>
</g>
<g clip-path="url(#clip_175)">
<path transform="matrix(1,0,0,-1,0,339.80888)" d="M334.22053 66.49687H337.46705V218.38848H334.22053Z" fill="#fa8072" fill-opacity=".5"/>
</g>
<g clip-path="url(#clip_176)">
<path transform="matrix(1,0,0,-1,0,339.80888)" d="M337.46705 66.49687H340.7136V204.99263H337.46705Z" fill="#fa8072" fill-opacity=".5"/>
</g>
<g clip-path="url(#clip_177)">
<path transform="matrix(1,0,0,-1,0,339.80888)" d="M340.7136 66.49687H343.96015V196.56621H340.7136Z" fill="#fa8072" fill-opacity=".5"/>
</g>
<g clip-path="url(#clip_178)">
<path transform="matrix(1,0,0,-1,0,339.80888)" d="M343.96015 66.49687H347.2067V165.23664H343.96015Z" fill="#fa8072" fill-opacity=".5"/>
</g>
<g clip-path="url(#clip_179)">
<path transform="matrix(1,0,0,-1,0,339.80888)" d="M347.2067 66.49687H350.45326V161.99629H347.2067Z" fill="#fa8072" fill-opacity=".5"/>
</g>
<g clip-path="url(#clip_180)">
<path transform="matrix(1,0,0,-1,0,339.80888)" d="M350.45326 66.49687H353.6998V141.90253H350.45326Z" fill="#fa8072" fill-opacity=".5"/>
</g>
<g clip-path="url(#clip_181)">
<path transform="matrix(1,0,0,-1,0,339.80888)" d="M353.6998 66.49687H356.94633V122.673007H353.6998Z" fill="#fa8072" fill-opacity=".5"/>
</g>
<g clip-path="url(#clip_182)">
<path transform="matrix(1,0,0,-1,0,339.80888)" d="M356.94633 66.49687H360.19288V113.166278H356.94633Z" fill="#fa8072" fill-opacity=".5"/>
</g>
<g clip-path="url(#clip_183)">
<path transform="matrix(1,0,0,-1,0,339.80888)" d="M360.19288 66.49687H363.43943V96.961627H360.19288Z" fill="#fa8072" fill-opacity=".5"/>
</g>
<g clip-path="url(#clip_184)">
<path transform="matrix(1,0,0,-1,0,339.80888)" d="M363.43943 66.49687H366.68598V86.59052H363.43943Z" fill="#fa8072" fill-opacity=".5"/>
</g>
<g clip-path="url(#clip_185)">
<path transform="matrix(1,0,0,-1,0,339.80888)" d="M366.68598 66.49687H369.93254V82.2694H366.68598Z" fill="#fa8072" fill-opacity=".5"/>
</g>
<g clip-path="url(#clip_186)">
<path transform="matrix(1,0,0,-1,0,339.80888)" d="M369.93254 66.49687H373.17906V77.94816H369.93254Z" fill="#fa8072" fill-opacity=".5"/>
</g>
<g clip-path="url(#clip_187)">
<path transform="matrix(1,0,0,-1,0,339.80888)" d="M373.17906 66.49687H376.4256V73.41086H373.17906Z" fill="#fa8072" fill-opacity=".5"/>
</g>
<g clip-path="url(#clip_188)">
<path transform="matrix(1,0,0,-1,0,339.80888)" d="M376.4256 66.49687H379.67216V68.65749H376.4256Z" fill="#fa8072" fill-opacity=".5"/>
</g>
<g clip-path="url(#clip_189)">
<path transform="matrix(1,0,0,-1,0,339.80888)" d="M379.67216 66.49687H382.91868V67.36112H379.67216Z" fill="#fa8072" fill-opacity=".5"/>
</g>
<g clip-path="url(#clip_190)">
<path transform="matrix(1,0,0,-1,0,339.80888)" d="M382.91868 66.49687H386.16526V66.92899H382.91868Z" fill="#fa8072" fill-opacity=".5"/>
</g>
<g clip-path="url(#clip_191)">
<path transform="matrix(1,0,0,-1,0,339.80888)" d="M386.16526 66.49687H389.4118 386.16526Z" fill="#fa8072" fill-opacity=".5"/>
</g>
<g clip-path="url(#clip_192)">
<path transform="matrix(1,0,0,-1,0,339.80888)" d="M389.4118 66.49687H392.65834 389.4118Z" fill="#fa8072" fill-opacity=".5"/>
</g>
<g clip-path="url(#clip_193)">
<path transform="matrix(1,0,0,-1,0,339.80888)" d="M392.65834 66.49687H395.90489 392.65834Z" fill="#fa8072" fill-opacity=".5"/>
</g>
<g clip-path="url(#clip_194)">
<path transform="matrix(1,0,0,-1,0,339.80888)" d="M395.90489 66.49687H399.15144 395.90489Z" fill="#fa8072" fill-opacity=".5"/>
</g>
<g clip-path="url(#clip_195)">
<path transform="matrix(1,0,0,-1,0,339.80888)" d="M399.15144 66.49687H402.39796 399.15144Z" fill="#fa8072" fill-opacity=".5"/>
</g>
<g clip-path="url(#clip_196)">
<path transform="matrix(1,0,0,-1,0,339.80888)" d="M402.39796 66.49687H405.64454 402.39796Z" fill="#fa8072" fill-opacity=".5"/>
</g>
<g clip-path="url(#clip_197)">
<path transform="matrix(1,0,0,-1,0,339.80888)" d="M405.64454 66.49687H408.89106 405.64454Z" fill="#fa8072" fill-opacity=".5"/>
</g>
<g clip-path="url(#clip_198)">
<path transform="matrix(1,0,0,-1,0,339.80888)" d="M408.89106 66.49687H412.1376 408.89106Z" fill="#fa8072" fill-opacity=".5"/>
</g>
<g clip-path="url(#clip_199)">
<path transform="matrix(1,0,0,-1,0,339.80888)" d="M412.1376 66.49687H415.38417 412.1376Z" fill="#fa8072" fill-opacity=".5"/>
</g>
<path transform="matrix(1,0,0,-1,0,339.80888)" d="M90.7296 66.49687V62.996877"/>
<path transform="matrix(1,0,0,-1,0,339.80888)" stroke-width=".8" stroke-linecap="butt" stroke-linejoin="round" fill="none" stroke="#000000" d="M90.7296 66.49687V62.996877"/>
<use data-text="0" xlink:href="#font_200_48" transform="matrix(22,0,0,-22,73.2296,297.03074)"/>
<use data-text="." xlink:href="#font_200_46" transform="matrix(22,0,0,-22,87.2216,297.03074)"/>
<use data-text="0" xlink:href="#font_200_48" transform="matrix(22,0,0,-22,94.2176,297.03074)"/>
<path transform="matrix(1,0,0,-1,0,339.80888)" d="M171.89324 66.49687V62.996877"/>
<path transform="matrix(1,0,0,-1,0,339.80888)" stroke-width=".8" stroke-linecap="butt" stroke-linejoin="round" fill="none" stroke="#000000" d="M171.89324 66.49687V62.996877"/>
<use data-text="0" xlink:href="#font_200_48" transform="matrix(22,0,0,-22,154.39324,297.03074)"/>
<use data-text="." xlink:href="#font_200_46" transform="matrix(22,0,0,-22,168.38524,297.03074)"/>
<use data-text="5" xlink:href="#font_200_53" transform="matrix(22,0,0,-22,175.38124,297.03074)"/>
<path transform="matrix(1,0,0,-1,0,339.80888)" d="M253.05687 66.49687V62.996877"/>
<path transform="matrix(1,0,0,-1,0,339.80888)" stroke-width=".8" stroke-linecap="butt" stroke-linejoin="round" fill="none" stroke="#000000" d="M253.05687 66.49687V62.996877"/>
<use data-text="1" xlink:href="#font_200_49" transform="matrix(22,0,0,-22,235.55687,297.03074)"/>
<use data-text="." xlink:href="#font_200_46" transform="matrix(22,0,0,-22,249.54888,297.03074)"/>
<use data-text="0" xlink:href="#font_200_48" transform="matrix(22,0,0,-22,256.54487,297.03074)"/>
<path transform="matrix(1,0,0,-1,0,339.80888)" d="M334.22053 66.49687V62.996877"/>
<path transform="matrix(1,0,0,-1,0,339.80888)" stroke-width=".8" stroke-linecap="butt" stroke-linejoin="round" fill="none" stroke="#000000" d="M334.22053 66.49687V62.996877"/>
<use data-text="1" xlink:href="#font_200_49" transform="matrix(22,0,0,-22,316.72053,297.03074)"/>
<use data-text="." xlink:href="#font_200_46" transform="matrix(22,0,0,-22,330.71253,297.03074)"/>
<use data-text="5" xlink:href="#font_200_53" transform="matrix(22,0,0,-22,337.70854,297.03074)"/>
<path transform="matrix(1,0,0,-1,0,339.80888)" d="M415.38417 66.49687V62.996877"/>
<path transform="matrix(1,0,0,-1,0,339.80888)" stroke-width=".8" stroke-linecap="butt" stroke-linejoin="round" fill="none" stroke="#000000" d="M415.38417 66.49687V62.996877"/>
<use data-text="2" xlink:href="#font_200_50" transform="matrix(22,0,0,-22,397.88417,297.03074)"/>
<use data-text="." xlink:href="#font_200_46" transform="matrix(22,0,0,-22,411.87617,297.03074)"/>
<use data-text="0" xlink:href="#font_200_48" transform="matrix(22,0,0,-22,418.87217,297.03074)"/>
<use data-text="|" xlink:href="#font_200_124" transform="matrix(22,0,0,-22,197.55687,325.71199)"/>
<use data-text="x" xlink:href="#font_201_120" transform="matrix(22,0,0,-22,204.96898,325.71199)"/>
<use data-text="(" xlink:href="#font_200_40" transform="matrix(15.4,0,0,-15.4,218.94515,317.2901)"/>
<use data-text="g" xlink:href="#font_201_103" transform="matrix(15.4,0,0,-15.4,224.95325,317.2901)"/>
<use data-text=")" xlink:href="#font_200_41" transform="matrix(15.4,0,0,-15.4,234.72864,317.2901)"/>
<use data-text="x" xlink:href="#font_201_120" transform="matrix(22,0,0,-22,268.34419,325.71199)"/>
<use data-text="(" xlink:href="#font_200_40" transform="matrix(15.4,0,0,-15.4,282.32035,317.2901)"/>
<use data-text="t" xlink:href="#font_201_116" transform="matrix(15.4,0,0,-15.4,288.32847,317.2901)"/>
<use data-text=")" xlink:href="#font_200_41" transform="matrix(15.4,0,0,-15.4,294.36665,317.2901)"/>
<use data-text="|" xlink:href="#font_200_124" transform="matrix(22,0,0,-22,300.97633,325.71199)"/>
<g clip-path="url(#clip_202)">
<path transform="matrix(.022,0,0,-.022,219.45726,324.99324)" d="M-252 669-280 696C-287 702-293 707-299 710-304 713-309 715-313 715-325 715-334 709-340 697-346 685-349 665-350 639H-411C-410 683-401 717-385 741-368 765-345 777-316 777-303 777-291 774-281 770-271 765-260 757-248 747L-220 720C-212 713-206 708-201 705-195 702-191 701-187 701-174 701-165 707-159 719-153 731-150 750-150 777H-89C-89 733-98 699-115 675-131 651-154 639-184 639-196 639-208 641-218 646-228 650-240 658-252 669Z"/>
</g>
<g clip-path="url(#clip_203)">
<path transform="matrix(.022,0,0,-.022,245.62445,325.71199)" d="M106 355H732V272H106V355Z"/>
</g>
<g clip-path="url(#clip_204)">
<path transform="matrix(.022,0,0,-.022,282.83247,324.99324)" d="M-252 669-280 696C-287 702-293 707-299 710-304 713-309 715-313 715-325 715-334 709-340 697-346 685-349 665-350 639H-411C-410 683-401 717-385 741-368 765-345 777-316 777-303 777-291 774-281 770-271 765-260 757-248 747L-220 720C-212 713-206 708-201 705-195 702-191 701-187 701-174 701-165 707-159 719-153 731-150 750-150 777H-89C-89 733-98 699-115 675-131 651-154 639-184 639-196 639-208 641-218 646-228 650-240 658-252 669Z"/>
</g>
<path transform="matrix(1,0,0,-1,0,339.80888)" d="M74.49687 66.49687H70.99687"/>
<path transform="matrix(1,0,0,-1,0,339.80888)" stroke-width=".8" stroke-linecap="butt" stroke-linejoin="round" fill="none" stroke="#000000" d="M74.49687 66.49687H70.99687"/>
<use data-text="0" xlink:href="#font_200_48" transform="matrix(22,0,0,-22,32.496877,281.67137)"/>
<use data-text="." xlink:href="#font_200_46" transform="matrix(22,0,0,-22,46.488878,281.67137)"/>
<use data-text="0" xlink:href="#font_200_48" transform="matrix(22,0,0,-22,53.48488,281.67137)"/>
<path transform="matrix(1,0,0,-1,0,339.80888)" d="M74.49687 114.138507H70.99687"/>
<path transform="matrix(1,0,0,-1,0,339.80888)" stroke-width=".8" stroke-linecap="butt" stroke-linejoin="round" fill="none" stroke="#000000" d="M74.49687 114.138507H70.99687"/>
<use data-text="0" xlink:href="#font_200_48" transform="matrix(22,0,0,-22,32.496877,234.02974)"/>
<use data-text="." xlink:href="#font_200_46" transform="matrix(22,0,0,-22,46.488878,234.02974)"/>
<use data-text="5" xlink:href="#font_200_53" transform="matrix(22,0,0,-22,53.48488,234.02974)"/>
<path transform="matrix(1,0,0,-1,0,339.80888)" d="M74.49687 161.78014H70.99687"/>
<path transform="matrix(1,0,0,-1,0,339.80888)" stroke-width=".8" stroke-linecap="butt" stroke-linejoin="round" fill="none" stroke="#000000" d="M74.49687 161.78014H70.99687"/>
<use data-text="1" xlink:href="#font_200_49" transform="matrix(22,0,0,-22,32.496877,186.3881)"/>
<use data-text="." xlink:href="#font_200_46" transform="matrix(22,0,0,-22,46.488878,186.3881)"/>
<use data-text="0" xlink:href="#font_200_48" transform="matrix(22,0,0,-22,53.48488,186.3881)"/>
<path transform="matrix(1,0,0,-1,0,339.80888)" d="M74.49687 209.42177H70.99687"/>
<path transform="matrix(1,0,0,-1,0,339.80888)" stroke-width=".8" stroke-linecap="butt" stroke-linejoin="round" fill="none" stroke="#000000" d="M74.49687 209.42177H70.99687"/>
<use data-text="1" xlink:href="#font_200_49" transform="matrix(22,0,0,-22,32.496877,138.74648)"/>
<use data-text="." xlink:href="#font_200_46" transform="matrix(22,0,0,-22,46.488878,138.74648)"/>
<use data-text="5" xlink:href="#font_200_53" transform="matrix(22,0,0,-22,53.48488,138.74648)"/>
<path transform="matrix(1,0,0,-1,0,339.80888)" d="M74.49687 257.0634H70.99687"/>
<path transform="matrix(1,0,0,-1,0,339.80888)" stroke-width=".8" stroke-linecap="butt" stroke-linejoin="round" fill="none" stroke="#000000" d="M74.49687 257.0634H70.99687"/>
<use data-text="2" xlink:href="#font_200_50" transform="matrix(22,0,0,-22,32.496877,91.10484)"/>
<use data-text="." xlink:href="#font_200_46" transform="matrix(22,0,0,-22,46.488878,91.10484)"/>
<use data-text="0" xlink:href="#font_200_48" transform="matrix(22,0,0,-22,53.48488,91.10484)"/>
<path transform="matrix(1,0,0,-1,0,339.80888)" d="M74.49687 304.70503H70.99687"/>
<path transform="matrix(1,0,0,-1,0,339.80888)" stroke-width=".8" stroke-linecap="butt" stroke-linejoin="round" fill="none" stroke="#000000" d="M74.49687 304.70503H70.99687"/>
<use data-text="2" xlink:href="#font_200_50" transform="matrix(22,0,0,-22,32.496877,43.463228)"/>
<use data-text="." xlink:href="#font_200_46" transform="matrix(22,0,0,-22,46.488878,43.463228)"/>
<use data-text="5" xlink:href="#font_200_53" transform="matrix(22,0,0,-22,53.48488,43.463228)"/>
<use data-text="P" xlink:href="#font_201_80" transform="matrix(0,-22,-22,-0,22.95,147.256)"/>
<g clip-path="url(#clip_205)">
<path transform="matrix(1,0,0,-1,0,339.80888)" stroke-width="1.5" stroke-linecap="butt" stroke-dasharray="5.55,2.4" stroke-linejoin="round" fill="none" stroke="#3cb371" stroke-opacity=".5" d="M211.73516 66.49687V332.6089"/>
</g>
<g clip-path="url(#clip_206)">
<path transform="matrix(1,0,0,-1,0,339.80888)" stroke-width="1.5" stroke-linecap="butt" stroke-dasharray="5.55,2.4" stroke-linejoin="round" fill="none" stroke="#fa8072" stroke-opacity=".5" d="M305.60578 66.49687V332.6089"/>
</g>
<path transform="matrix(1,0,0,-1,0,339.80888)" stroke-width=".8" stroke-linecap="square" stroke-miterlimit="10" stroke-linejoin="miter" fill="none" stroke="#000000" d="M74.49687 66.49687V332.6089"/>
<path transform="matrix(1,0,0,-1,0,339.80888)" stroke-width=".8" stroke-linecap="square" stroke-miterlimit="10" stroke-linejoin="miter" fill="none" stroke="#000000" d="M431.61689 66.49687V332.6089"/>
<path transform="matrix(1,0,0,-1,0,339.80888)" stroke-width=".8" stroke-linecap="square" stroke-miterlimit="10" stroke-linejoin="miter" fill="none" stroke="#000000" d="M74.49687 66.49687H431.61689"/>
<path transform="matrix(1,0,0,-1,0,339.80888)" stroke-width=".8" stroke-linecap="square" stroke-miterlimit="10" stroke-linejoin="miter" fill="none" stroke="#000000" d="M74.49687 332.6089H431.61689"/>
</svg>
