<svg xmlns="http://www.w3.org/2000/svg" xmlns:xlink="http://www.w3.org/1999/xlink" version="1.1" width="419.08415" height="339.80888" viewBox="0 0 419.08415 339.80888">
<defs>
<clipPath id="clip_0">
<path transform="matrix(1,0,0,-1,0,339.80888)" d="M53.496877 66.49687H410.61689V332.6089H53.496877Z"/>
</clipPath>
<clipPath id="clip_1">
<path transform="matrix(1,0,0,-1,0,339.80888)" d="M53.496877 66.49687H410.61689V332.6089H53.496877Z"/>
</clipPath>
<clipPath id="clip_2">
<path transform="matrix(1,0,0,-1,0,339.80888)" d="M53.496877 66.49687H410.61689V332.6089H53.496877Z"/>
</clipPath>
<clipPath id="clip_3">
<path transform="matrix(1,0,0,-1,0,339.80888)" d="M53.496877 66.49687H410.61689V332.6089H53.496877Z"/>
</clipPath>
<clipPath id="clip_4">
<path transform="matrix(1,0,0,-1,0,339.80888)" d="M53.496877 66.49687H410.61689V332.6089H53.496877Z"/>
</clipPath>
<clipPath id="clip_5">
<path transform="matrix(1,0,0,-1,0,339.80888)" d="M53.496877 66.49687H410.61689V332.6089H53.496877Z"/>
</clipPath>
<clipPath id="clip_6">
<path transform="matrix(1,0,0,-1,0,339.80888)" d="M53.496877 66.49687H410.61689V332.6089H53.496877Z"/>
</clipPath>
<clipPath id="clip_7">
<path transform="matrix(1,0,0,-1,0,339.80888)" d="M53.496877 66.49687H410.61689V332.6089H53.496877Z"/>
</clipPath>
<clipPath id="clip_8">
<path transform="matrix(1,0,0,-1,0,339.80888)" d="M53.496877 66.49687H410.61689V332.6089H53.496877Z"/>
</clipPath>
<clipPath id="clip_9">
<path transform="matrix(1,0,0,-1,0,339.80888)" d="M53.496877 66.49687H410.61689V332.6089H53.496877Z"/>
</clipPath>
<clipPath id="clip_10">
<path transform="matrix(1,0,0,-1,0,339.80888)" d="M53.496877 66.49687H410.61689V332.6089H53.496877Z"/>
</clipPath>
<clipPath id="clip_11">
<path transform="matrix(1,0,0,-1,0,339.80888)" d="M53.496877 66.49687H410.61689V332.6089H53.496877Z"/>
</clipPath>
<clipPath id="clip_12">
<path transform="matrix(1,0,0,-1,0,339.80888)" d="M53.496877 66.49687H410.61689V332.6089H53.496877Z"/>
</clipPath>
<clipPath id="clip_13">
<path transform="matrix(1,0,0,-1,0,339.80888)" d="M53.496877 66.49687H410.61689V332.6089H53.496877Z"/>
</clipPath>
<clipPath id="clip_14">
<path transform="matrix(1,0,0,-1,0,339.80888)" d="M53.496877 66.49687H410.61689V332.6089H53.496877Z"/>
</clipPath>
<clipPath id="clip_15">
<path transform="matrix(1,0,0,-1,0,339.80888)" d="M53.496877 66.49687H410.61689V332.6089H53.496877Z"/>
</clipPath>
<clipPath id="clip_16">
<path transform="matrix(1,0,0,-1,0,339.80888)" d="M53.496877 66.49687H410.61689V332.6089H53.496877Z"/>
</clipPath>
<clipPath id="clip_17">
<path transform="matrix(1,0,0,-1,0,339.80888)" d="M53.496877 66.49687H410.61689V332.6089H53.496877Z"/>
</clipPath>
<clipPath id="clip_18">
<path transform="matrix(1,0,0,-1,0,339.80888)" d="M53.496877 66.49687H410.61689V332.6089H53.496877Z"/>
</clipPath>
<clipPath id="clip_19">
<path transform="matrix(1,0,0,-1,0,339.80888)" d="M53.496877 66.49687H410.61689V332.6089H53.496877Z"/>
</clipPath>
<clipPath id="clip_20">
<path transform="matrix(1,0,0,-1,0,339.80888)" d="M53.496877 66.49687H410.61689V332.6089H53.496877Z"/>
</clipPath>
<clipPath id="clip_21">
<path transform="matrix(1,0,0,-1,0,339.80888)" d="M53.496877 66.49687H410.61689V332.6089H53.496877Z"/>
</clipPath>
<clipPath id="clip_22">
<path transform="matrix(1,0,0,-1,0,339.80888)" d="M53.496877 66.49687H410.61689V332.6089H53.496877Z"/>
</clipPath>
<clipPath id="clip_23">
<path transform="matrix(1,0,0,-1,0,339.80888)" d="M53.496877 66.49687H410.61689V332.6089H53.496877Z"/>
</clipPath>
<clipPath id="clip_24">
<path transform="matrix(1,0,0,-1,0,339.80888)" d="M53.496877 66.49687H410.61689V332.6089H53.496877Z"/>
</clipPath>
<clipPath id="clip_25">
<path transform="matrix(1,0,0,-1,0,339.80888)" d="M53.496877 66.49687H410.61689V332.6089H53.496877Z"/>
</clipPath>
<clipPath id="clip_26">
<path transform="matrix(1,0,0,-1,0,339.80888)" d="M53.496877 66.49687H410.61689V332.6089H53.496877Z"/>
</clipPath>
<clipPath id="clip_27">
<path transform="matrix(1,0,0,-1,0,339.80888)" d="M53.496877 66.49687H410.61689V332.6089H53.496877Z"/>
</clipPath>
<clipPath id="clip_28">
<path transform="matrix(1,0,0,-1,0,339.80888)" d="M53.496877 66.49687H410.61689V332.6089H53.496877Z"/>
</clipPath>
<clipPath id="clip_29">
<path transform="matrix(1,0,0,-1,0,339.80888)" d="M53.496877 66.49687H410.61689V332.6089H53.496877Z"/>
</clipPath>
<clipPath id="clip_30">
<path transform="matrix(1,0,0,-1,0,339.80888)" d="M53.496877 66.49687H410.61689V332.6089H53.496877Z"/>
</clipPath>
<clipPath id="clip_31">
<path transform="matrix(1,0,0,-1,0,339.80888)" d="M53.496877 66.49687H410.61689V332.6089H53.496877Z"/>
</clipPath>
<clipPath id="clip_32">
<path transform="matrix(1,0,0,-1,0,339.80888)" d="M53.496877 66.49687H410.61689V332.6089H53.496877Z"/>
</clipPath>
<clipPath id="clip_33">
<path transform="matrix(1,0,0,-1,0,339.80888)" d="M53.496877 66.49687H410.61689V332.6089H53.496877Z"/>
</clipPath>
<clipPath id="clip_34">
<path transform="matrix(1,0,0,-1,0,339.80888)" d="M53.496877 66.49687H410.61689V332.6089H53.496877Z"/>
</clipPath>
<clipPath id="clip_35">
<path transform="matrix(1,0,0,-1,0,339.80888)" d="M53.496877 66.49687H410.61689V332.6089H53.496877Z"/>
</clipPath>
<clipPath id="clip_36">
<path transform="matrix(1,0,0,-1,0,339.80888)" d="M53.496877 66.49687H410.61689V332.6089H53.496877Z"/>
</clipPath>
<clipPath id="clip_37">
<path transform="matrix(1,0,0,-1,0,339.80888)" d="M53.496877 66.49687H410.61689V332.6089H53.496877Z"/>
</clipPath>
<clipPath id="clip_38">
<path transform="matrix(1,0,0,-1,0,339.80888)" d="M53.496877 66.49687H410.61689V332.6089H53.496877Z"/>
</clipPath>
<clipPath id="clip_39">
<path transform="matrix(1,0,0,-1,0,339.80888)" d="M53.496877 66.49687H410.61689V332.6089H53.496877Z"/>
</clipPath>
<clipPath id="clip_40">
<path transform="matrix(1,0,0,-1,0,339.80888)" d="M53.496877 66.49687H410.61689V332.6089H53.496877Z"/>
</clipPath>
<clipPath id="clip_41">
<path transform="matrix(1,0,0,-1,0,339.80888)" d="M53.496877 66.49687H410.61689V332.6089H53.496877Z"/>
</clipPath>
<clipPath id="clip_42">
<path transform="matrix(1,0,0,-1,0,339.80888)" d="M53.496877 66.49687H410.61689V332.6089H53.496877Z"/>
</clipPath>
<clipPath id="clip_43">
<path transform="matrix(1,0,0,-1,0,339.80888)" d="M53.496877 66.49687H410.61689V332.6089H53.496877Z"/>
</clipPath>
<clipPath id="clip_44">
<path transform="matrix(1,0,0,-1,0,339.80888)" d="M53.496877 66.49687H410.61689V332.6089H53.496877Z"/>
</clipPath>
<clipPath id="clip_45">
<path transform="matrix(1,0,0,-1,0,339.80888)" d="M53.496877 66.49687H410.61689V332.6089H53.496877Z"/>
</clipPath>
<clipPath id="clip_46">
<path transform="matrix(1,0,0,-1,0,339.80888)" d="M53.496877 66.49687H410.61689V332.6089H53.496877Z"/>
</clipPath>
<clipPath id="clip_47">
<path transform="matrix(1,0,0,-1,0,339.80888)" d="M53.496877 66.49687H410.61689V332.6089H53.496877Z"/>
</clipPath>
<clipPath id="clip_48">
<path transform="matrix(1,0,0,-1,0,339.80888)" d="M53.496877 66.49687H410.61689V332.6089H53.496877Z"/>
</clipPath>
<clipPath id="clip_49">
<path transform="matrix(1,0,0,-1,0,339.80888)" d="M53.496877 66.49687H410.61689V332.6089H53.496877Z"/>
</clipPath>
<clipPath id="clip_50">
<path transform="matrix(1,0,0,-1,0,339.80888)" d="M53.496877 66.49687H410.61689V332.6089H53.496877Z"/>
</clipPath>
<clipPath id="clip_51">
<path transform="matrix(1,0,0,-1,0,339.80888)" d="M53.496877 66.49687H410.61689V332.6089H53.496877Z"/>
</clipPath>
<clipPath id="clip_52">
<path transform="matrix(1,0,0,-1,0,339.80888)" d="M53.496877 66.49687H410.61689V332.6089H53.496877Z"/>
</clipPath>
<clipPath id="clip_53">
<path transform="matrix(1,0,0,-1,0,339.80888)" d="M53.496877 66.49687H410.61689V332.6089H53.496877Z"/>
</clipPath>
<clipPath id="clip_54">
<path transform="matrix(1,0,0,-1,0,339.80888)" d="M53.496877 66.49687H410.61689V332.6089H53.496877Z"/>
</clipPath>
<clipPath id="clip_55">
<path transform="matrix(1,0,0,-1,0,339.80888)" d="M53.496877 66.49687H410.61689V332.6089H53.496877Z"/>
</clipPath>
<clipPath id="clip_56">
<path transform="matrix(1,0,0,-1,0,339.80888)" d="M53.496877 66.49687H410.61689V332.6089H53.496877Z"/>
</clipPath>
<clipPath id="clip_57">
<path transform="matrix(1,0,0,-1,0,339.80888)" d="M53.496877 66.49687H410.61689V332.6089H53.496877Z"/>
</clipPath>
<clipPath id="clip_58">
<path transform="matrix(1,0,0,-1,0,339.80888)" d="M53.496877 66.49687H410.61689V332.6089H53.496877Z"/>
</clipPath>
<clipPath id="clip_59">
<path transform="matrix(1,0,0,-1,0,339.80888)" d="M53.496877 66.49687H410.61689V332.6089H53.496877Z"/>
</clipPath>
<clipPath id="clip_60">
<path transform="matrix(1,0,0,-1,0,339.80888)" d="M53.496877 66.49687H410.61689V332.6089H53.496877Z"/>
</clipPath>
<clipPath id="clip_61">
<path transform="matrix(1,0,0,-1,0,339.80888)" d="M53.496877 66.49687H410.61689V332.6089H53.496877Z"/>
</clipPath>
<clipPath id="clip_62">
<path transform="matrix(1,0,0,-1,0,339.80888)" d="M53.496877 66.49687H410.61689V332.6089H53.496877Z"/>
</clipPath>
<clipPath id="clip_63">
<path transform="matrix(1,0,0,-1,0,339.80888)" d="M53.496877 66.49687H410.61689V332.6089H53.496877Z"/>
</clipPath>
<clipPath id="clip_64">
<path transform="matrix(1,0,0,-1,0,339.80888)" d="M53.496877 66.49687H410.61689V332.6089H53.496877Z"/>
</clipPath>
<clipPath id="clip_65">
<path transform="matrix(1,0,0,-1,0,339.80888)" d="M53.496877 66.49687H410.61689V332.6089H53.496877Z"/>
</clipPath>
<clipPath id="clip_66">
<path transform="matrix(1,0,0,-1,0,339.80888)" d="M53.496877 66.49687H410.61689V332.6089H53.496877Z"/>
</clipPath>
<clipPath id="clip_67">
<path transform="matrix(1,0,0,-1,0,339.80888)" d="M53.496877 66.49687H410.61689V332.6089H53.496877Z"/>
</clipPath>
<clipPath id="clip_68">
<path transform="matrix(1,0,0,-1,0,339.80888)" d="M53.496877 66.49687H410.61689V332.6089H53.496877Z"/>
</clipPath>
<clipPath id="clip_69">
<path transform="matrix(1,0,0,-1,0,339.80888)" d="M53.496877 66.49687H410.61689V332.6089H53.496877Z"/>
</clipPath>
<clipPath id="clip_70">
<path transform="matrix(1,0,0,-1,0,339.80888)" d="M53.496877 66.49687H410.61689V332.6089H53.496877Z"/>
</clipPath>
<clipPath id="clip_71">
<path transform="matrix(1,0,0,-1,0,339.80888)" d="M53.496877 66.49687H410.61689V332.6089H53.496877Z"/>
</clipPath>
<clipPath id="clip_72">
<path transform="matrix(1,0,0,-1,0,339.80888)" d="M53.496877 66.49687H410.61689V332.6089H53.496877Z"/>
</clipPath>
<clipPath id="clip_73">
<path transform="matrix(1,0,0,-1,0,339.80888)" d="M53.496877 66.49687H410.61689V332.6089H53.496877Z"/>
</clipPath>
<clipPath id="clip_74">
<path transform="matrix(1,0,0,-1,0,339.80888)" d="M53.496877 66.49687H410.61689V332.6089H53.496877Z"/>
</clipPath>
<clipPath id="clip_75">
<path transform="matrix(1,0,0,-1,0,339.80888)" d="M53.496877 66.49687H410.61689V332.6089H53.496877Z"/>
</clipPath>
<clipPath id="clip_76">
<path transform="matrix(1,0,0,-1,0,339.80888)" d="M53.496877 66.49687H410.61689V332.6089H53.496877Z"/>
</clipPath>
<clipPath id="clip_77">
<path transform="matrix(1,0,0,-1,0,339.80888)" d="M53.496877 66.49687H410.61689V332.6089H53.496877Z"/>
</clipPath>
<clipPath id="clip_78">
<path transform="matrix(1,0,0,-1,0,339.80888)" d="M53.496877 66.49687H410.61689V332.6089H53.496877Z"/>
</clipPath>
<clipPath id="clip_79">
<path transform="matrix(1,0,0,-1,0,339.80888)" d="M53.496877 66.49687H410.61689V332.6089H53.496877Z"/>
</clipPath>
<clipPath id="clip_80">
<path transform="matrix(1,0,0,-1,0,339.80888)" d="M53.496877 66.49687H410.61689V332.6089H53.496877Z"/>
</clipPath>
<clipPath id="clip_81">
<path transform="matrix(1,0,0,-1,0,339.80888)" d="M53.496877 66.49687H410.61689V332.6089H53.496877Z"/>
</clipPath>
<clipPath id="clip_82">
<path transform="matrix(1,0,0,-1,0,339.80888)" d="M53.496877 66.49687H410.61689V332.6089H53.496877Z"/>
</clipPath>
<clipPath id="clip_83">
<path transform="matrix(1,0,0,-1,0,339.80888)" d="M53.496877 66.49687H410.61689V332.6089H53.496877Z"/>
</clipPath>
<clipPath id="clip_84">
<path transform="matrix(1,0,0,-1,0,339.80888)" d="M53.496877 66.49687H410.61689V332.6089H53.496877Z"/>
</clipPath>
<clipPath id="clip_85">
<path transform="matrix(1,0,0,-1,0,339.80888)" d="M53.496877 66.49687H410.61689V332.6089H53.496877Z"/>
</clipPath>
<clipPath id="clip_86">
<path transform="matrix(1,0,0,-1,0,339.80888)" d="M53.496877 66.49687H410.61689V332.6089H53.496877Z"/>
</clipPath>
<clipPath id="clip_87">
<path transform="matrix(1,0,0,-1,0,339.80888)" d="M53.496877 66.49687H410.61689V332.6089H53.496877Z"/>
</clipPath>
<clipPath id="clip_88">
<path transform="matrix(1,0,0,-1,0,339.80888)" d="M53.496877 66.49687H410.61689V332.6089H53.496877Z"/>
</clipPath>
<clipPath id="clip_89">
<path transform="matrix(1,0,0,-1,0,339.80888)" d="M53.496877 66.49687H410.61689V332.6089H53.496877Z"/>
</clipPath>
<clipPath id="clip_90">
<path transform="matrix(1,0,0,-1,0,339.80888)" d="M53.496877 66.49687H410.61689V332.6089H53.496877Z"/>
</clipPath>
<clipPath id="clip_91">
<path transform="matrix(1,0,0,-1,0,339.80888)" d="M53.496877 66.49687H410.61689V332.6089H53.496877Z"/>
</clipPath>
<clipPath id="clip_92">
<path transform="matrix(1,0,0,-1,0,339.80888)" d="M53.496877 66.49687H410.61689V332.6089H53.496877Z"/>
</clipPath>
<clipPath id="clip_93">
<path transform="matrix(1,0,0,-1,0,339.80888)" d="M53.496877 66.49687H410.61689V332.6089H53.496877Z"/>
</clipPath>
<clipPath id="clip_94">
<path transform="matrix(1,0,0,-1,0,339.80888)" d="M53.496877 66.49687H410.61689V332.6089H53.496877Z"/>
</clipPath>
<clipPath id="clip_95">
<path transform="matrix(1,0,0,-1,0,339.80888)" d="M53.496877 66.49687H410.61689V332.6089H53.496877Z"/>
</clipPath>
<clipPath id="clip_96">
<path transform="matrix(1,0,0,-1,0,339.80888)" d="M53.496877 66.49687H410.61689V332.6089H53.496877Z"/>
</clipPath>
<clipPath id="clip_97">
<path transform="matrix(1,0,0,-1,0,339.80888)" d="M53.496877 66.49687H410.61689V332.6089H53.496877Z"/>
</clipPath>
<clipPath id="clip_98">
<path transform="matrix(1,0,0,-1,0,339.80888)" d="M53.496877 66.49687H410.61689V332.6089H53.496877Z"/>
</clipPath>
<clipPath id="clip_99">
<path transform="matrix(1,0,0,-1,0,339.80888)" d="M53.496877 66.49687H410.61689V332.6089H53.496877Z"/>
</clipPath>
<clipPath id="clip_100">
<path transform="matrix(1,0,0,-1,0,339.80888)" d="M53.496877 66.49687H410.61689V332.6089H53.496877Z"/>
</clipPath>
<clipPath id="clip_101">
<path transform="matrix(1,0,0,-1,0,339.80888)" d="M53.496877 66.49687H410.61689V332.6089H53.496877Z"/>
</clipPath>
<clipPath id="clip_102">
<path transform="matrix(1,0,0,-1,0,339.80888)" d="M53.496877 66.49687H410.61689V332.6089H53.496877Z"/>
</clipPath>
<clipPath id="clip_103">
<path transform="matrix(1,0,0,-1,0,339.80888)" d="M53.496877 66.49687H410.61689V332.6089H53.496877Z"/>
</clipPath>
<clipPath id="clip_104">
<path transform="matrix(1,0,0,-1,0,339.80888)" d="M53.496877 66.49687H410.61689V332.6089H53.496877Z"/>
</clipPath>
<clipPath id="clip_105">
<path transform="matrix(1,0,0,-1,0,339.80888)" d="M53.496877 66.49687H410.61689V332.6089H53.496877Z"/>
</clipPath>
<clipPath id="clip_106">
<path transform="matrix(1,0,0,-1,0,339.80888)" d="M53.496877 66.49687H410.61689V332.6089H53.496877Z"/>
</clipPath>
<clipPath id="clip_107">
<path transform="matrix(1,0,0,-1,0,339.80888)" d="M53.496877 66.49687H410.61689V332.6089H53.496877Z"/>
</clipPath>
<clipPath id="clip_108">
<path transform="matrix(1,0,0,-1,0,339.80888)" d="M53.496877 66.49687H410.61689V332.6089H53.496877Z"/>
</clipPath>
<clipPath id="clip_109">
<path transform="matrix(1,0,0,-1,0,339.80888)" d="M53.496877 66.49687H410.61689V332.6089H53.496877Z"/>
</clipPath>
<clipPath id="clip_110">
<path transform="matrix(1,0,0,-1,0,339.80888)" d="M53.496877 66.49687H410.61689V332.6089H53.496877Z"/>
</clipPath>
<clipPath id="clip_111">
<path transform="matrix(1,0,0,-1,0,339.80888)" d="M53.496877 66.49687H410.61689V332.6089H53.496877Z"/>
</clipPath>
<clipPath id="clip_112">
<path transform="matrix(1,0,0,-1,0,339.80888)" d="M53.496877 66.49687H410.61689V332.6089H53.496877Z"/>
</clipPath>
<clipPath id="clip_113">
<path transform="matrix(1,0,0,-1,0,339.80888)" d="M53.496877 66.49687H410.61689V332.6089H53.496877Z"/>
</clipPath>
<clipPath id="clip_114">
<path transform="matrix(1,0,0,-1,0,339.80888)" d="M53.496877 66.49687H410.61689V332.6089H53.496877Z"/>
</clipPath>
<clipPath id="clip_115">
<path transform="matrix(1,0,0,-1,0,339.80888)" d="M53.496877 66.49687H410.61689V332.6089H53.496877Z"/>
</clipPath>
<clipPath id="clip_116">
<path transform="matrix(1,0,0,-1,0,339.80888)" d="M53.496877 66.49687H410.61689V332.6089H53.496877Z"/>
</clipPath>
<clipPath id="clip_117">
<path transform="matrix(1,0,0,-1,0,339.80888)" d="M53.496877 66.49687H410.61689V332.6089H53.496877Z"/>
</clipPath>
<clipPath id="clip_118">
<path transform="matrix(1,0,0,-1,0,339.80888)" d="M53.496877 66.49687H410.61689V332.6089H53.496877Z"/>
</clipPath>
<clipPath id="clip_119">
<path transform="matrix(1,0,0,-1,0,339.80888)" d="M53.496877 66.49687H410.61689V332.6089H53.496877Z"/>
</clipPath>
<clipPath id="clip_120">
<path transform="matrix(1,0,0,-1,0,339.80888)" d="M53.496877 66.49687H410.61689V332.6089H53.496877Z"/>
</clipPath>
<clipPath id="clip_121">
<path transform="matrix(1,0,0,-1,0,339.80888)" d="M53.496877 66.49687H410.61689V332.6089H53.496877Z"/>
</clipPath>
<clipPath id="clip_122">
<path transform="matrix(1,0,0,-1,0,339.80888)" d="M53.496877 66.49687H410.61689V332.6089H53.496877Z"/>
</clipPath>
<clipPath id="clip_123">
<path transform="matrix(1,0,0,-1,0,339.80888)" d="M53.496877 66.49687H410.61689V332.6089H53.496877Z"/>
</clipPath>
<clipPath id="clip_124">
<path transform="matrix(1,0,0,-1,0,339.80888)" d="M53.496877 66.49687H410.61689V332.6089H53.496877Z"/>
</clipPath>
<clipPath id="clip_125">
<path transform="matrix(1,0,0,-1,0,339.80888)" d="M53.496877 66.49687H410.61689V332.6089H53.496877Z"/>
</clipPath>
<clipPath id="clip_126">
<path transform="matrix(1,0,0,-1,0,339.80888)" d="M53.496877 66.49687H410.61689V332.6089H53.496877Z"/>
</clipPath>
<clipPath id="clip_127">
<path transform="matrix(1,0,0,-1,0,339.80888)" d="M53.496877 66.49687H410.61689V332.6089H53.496877Z"/>
</clipPath>
<clipPath id="clip_128">
<path transform="matrix(1,0,0,-1,0,339.80888)" d="M53.496877 66.49687H410.61689V332.6089H53.496877Z"/>
</clipPath>
<clipPath id="clip_129">
<path transform="matrix(1,0,0,-1,0,339.80888)" d="M53.496877 66.49687H410.61689V332.6089H53.496877Z"/>
</clipPath>
<clipPath id="clip_130">
<path transform="matrix(1,0,0,-1,0,339.80888)" d="M53.496877 66.49687H410.61689V332.6089H53.496877Z"/>
</clipPath>
<clipPath id="clip_131">
<path transform="matrix(1,0,0,-1,0,339.80888)" d="M53.496877 66.49687H410.61689V332.6089H53.496877Z"/>
</clipPath>
<clipPath id="clip_132">
<path transform="matrix(1,0,0,-1,0,339.80888)" d="M53.496877 66.49687H410.61689V332.6089H53.496877Z"/>
</clipPath>
<clipPath id="clip_133">
<path transform="matrix(1,0,0,-1,0,339.80888)" d="M53.496877 66.49687H410.61689V332.6089H53.496877Z"/>
</clipPath>
<clipPath id="clip_134">
<path transform="matrix(1,0,0,-1,0,339.80888)" d="M53.496877 66.49687H410.61689V332.6089H53.496877Z"/>
</clipPath>
<clipPath id="clip_135">
<path transform="matrix(1,0,0,-1,0,339.80888)" d="M53.496877 66.49687H410.61689V332.6089H53.496877Z"/>
</clipPath>
<clipPath id="clip_136">
<path transform="matrix(1,0,0,-1,0,339.80888)" d="M53.496877 66.49687H410.61689V332.6089H53.496877Z"/>
</clipPath>
<clipPath id="clip_137">
<path transform="matrix(1,0,0,-1,0,339.80888)" d="M53.496877 66.49687H410.61689V332.6089H53.496877Z"/>
</clipPath>
<clipPath id="clip_138">
<path transform="matrix(1,0,0,-1,0,339.80888)" d="M53.496877 66.49687H410.61689V332.6089H53.496877Z"/>
</clipPath>
<clipPath id="clip_139">
<path transform="matrix(1,0,0,-1,0,339.80888)" d="M53.496877 66.49687H410.61689V332.6089H53.496877Z"/>
</clipPath>
<clipPath id="clip_140">
<path transform="matrix(1,0,0,-1,0,339.80888)" d="M53.496877 66.49687H410.61689V332.6089H53.496877Z"/>
</clipPath>
<clipPath id="clip_141">
<path transform="matrix(1,0,0,-1,0,339.80888)" d="M53.496877 66.49687H410.61689V332.6089H53.496877Z"/>
</clipPath>
<clipPath id="clip_142">
<path transform="matrix(1,0,0,-1,0,339.80888)" d="M53.496877 66.49687H410.61689V332.6089H53.496877Z"/>
</clipPath>
<clipPath id="clip_143">
<path transform="matrix(1,0,0,-1,0,339.80888)" d="M53.496877 66.49687H410.61689V332.6089H53.496877Z"/>
</clipPath>
<clipPath id="clip_144">
<path transform="matrix(1,0,0,-1,0,339.80888)" d="M53.496877 66.49687H410.61689V332.6089H53.496877Z"/>
</clipPath>
<clipPath id="clip_145">
<path transform="matrix(1,0,0,-1,0,339.80888)" d="M53.496877 66.49687H410.61689V332.6089H53.496877Z"/>
</clipPath>
<clipPath id="clip_146">
<path transform="matrix(1,0,0,-1,0,339.80888)" d="M53.496877 66.49687H410.61689V332.6089H53.496877Z"/>
</clipPath>
<clipPath id="clip_147">
<path transform="matrix(1,0,0,-1,0,339.80888)" d="M53.496877 66.49687H410.61689V332.6089H53.496877Z"/>
</clipPath>
<clipPath id="clip_148">
<path transform="matrix(1,0,0,-1,0,339.80888)" d="M53.496877 66.49687H410.61689V332.6089H53.496877Z"/>
</clipPath>
<clipPath id="clip_149">
<path transform="matrix(1,0,0,-1,0,339.80888)" d="M53.496877 66.49687H410.61689V332.6089H53.496877Z"/>
</clipPath>
<clipPath id="clip_150">
<path transform="matrix(1,0,0,-1,0,339.80888)" d="M53.496877 66.49687H410.61689V332.6089H53.496877Z"/>
</clipPath>
<clipPath id="clip_151">
<path transform="matrix(1,0,0,-1,0,339.80888)" d="M53.496877 66.49687H410.61689V332.6089H53.496877Z"/>
</clipPath>
<clipPath id="clip_152">
<path transform="matrix(1,0,0,-1,0,339.80888)" d="M53.496877 66.49687H410.61689V332.6089H53.496877Z"/>
</clipPath>
<clipPath id="clip_153">
<path transform="matrix(1,0,0,-1,0,339.80888)" d="M53.496877 66.49687H410.61689V332.6089H53.496877Z"/>
</clipPath>
<clipPath id="clip_154">
<path transform="matrix(1,0,0,-1,0,339.80888)" d="M53.496877 66.49687H410.61689V332.6089H53.496877Z"/>
</clipPath>
<clipPath id="clip_155">
<path transform="matrix(1,0,0,-1,0,339.80888)" d="M53.496877 66.49687H410.61689V332.6089H53.496877Z"/>
</clipPath>
<clipPath id="clip_156">
<path transform="matrix(1,0,0,-1,0,339.80888)" d="M53.496877 66.49687H410.61689V332.6089H53.496877Z"/>
</clipPath>
<clipPath id="clip_157">
<path transform="matrix(1,0,0,-1,0,339.80888)" d="M53.496877 66.49687H410.61689V332.6089H53.496877Z"/>
</clipPath>
<clipPath id="clip_158">
<path transform="matrix(1,0,0,-1,0,339.80888)" d="M53.496877 66.49687H410.61689V332.6089H53.496877Z"/>
</clipPath>
<clipPath id="clip_159">
<path transform="matrix(1,0,0,-1,0,339.80888)" d="M53.496877 66.49687H410.61689V332.6089H53.496877Z"/>
</clipPath>
<clipPath id="clip_160">
<path transform="matrix(1,0,0,-1,0,339.80888)" d="M53.496877 66.49687H410.61689V332.6089H53.496877Z"/>
</clipPath>
<clipPath id="clip_161">
<path transform="matrix(1,0,0,-1,0,339.80888)" d="M53.496877 66.49687H410.61689V332.6089H53.496877Z"/>
</clipPath>
<clipPath id="clip_162">
<path transform="matrix(1,0,0,-1,0,339.80888)" d="M53.496877 66.49687H410.61689V332.6089H53.496877Z"/>
</clipPath>
<clipPath id="clip_163">
<path transform="matrix(1,0,0,-1,0,339.80888)" d="M53.496877 66.49687H410.61689V332.6089H53.496877Z"/>
</clipPath>
<clipPath id="clip_164">
<path transform="matrix(1,0,0,-1,0,339.80888)" d="M53.496877 66.49687H410.61689V332.6089H53.496877Z"/>
</clipPath>
<clipPath id="clip_165">
<path transform="matrix(1,0,0,-1,0,339.80888)" d="M53.496877 66.49687H410.61689V332.6089H53.496877Z"/>
</clipPath>
<clipPath id="clip_166">
<path transform="matrix(1,0,0,-1,0,339.80888)" d="M53.496877 66.49687H410.61689V332.6089H53.496877Z"/>
</clipPath>
<clipPath id="clip_167">
<path transform="matrix(1,0,0,-1,0,339.80888)" d="M53.496877 66.49687H410.61689V332.6089H53.496877Z"/>
</clipPath>
<clipPath id="clip_168">
<path transform="matrix(1,0,0,-1,0,339.80888)" d="M53.496877 66.49687H410.61689V332.6089H53.496877Z"/>
</clipPath>
<clipPath id="clip_169">
<path transform="matrix(1,0,0,-1,0,339.80888)" d="M53.496877 66.49687H410.61689V332.6089H53.496877Z"/>
</clipPath>
<clipPath id="clip_170">
<path transform="matrix(1,0,0,-1,0,339.80888)" d="M53.496877 66.49687H410.61689V332.6089H53.496877Z"/>
</clipPath>
<clipPath id="clip_171">
<path transform="matrix(1,0,0,-1,0,339.80888)" d="M53.496877 66.49687H410.61689V332.6089H53.496877Z"/>
</clipPath>
<clipPath id="clip_172">
<path transform="matrix(1,0,0,-1,0,339.80888)" d="M53.496877 66.49687H410.61689V332.6089H53.496877Z"/>
</clipPath>
<clipPath id="clip_173">
<path transform="matrix(1,0,0,-1,0,339.80888)" d="M53.496877 66.49687H410.61689V332.6089H53.496877Z"/>
</clipPath>
<clipPath id="clip_174">
<path transform="matrix(1,0,0,-1,0,339.80888)" d="M53.496877 66.49687H410.61689V332.6089H53.496877Z"/>
</clipPath>
<clipPath id="clip_175">
<path transform="matrix(1,0,0,-1,0,339.80888)" d="M53.496877 66.49687H410.61689V332.6089H53.496877Z"/>
</clipPath>
<clipPath id="clip_176">
<path transform="matrix(1,0,0,-1,0,339.80888)" d="M53.496877 66.49687H410.61689V332.6089H53.496877Z"/>
</clipPath>
<clipPath id="clip_177">
<path transform="matrix(1,0,0,-1,0,339.80888)" d="M53.496877 66.49687H410.61689V332.6089H53.496877Z"/>
</clipPath>
<clipPath id="clip_178">
<path transform="matrix(1,0,0,-1,0,339.80888)" d="M53.496877 66.49687H410.61689V332.6089H53.496877Z"/>
</clipPath>
<clipPath id="clip_179">
<path transform="matrix(1,0,0,-1,0,339.80888)" d="M53.496877 66.49687H410.61689V332.6089H53.496877Z"/>
</clipPath>
<clipPath id="clip_180">
<path transform="matrix(1,0,0,-1,0,339.80888)" d="M53.496877 66.49687H410.61689V332.6089H53.496877Z"/>
</clipPath>
<clipPath id="clip_181">
<path transform="matrix(1,0,0,-1,0,339.80888)" d="M53.496877 66.49687H410.61689V332.6089H53.496877Z"/>
</clipPath>
<clipPath id="clip_182">
<path transform="matrix(1,0,0,-1,0,339.80888)" d="M53.496877 66.49687H410.61689V332.6089H53.496877Z"/>
</clipPath>
<clipPath id="clip_183">
<path transform="matrix(1,0,0,-1,0,339.80888)" d="M53.496877 66.49687H410.61689V332.6089H53.496877Z"/>
</clipPath>
<clipPath id="clip_184">
<path transform="matrix(1,0,0,-1,0,339.80888)" d="M53.496877 66.49687H410.61689V332.6089H53.496877Z"/>
</clipPath>
<clipPath id="clip_185">
<path transform="matrix(1,0,0,-1,0,339.80888)" d="M53.496877 66.49687H410.61689V332.6089H53.496877Z"/>
</clipPath>
<clipPath id="clip_186">
<path transform="matrix(1,0,0,-1,0,339.80888)" d="M53.496877 66.49687H410.61689V332.6089H53.496877Z"/>
</clipPath>
<clipPath id="clip_187">
<path transform="matrix(1,0,0,-1,0,339.80888)" d="M53.496877 66.49687H410.61689V332.6089H53.496877Z"/>
</clipPath>
<clipPath id="clip_188">
<path transform="matrix(1,0,0,-1,0,339.80888)" d="M53.496877 66.49687H410.61689V332.6089H53.496877Z"/>
</clipPath>
<clipPath id="clip_189">
<path transform="matrix(1,0,0,-1,0,339.80888)" d="M53.496877 66.49687H410.61689V332.6089H53.496877Z"/>
</clipPath>
<clipPath id="clip_190">
<path transform="matrix(1,0,0,-1,0,339.80888)" d="M53.496877 66.49687H410.61689V332.6089H53.496877Z"/>
</clipPath>
<clipPath id="clip_191">
<path transform="matrix(1,0,0,-1,0,339.80888)" d="M53.496877 66.49687H410.61689V332.6089H53.496877Z"/>
</clipPath>
<clipPath id="clip_192">
<path transform="matrix(1,0,0,-1,0,339.80888)" d="M53.496877 66.49687H410.61689V332.6089H53.496877Z"/>
</clipPath>
<clipPath id="clip_193">
<path transform="matrix(1,0,0,-1,0,339.80888)" d="M53.496877 66.49687H410.61689V332.6089H53.496877Z"/>
</clipPath>
<clipPath id="clip_194">
<path transform="matrix(1,0,0,-1,0,339.80888)" d="M53.496877 66.49687H410.61689V332.6089H53.496877Z"/>
</clipPath>
<clipPath id="clip_195">
<path transform="matrix(1,0,0,-1,0,339.80888)" d="M53.496877 66.49687H410.61689V332.6089H53.496877Z"/>
</clipPath>
<clipPath id="clip_196">
<path transform="matrix(1,0,0,-1,0,339.80888)" d="M53.496877 66.49687H410.61689V332.6089H53.496877Z"/>
</clipPath>
<clipPath id="clip_197">
<path transform="matrix(1,0,0,-1,0,339.80888)" d="M53.496877 66.49687H410.61689V332.6089H53.496877Z"/>
</clipPath>
<clipPath id="clip_198">
<path transform="matrix(1,0,0,-1,0,339.80888)" d="M53.496877 66.49687H410.61689V332.6089H53.496877Z"/>
</clipPath>
<clipPath id="clip_199">
<path transform="matrix(1,0,0,-1,0,339.80888)" d="M53.496877 66.49687H410.61689V332.6089H53.496877Z"/>
</clipPath>
<g id="font_200_48">
<path transform="matrix(.001,0,0,.001,0,0)" d="M318 664C267 664 229 639 203 589 177 539 165 464 165 364 165 264 177 189 203 139 229 89 267 64 318 64 369 64 407 89 433 139 458 189 471 264 471 364 471 464 458 539 433 589 407 639 369 664 318 664ZM318 742C399 742 461 709 505 645 548 580 570 486 570 364 570 241 548 147 505 83 461 19 399-13 317-13 235-13 173 19 130 83 87 147 66 241 66 364 66 486 87 580 130 645 173 709 236 742 318 742Z"/>
</g>
<g id="font_200_46">
<path transform="matrix(.001,0,0,.001,0,0)" d="M107 124H210V0H107V124Z"/>
</g>
<g id="font_200_53">
<path transform="matrix(.001,0,0,.001,0,0)" d="M108 729H495V646H198V467C212 472 227 476 241 478 255 480 270 482 284 482 365 482 429 459 477 415 525 370 549 310 549 234 549 155 524 94 475 51 426 8 357-13 269-13 238-13 207-10 175-6 143-1 111 6 77 17V116C106 100 136 88 168 80 199 72 232 69 267 69 323 69 368 83 401 113 433 143 450 183 450 234 450 284 433 324 401 354 368 384 323 399 267 399 241 399 214 396 188 390 162 384 135 375 108 363V729Z"/>
</g>
<g id="font_200_49">
<path transform="matrix(.001,0,0,.001,0,0)" d="M124 83H285V639L110 604V694L284 729H383V83H544V0H124V83Z"/>
</g>
<g id="font_200_50">
<path transform="matrix(.001,0,0,.001,0,0)" d="M192 83H536V0H73V83C110 121 161 173 226 239 290 304 331 346 348 365 380 400 402 430 414 455 426 479 433 504 433 528 433 566 419 598 392 622 365 646 330 659 286 659 255 659 222 653 188 643 154 632 117 616 78 594V694C118 710 155 722 189 730 223 738 255 742 284 742 359 742 419 723 464 685 509 647 532 597 532 534 532 504 526 475 515 449 504 422 484 390 454 354 446 344 420 317 376 272 332 227 271 164 192 83Z"/>
</g>
<g id="font_200_124">
<path transform="matrix(.001,0,0,.001,0,0)" d="M210 764V-235H127V764H210Z"/>
</g>
<g id="font_201_120">
<path transform="matrix(.001,0,0,.001,0,0)" d="M600 547 349 279 503 0H400L284 217 83 0H-25L243 288 100 547H203L308 349 491 547H600Z"/>
</g>
<g id="font_200_40">
<path transform="matrix(.001,0,0,.001,0,0)" d="M310 759C266 683 234 609 213 536 191 463 181 389 181 314 181 238 191 164 213 91 234 17 266-56 310-131H232C183-54 146 20 122 94 98 168 86 241 86 314 86 386 98 459 122 533 146 607 182 682 232 759H310Z"/>
</g>
<g id="font_201_103">
<path transform="matrix(.001,0,0,.001,0,0)" d="M596 547 503 68C485-24 450-92 400-138 349-184 281-207 196-207 164-207 134-204 107-200 80-195 55-188 32-178L49-91C71-105 94-115 119-122 143-129 170-133 198-133 255-133 302-117 339-86 375-55 399-11 411 47L419 88C393 59 364 37 331 22 298 7 262 0 224 0 168 0 125 18 93 55 61 91 46 142 46 206 46 256 55 306 75 354 94 402 121 445 156 483 178 507 205 526 236 540 267 553 299 560 333 560 369 560 401 551 429 534 456 517 476 493 490 462L506 547H596ZM461 346C461 390 450 425 429 449 408 473 379 485 341 485 317 485 294 480 273 471 251 461 233 448 218 431 193 403 174 370 160 332 146 294 139 255 139 215 139 169 149 135 170 111 191 87 221 75 261 75 318 75 366 100 404 152 442 204 461 268 461 346Z"/>
</g>
<g id="font_200_41">
<path transform="matrix(.001,0,0,.001,0,0)" d="M80 759H158C206 682 243 607 267 533 291 459 304 386 304 314 304 241 291 168 267 94 243 20 206-54 158-131H80C123-56 155 17 177 91 198 164 209 238 209 314 209 389 198 463 177 536 155 609 123 683 80 759Z"/>
</g>
<g id="font_201_116">
<path transform="matrix(.001,0,0,.001,0,0)" d="M423 547 409 477H230L172 180C170 169 168 160 167 152 166 144 166 139 166 135 166 114 172 99 185 89 197 79 217 75 245 75H336L321 0H235C181 0 141 10 115 31 89 52 76 84 76 126 76 133 76 141 77 150 78 159 80 169 82 180L140 477H64L78 547H153L183 702H273L243 547H423Z"/>
</g>
<clipPath id="clip_202">
<path transform="matrix(.022,0,0,-.022,198.45726,324.99324)" d="M-1021-463H1794V1233H-1021Z"/>
</clipPath>
<clipPath id="clip_203">
<path transform="matrix(.022,0,0,-.022,224.62445,325.71199)" d="M-1021-463H1794V1233H-1021Z"/>
</clipPath>
<clipPath id="clip_204">
<path transform="matrix(.022,0,0,-.022,261.83247,324.99324)" d="M-1021-463H1794V1233H-1021Z"/>
</clipPath>
<g id="font_200_52">
<path transform="matrix(.001,0,0,.001,0,0)" d="M378 643 129 254H378V643ZM352 729H476V254H580V172H476V0H378V172H49V267L352 729Z"/>
</g>
<g id="font_200_54">
<path transform="matrix(.001,0,0,.001,0,0)" d="M330 404C286 404 251 388 225 358 199 328 186 286 186 234 186 181 199 139 225 109 251 79 286 64 330 64 374 64 409 79 435 109 461 139 474 181 474 234 474 286 461 328 435 358 409 388 374 404 330 404ZM526 713V623C501 635 476 644 451 650 425 656 400 659 376 659 310 659 260 637 226 593 192 549 172 482 168 394 187 422 211 444 240 459 269 474 301 482 336 482 409 482 467 459 509 415 551 371 573 310 573 234 573 159 550 99 506 54 462 9 403-13 330-13 246-13 181 19 137 83 92 147 70 241 70 364 70 479 97 571 152 639 206 707 280 742 372 742 396 742 421 739 447 735 472 730 498 723 526 713Z"/>
</g>
<g id="font_200_56">
<path transform="matrix(.001,0,0,.001,0,0)" d="M318 346C271 346 234 333 207 308 180 283 167 249 167 205 167 161 180 126 207 101 234 76 271 64 318 64 364 64 401 76 428 102 455 127 469 161 469 205 469 249 455 283 429 308 402 333 365 346 318 346ZM219 388C177 398 144 418 120 447 96 476 85 511 85 553 85 611 105 657 147 691 188 725 245 742 318 742 390 742 447 725 489 691 530 657 551 611 551 553 551 511 539 476 515 447 491 418 459 398 417 388 464 377 501 355 528 323 554 291 568 251 568 205 568 134 546 80 503 43 459 5 397-13 317-13 237-13 175 5 132 43 89 80 68 134 68 205 68 251 81 291 108 323 134 355 171 377 219 388ZM183 544C183 506 194 476 218 455 242 434 275 424 318 424 360 424 393 434 417 455 441 476 453 506 453 544 453 582 441 611 417 632 393 653 360 664 318 664 275 664 242 653 218 632 194 611 183 582 183 544Z"/>
</g>
<g id="font_201_80">
<path transform="matrix(.001,0,0,.001,0,0)" d="M169 729H397C463 729 514 713 549 682 583 651 601 606 601 547 601 467 575 404 524 360 472 315 400 293 307 293H183L126 0H27L169 729ZM252 648 199 374H323C379 374 422 388 452 417 482 445 497 486 497 540 497 574 486 600 466 619 446 638 417 648 381 648H252Z"/>
</g>
<clipPath id="clip_205">
<path transform="matrix(1,0,0,-1,0,339.80888)" d="M53.496877 66.49687H410.61689V332.6089H53.496877Z"/>
</clipPath>
<clipPath id="clip_206">
<path transform="matrix(1,0,0,-1,0,339.80888)" d="M53.496877 66.49687H410.61689V332.6089H53.496877Z"/>
</clipPath>
</defs>
<path transform="matrix(1,0,0,-1,0,339.80888)" d="M0 0H419.08415V339.80888H0Z" fill="#ffffff"/>
<path transform="matrix(1,0,0,-1,0,339.80888)" d="M53.496877 66.49687H410.61689V332.6089H53.496877Z" fill="#ffffff"/>
<g clip-path="url(#clip_0)">
<path transform="matrix(1,0,0,-1,0,339.80888)" d="M69.7296 66.49687H72.97615 69.7296Z" fill="#3cb371" fill-opacity=".5"/>
</g>
<g clip-path="url(#clip_1)">
<path transform="matrix(1,0,0,-1,0,339.80888)" d="M72.97615 66.49687H76.222698 72.97615Z" fill="#3cb371" fill-opacity=".5"/>
</g>
<g clip-path="url(#clip_2)">
<path transform="matrix(1,0,0,-1,0,339.80888)" d="M76.222698 66.49687H79.46924 76.222698Z" fill="#3cb371" fill-opacity=".5"/>
</g>
<g clip-path="url(#clip_3)">
<path transform="matrix(1,0,0,-1,0,339.80888)" d="M79.46924 66.49687H82.71578 79.46924Z" fill="#3cb371" fill-opacity=".5"/>
</g>
<g clip-path="url(#clip_4)">
<path transform="matrix(1,0,0,-1,0,339.80888)" d="M82.71578 66.49687H85.96233 82.71578Z" fill="#3cb371" fill-opacity=".5"/>
</g>
<g clip-path="url(#clip_5)">
<path transform="matrix(1,0,0,-1,0,339.80888)" d="M85.96233 66.49687H89.20888 85.96233Z" fill="#3cb371" fill-opacity=".5"/>
</g>
<g clip-path="url(#clip_6)">
<path transform="matrix(1,0,0,-1,0,339.80888)" d="M89.20888 66.49687H92.45542 89.20888Z" fill="#3cb371" fill-opacity=".5"/>
</g>
<g clip-path="url(#clip_7)">
<path transform="matrix(1,0,0,-1,0,339.80888)" d="M92.45542 66.49687H95.701969 92.45542Z" fill="#3cb371" fill-opacity=".5"/>
</g>
<g clip-path="url(#clip_8)">
<path transform="matrix(1,0,0,-1,0,339.80888)" d="M95.701969 66.49687H98.94851 95.701969Z" fill="#3cb371" fill-opacity=".5"/>
</g>
<g clip-path="url(#clip_9)">
<path transform="matrix(1,0,0,-1,0,339.80888)" d="M98.94851 66.49687H102.19506 98.94851Z" fill="#3cb371" fill-opacity=".5"/>
</g>
<g clip-path="url(#clip_10)">
<path transform="matrix(1,0,0,-1,0,339.80888)" d="M102.19506 66.49687H105.441608 102.19506Z" fill="#3cb371" fill-opacity=".5"/>
</g>
<g clip-path="url(#clip_11)">
<path transform="matrix(1,0,0,-1,0,339.80888)" d="M105.441608 66.49687H108.68815 105.441608Z" fill="#3cb371" fill-opacity=".5"/>
</g>
<g clip-path="url(#clip_12)">
<path transform="matrix(1,0,0,-1,0,339.80888)" d="M108.68815 66.49687H111.93469 108.68815Z" fill="#3cb371" fill-opacity=".5"/>
</g>
<g clip-path="url(#clip_13)">
<path transform="matrix(1,0,0,-1,0,339.80888)" d="M111.93469 66.49687H115.18124 111.93469Z" fill="#3cb371" fill-opacity=".5"/>
</g>
<g clip-path="url(#clip_14)">
<path transform="matrix(1,0,0,-1,0,339.80888)" d="M115.18124 66.49687H118.42779 115.18124Z" fill="#3cb371" fill-opacity=".5"/>
</g>
<g clip-path="url(#clip_15)">
<path transform="matrix(1,0,0,-1,0,339.80888)" d="M118.42779 66.49687H121.67433 118.42779Z" fill="#3cb371" fill-opacity=".5"/>
</g>
<g clip-path="url(#clip_16)">
<path transform="matrix(1,0,0,-1,0,339.80888)" d="M121.67433 66.49687H124.920879 121.67433Z" fill="#3cb371" fill-opacity=".5"/>
</g>
<g clip-path="url(#clip_17)">
<path transform="matrix(1,0,0,-1,0,339.80888)" d="M124.920879 66.49687H128.16742 124.920879Z" fill="#3cb371" fill-opacity=".5"/>
</g>
<g clip-path="url(#clip_18)">
<path transform="matrix(1,0,0,-1,0,339.80888)" d="M128.16742 66.49687H131.41397 128.16742Z" fill="#3cb371" fill-opacity=".5"/>
</g>
<g clip-path="url(#clip_19)">
<path transform="matrix(1,0,0,-1,0,339.80888)" d="M131.41397 66.49687H134.6605 131.41397Z" fill="#3cb371" fill-opacity=".5"/>
</g>
<g clip-path="url(#clip_20)">
<path transform="matrix(1,0,0,-1,0,339.80888)" d="M134.6605 66.49687H137.90706 134.6605Z" fill="#3cb371" fill-opacity=".5"/>
</g>
<g clip-path="url(#clip_21)">
<path transform="matrix(1,0,0,-1,0,339.80888)" d="M137.90706 66.49687H141.1536 137.90706Z" fill="#3cb371" fill-opacity=".5"/>
</g>
<g clip-path="url(#clip_22)">
<path transform="matrix(1,0,0,-1,0,339.80888)" d="M141.1536 66.49687H144.40015 141.1536Z" fill="#3cb371" fill-opacity=".5"/>
</g>
<g clip-path="url(#clip_23)">
<path transform="matrix(1,0,0,-1,0,339.80888)" d="M144.40015 66.49687H147.6467 144.40015Z" fill="#3cb371" fill-opacity=".5"/>
</g>
<g clip-path="url(#clip_24)">
<path transform="matrix(1,0,0,-1,0,339.80888)" d="M147.6467 66.49687H150.89324 147.6467Z" fill="#3cb371" fill-opacity=".5"/>
</g>
<g clip-path="url(#clip_25)">
<path transform="matrix(1,0,0,-1,0,339.80888)" d="M150.89324 66.49687H154.13979 150.89324Z" fill="#3cb371" fill-opacity=".5"/>
</g>
<g clip-path="url(#clip_26)">
<path transform="matrix(1,0,0,-1,0,339.80888)" d="M154.13979 66.49687H157.38634 154.13979Z" fill="#3cb371" fill-opacity=".5"/>
</g>
<g clip-path="url(#clip_27)">
<path transform="matrix(1,0,0,-1,0,339.80888)" d="M157.38634 66.49687H160.63288 157.38634Z" fill="#3cb371" fill-opacity=".5"/>
</g>
<g clip-path="url(#clip_28)">
<path transform="matrix(1,0,0,-1,0,339.80888)" d="M160.63288 66.49687H163.87943 160.63288Z" fill="#3cb371" fill-opacity=".5"/>
</g>
<g clip-path="url(#clip_29)">
<path transform="matrix(1,0,0,-1,0,339.80888)" d="M163.87943 66.49687H167.12598 163.87943Z" fill="#3cb371" fill-opacity=".5"/>
</g>
<g clip-path="url(#clip_30)">
<path transform="matrix(1,0,0,-1,0,339.80888)" d="M167.12598 66.49687H170.37252 167.12598Z" fill="#3cb371" fill-opacity=".5"/>
</g>
<g clip-path="url(#clip_31)">
<path transform="matrix(1,0,0,-1,0,339.80888)" d="M170.37252 66.49687H173.61905 170.37252Z" fill="#3cb371" fill-opacity=".5"/>
</g>
<g clip-path="url(#clip_32)">
<path transform="matrix(1,0,0,-1,0,339.80888)" d="M173.61905 66.49687H176.8656 173.61905Z" fill="#3cb371" fill-opacity=".5"/>
</g>
<g clip-path="url(#clip_33)">
<path transform="matrix(1,0,0,-1,0,339.80888)" d="M176.8656 66.49687H180.11215 176.8656Z" fill="#3cb371" fill-opacity=".5"/>
</g>
<g clip-path="url(#clip_34)">
<path transform="matrix(1,0,0,-1,0,339.80888)" d="M180.11215 66.49687H183.35869 180.11215Z" fill="#3cb371" fill-opacity=".5"/>
</g>
<g clip-path="url(#clip_35)">
<path transform="matrix(1,0,0,-1,0,339.80888)" d="M183.35869 66.49687H186.60524 183.35869Z" fill="#3cb371" fill-opacity=".5"/>
</g>
<g clip-path="url(#clip_36)">
<path transform="matrix(1,0,0,-1,0,339.80888)" d="M186.60524 66.49687H189.85179 186.60524Z" fill="#3cb371" fill-opacity=".5"/>
</g>
<g clip-path="url(#clip_37)">
<path transform="matrix(1,0,0,-1,0,339.80888)" d="M189.85179 66.49687H193.09833 189.85179Z" fill="#3cb371" fill-opacity=".5"/>
</g>
<g clip-path="url(#clip_38)">
<path transform="matrix(1,0,0,-1,0,339.80888)" d="M193.09833 66.49687H196.34487 193.09833Z" fill="#3cb371" fill-opacity=".5"/>
</g>
<g clip-path="url(#clip_39)">
<path transform="matrix(1,0,0,-1,0,339.80888)" d="M196.34487 66.49687H199.59142 196.34487Z" fill="#3cb371" fill-opacity=".5"/>
</g>
<g clip-path="url(#clip_40)">
<path transform="matrix(1,0,0,-1,0,339.80888)" d="M199.59142 66.49687H202.83797 199.59142Z" fill="#3cb371" fill-opacity=".5"/>
</g>
<g clip-path="url(#clip_41)">
<path transform="matrix(1,0,0,-1,0,339.80888)" d="M202.83797 66.49687H206.0845 202.83797Z" fill="#3cb371" fill-opacity=".5"/>
</g>
<g clip-path="url(#clip_42)">
<path transform="matrix(1,0,0,-1,0,339.80888)" d="M206.0845 66.49687H209.33106 206.0845Z" fill="#3cb371" fill-opacity=".5"/>
</g>
<g clip-path="url(#clip_43)">
<path transform="matrix(1,0,0,-1,0,339.80888)" d="M209.33106 66.49687H212.5776 209.33106Z" fill="#3cb371" fill-opacity=".5"/>
</g>
<g clip-path="url(#clip_44)">
<path transform="matrix(1,0,0,-1,0,339.80888)" d="M212.5776 66.49687H215.82415 212.5776Z" fill="#3cb371" fill-opacity=".5"/>
</g>
<g clip-path="url(#clip_45)">
<path transform="matrix(1,0,0,-1,0,339.80888)" d="M215.82415 66.49687H219.0707 215.82415Z" fill="#3cb371" fill-opacity=".5"/>
</g>
<g clip-path="url(#clip_46)">
<path transform="matrix(1,0,0,-1,0,339.80888)" d="M219.0707 66.49687H222.31725 219.0707Z" fill="#3cb371" fill-opacity=".5"/>
</g>
<g clip-path="url(#clip_47)">
<path transform="matrix(1,0,0,-1,0,339.80888)" d="M222.31725 66.49687H225.56378 222.31725Z" fill="#3cb371" fill-opacity=".5"/>
</g>
<g clip-path="url(#clip_48)">
<path transform="matrix(1,0,0,-1,0,339.80888)" d="M225.56378 66.49687H228.81034 225.56378Z" fill="#3cb371" fill-opacity=".5"/>
</g>
<g clip-path="url(#clip_49)">
<path transform="matrix(1,0,0,-1,0,339.80888)" d="M228.81034 66.49687H232.05687 228.81034Z" fill="#3cb371" fill-opacity=".5"/>
</g>
<g clip-path="url(#clip_50)">
<path transform="matrix(1,0,0,-1,0,339.80888)" d="M232.05687 66.49687H235.30342 232.05687Z" fill="#3cb371" fill-opacity=".5"/>
</g>
<g clip-path="url(#clip_51)">
<path transform="matrix(1,0,0,-1,0,339.80888)" d="M235.30342 66.49687H238.54996 235.30342Z" fill="#3cb371" fill-opacity=".5"/>
</g>
<g clip-path="url(#clip_52)">
<path transform="matrix(1,0,0,-1,0,339.80888)" d="M238.54996 66.49687H241.79651 238.54996Z" fill="#3cb371" fill-opacity=".5"/>
</g>
<g clip-path="url(#clip_53)">
<path transform="matrix(1,0,0,-1,0,339.80888)" d="M241.79651 66.49687H245.04306 241.79651Z" fill="#3cb371" fill-opacity=".5"/>
</g>
<g clip-path="url(#clip_54)">
<path transform="matrix(1,0,0,-1,0,339.80888)" d="M245.04306 66.49687H248.28961 245.04306Z" fill="#3cb371" fill-opacity=".5"/>
</g>
<g clip-path="url(#clip_55)">
<path transform="matrix(1,0,0,-1,0,339.80888)" d="M248.28961 66.49687H251.53615 248.28961Z" fill="#3cb371" fill-opacity=".5"/>
</g>
<g clip-path="url(#clip_56)">
<path transform="matrix(1,0,0,-1,0,339.80888)" d="M251.53615 66.49687H254.78269 251.53615Z" fill="#3cb371" fill-opacity=".5"/>
</g>
<g clip-path="url(#clip_57)">
<path transform="matrix(1,0,0,-1,0,339.80888)" d="M254.78269 66.49687H258.02925 254.78269Z" fill="#3cb371" fill-opacity=".5"/>
</g>
<g clip-path="url(#clip_58)">
<path transform="matrix(1,0,0,-1,0,339.80888)" d="M258.02925 66.49687H261.2758 258.02925Z" fill="#3cb371" fill-opacity=".5"/>
</g>
<g clip-path="url(#clip_59)">
<path transform="matrix(1,0,0,-1,0,339.80888)" d="M261.2758 66.49687H264.52235 261.2758Z" fill="#3cb371" fill-opacity=".5"/>
</g>
<g clip-path="url(#clip_60)">
<path transform="matrix(1,0,0,-1,0,339.80888)" d="M264.52235 66.49687H267.7689 264.52235Z" fill="#3cb371" fill-opacity=".5"/>
</g>
<g clip-path="url(#clip_61)">
<path transform="matrix(1,0,0,-1,0,339.80888)" d="M267.7689 66.49687H271.0154V67.020519H267.7689Z" fill="#3cb371" fill-opacity=".5"/>
</g>
<g clip-path="url(#clip_62)">
<path transform="matrix(1,0,0,-1,0,339.80888)" d="M271.0154 66.49687H274.26197V68.067798H271.0154Z" fill="#3cb371" fill-opacity=".5"/>
</g>
<g clip-path="url(#clip_63)">
<path transform="matrix(1,0,0,-1,0,339.80888)" d="M274.26197 66.49687H277.5085V72.78055H274.26197Z" fill="#3cb371" fill-opacity=".5"/>
</g>
<g clip-path="url(#clip_64)">
<path transform="matrix(1,0,0,-1,0,339.80888)" d="M277.5085 66.49687H280.75505V82.7297H277.5085Z" fill="#3cb371" fill-opacity=".5"/>
</g>
<g clip-path="url(#clip_65)">
<path transform="matrix(1,0,0,-1,0,339.80888)" d="M280.75505 66.49687H284.00163V102.627788H280.75505Z" fill="#3cb371" fill-opacity=".5"/>
</g>
<g clip-path="url(#clip_66)">
<path transform="matrix(1,0,0,-1,0,339.80888)" d="M284.00163 66.49687H287.24815V117.2899H284.00163Z" fill="#3cb371" fill-opacity=".5"/>
</g>
<g clip-path="url(#clip_67)">
<path transform="matrix(1,0,0,-1,0,339.80888)" d="M287.24815 66.49687H290.4947V147.13736H287.24815Z" fill="#3cb371" fill-opacity=".5"/>
</g>
<g clip-path="url(#clip_68)">
<path transform="matrix(1,0,0,-1,0,339.80888)" d="M290.4947 66.49687H293.74125V192.17035H290.4947Z" fill="#3cb371" fill-opacity=".5"/>
</g>
<g clip-path="url(#clip_69)">
<path transform="matrix(1,0,0,-1,0,339.80888)" d="M293.74125 66.49687H296.9878V228.82512H293.74125Z" fill="#3cb371" fill-opacity=".5"/>
</g>
<g clip-path="url(#clip_70)">
<path transform="matrix(1,0,0,-1,0,339.80888)" d="M296.9878 66.49687H300.2343V298.9928H296.9878Z" fill="#3cb371" fill-opacity=".5"/>
</g>
<g clip-path="url(#clip_71)">
<path transform="matrix(1,0,0,-1,0,339.80888)" d="M300.2343 66.49687H303.4809V317.84233H300.2343Z" fill="#3cb371" fill-opacity=".5"/>
</g>
<g clip-path="url(#clip_72)">
<path transform="matrix(1,0,0,-1,0,339.80888)" d="M303.4809 66.49687H306.72743V280.66545H303.4809Z" fill="#3cb371" fill-opacity=".5"/>
</g>
<g clip-path="url(#clip_73)">
<path transform="matrix(1,0,0,-1,0,339.80888)" d="M306.72743 66.49687H309.97398V223.58872H306.72743Z" fill="#3cb371" fill-opacity=".5"/>
</g>
<g clip-path="url(#clip_74)">
<path transform="matrix(1,0,0,-1,0,339.80888)" d="M309.97398 66.49687H313.22053V159.7047H309.97398Z" fill="#3cb371" fill-opacity=".5"/>
</g>
<g clip-path="url(#clip_75)">
<path transform="matrix(1,0,0,-1,0,339.80888)" d="M313.22053 66.49687H316.46705V111.00623H313.22053Z" fill="#3cb371" fill-opacity=".5"/>
</g>
<g clip-path="url(#clip_76)">
<path transform="matrix(1,0,0,-1,0,339.80888)" d="M316.46705 66.49687H319.7136V81.68242H316.46705Z" fill="#3cb371" fill-opacity=".5"/>
</g>
<g clip-path="url(#clip_77)">
<path transform="matrix(1,0,0,-1,0,339.80888)" d="M319.7136 66.49687H322.96015V74.35146H319.7136Z" fill="#3cb371" fill-opacity=".5"/>
</g>
<g clip-path="url(#clip_78)">
<path transform="matrix(1,0,0,-1,0,339.80888)" d="M322.96015 66.49687H326.2067V68.06779H322.96015Z" fill="#3cb371" fill-opacity=".5"/>
</g>
<g clip-path="url(#clip_79)">
<path transform="matrix(1,0,0,-1,0,339.80888)" d="M326.2067 66.49687H329.45326 326.2067Z" fill="#3cb371" fill-opacity=".5"/>
</g>
<g clip-path="url(#clip_80)">
<path transform="matrix(1,0,0,-1,0,339.80888)" d="M329.45326 66.49687H332.6998 329.45326Z" fill="#3cb371" fill-opacity=".5"/>
</g>
<g clip-path="url(#clip_81)">
<path transform="matrix(1,0,0,-1,0,339.80888)" d="M332.6998 66.49687H335.94633 332.6998Z" fill="#3cb371" fill-opacity=".5"/>
</g>
<g clip-path="url(#clip_82)">
<path transform="matrix(1,0,0,-1,0,339.80888)" d="M335.94633 66.49687H339.19288 335.94633Z" fill="#3cb371" fill-opacity=".5"/>
</g>
<g clip-path="url(#clip_83)">
<path transform="matrix(1,0,0,-1,0,339.80888)" d="M339.19288 66.49687H342.43943 339.19288Z" fill="#3cb371" fill-opacity=".5"/>
</g>
<g clip-path="url(#clip_84)">
<path transform="matrix(1,0,0,-1,0,339.80888)" d="M342.43943 66.49687H345.68598 342.43943Z" fill="#3cb371" fill-opacity=".5"/>
</g>
<g clip-path="url(#clip_85)">
<path transform="matrix(1,0,0,-1,0,339.80888)" d="M345.68598 66.49687H348.93254 345.68598Z" fill="#3cb371" fill-opacity=".5"/>
</g>
<g clip-path="url(#clip_86)">
<path transform="matrix(1,0,0,-1,0,339.80888)" d="M348.93254 66.49687H352.17906 348.93254Z" fill="#3cb371" fill-opacity=".5"/>
</g>
<g clip-path="url(#clip_87)">
<path transform="matrix(1,0,0,-1,0,339.80888)" d="M352.17906 66.49687H355.4256 352.17906Z" fill="#3cb371" fill-opacity=".5"/>
</g>
<g clip-path="url(#clip_88)">
<path transform="matrix(1,0,0,-1,0,339.80888)" d="M355.4256 66.49687H358.67216 355.4256Z" fill="#3cb371" fill-opacity=".5"/>
</g>
<g clip-path="url(#clip_89)">
<path transform="matrix(1,0,0,-1,0,339.80888)" d="M358.67216 66.49687H361.91868 358.67216Z" fill="#3cb371" fill-opacity=".5"/>
</g>
<g clip-path="url(#clip_90)">
<path transform="matrix(1,0,0,-1,0,339.80888)" d="M361.91868 66.49687H365.16526 361.91868Z" fill="#3cb371" fill-opacity=".5"/>
</g>
<g clip-path="url(#clip_91)">
<path transform="matrix(1,0,0,-1,0,339.80888)" d="M365.16526 66.49687H368.4118 365.16526Z" fill="#3cb371" fill-opacity=".5"/>
</g>
<g clip-path="url(#clip_92)">
<path transform="matrix(1,0,0,-1,0,339.80888)" d="M368.4118 66.49687H371.65834 368.4118Z" fill="#3cb371" fill-opacity=".5"/>
</g>
<g clip-path="url(#clip_93)">
<path transform="matrix(1,0,0,-1,0,339.80888)" d="M371.65834 66.49687H374.90489 371.65834Z" fill="#3cb371" fill-opacity=".5"/>
</g>
<g clip-path="url(#clip_94)">
<path transform="matrix(1,0,0,-1,0,339.80888)" d="M374.90489 66.49687H378.15144 374.90489Z" fill="#3cb371" fill-opacity=".5"/>
</g>
<g clip-path="url(#clip_95)">
<path transform="matrix(1,0,0,-1,0,339.80888)" d="M378.15144 66.49687H381.39796 378.15144Z" fill="#3cb371" fill-opacity=".5"/>
</g>
<g clip-path="url(#clip_96)">
<path transform="matrix(1,0,0,-1,0,339.80888)" d="M381.39796 66.49687H384.64454 381.39796Z" fill="#3cb371" fill-opacity=".5"/>
</g>
<g clip-path="url(#clip_97)">
<path transform="matrix(1,0,0,-1,0,339.80888)" d="M384.64454 66.49687H387.89106 384.64454Z" fill="#3cb371" fill-opacity=".5"/>
</g>
<g clip-path="url(#clip_98)">
<path transform="matrix(1,0,0,-1,0,339.80888)" d="M387.89106 66.49687H391.1376 387.89106Z" fill="#3cb371" fill-opacity=".5"/>
</g>
<g clip-path="url(#clip_99)">
<path transform="matrix(1,0,0,-1,0,339.80888)" d="M391.1376 66.49687H394.38417 391.1376Z" fill="#3cb371" fill-opacity=".5"/>
</g>
<g clip-path="url(#clip_100)">
<path transform="matrix(1,0,0,-1,0,339.80888)" d="M69.7296 66.49687H72.97615 69.7296Z" fill="#fa8072" fill-opacity=".5"/>
</g>
<g clip-path="url(#clip_101)">
<path transform="matrix(1,0,0,-1,0,339.80888)" d="M72.97615 66.49687H76.222698 72.97615Z" fill="#fa8072" fill-opacity=".5"/>
</g>
<g clip-path="url(#clip_102)">
<path transform="matrix(1,0,0,-1,0,339.80888)" d="M76.222698 66.49687H79.46924 76.222698Z" fill="#fa8072" fill-opacity=".5"/>
</g>
<g clip-path="url(#clip_103)">
<path transform="matrix(1,0,0,-1,0,339.80888)" d="M79.46924 66.49687H82.71578 79.46924Z" fill="#fa8072" fill-opacity=".5"/>
</g>
<g clip-path="url(#clip_104)">
<path transform="matrix(1,0,0,-1,0,339.80888)" d="M82.71578 66.49687H85.96233 82.71578Z" fill="#fa8072" fill-opacity=".5"/>
</g>
<g clip-path="url(#clip_105)">
<path transform="matrix(1,0,0,-1,0,339.80888)" d="M85.96233 66.49687H89.20888 85.96233Z" fill="#fa8072" fill-opacity=".5"/>
</g>
<g clip-path="url(#clip_106)">
<path transform="matrix(1,0,0,-1,0,339.80888)" d="M89.20888 66.49687H92.45542 89.20888Z" fill="#fa8072" fill-opacity=".5"/>
</g>
<g clip-path="url(#clip_107)">
<path transform="matrix(1,0,0,-1,0,339.80888)" d="M92.45542 66.49687H95.701969 92.45542Z" fill="#fa8072" fill-opacity=".5"/>
</g>
<g clip-path="url(#clip_108)">
<path transform="matrix(1,0,0,-1,0,339.80888)" d="M95.701969 66.49687H98.94851 95.701969Z" fill="#fa8072" fill-opacity=".5"/>
</g>
<g clip-path="url(#clip_109)">
<path transform="matrix(1,0,0,-1,0,339.80888)" d="M98.94851 66.49687H102.19506 98.94851Z" fill="#fa8072" fill-opacity=".5"/>
</g>
<g clip-path="url(#clip_110)">
<path transform="matrix(1,0,0,-1,0,339.80888)" d="M102.19506 66.49687H105.441608 102.19506Z" fill="#fa8072" fill-opacity=".5"/>
</g>
<g clip-path="url(#clip_111)">
<path transform="matrix(1,0,0,-1,0,339.80888)" d="M105.441608 66.49687H108.68815 105.441608Z" fill="#fa8072" fill-opacity=".5"/>
</g>
<g clip-path="url(#clip_112)">
<path transform="matrix(1,0,0,-1,0,339.80888)" d="M108.68815 66.49687H111.93469 108.68815Z" fill="#fa8072" fill-opacity=".5"/>
</g>
<g clip-path="url(#clip_113)">
<path transform="matrix(1,0,0,-1,0,339.80888)" d="M111.93469 66.49687H115.18124 111.93469Z" fill="#fa8072" fill-opacity=".5"/>
</g>
<g clip-path="url(#clip_114)">
<path transform="matrix(1,0,0,-1,0,339.80888)" d="M115.18124 66.49687H118.42779 115.18124Z" fill="#fa8072" fill-opacity=".5"/>
</g>
<g clip-path="url(#clip_115)">
<path transform="matrix(1,0,0,-1,0,339.80888)" d="M118.42779 66.49687H121.67433 118.42779Z" fill="#fa8072" fill-opacity=".5"/>
</g>
<g clip-path="url(#clip_116)">
<path transform="matrix(1,0,0,-1,0,339.80888)" d="M121.67433 66.49687H124.920879 121.67433Z" fill="#fa8072" fill-opacity=".5"/>
</g>
<g clip-path="url(#clip_117)">
<path transform="matrix(1,0,0,-1,0,339.80888)" d="M124.920879 66.49687H128.16742 124.920879Z" fill="#fa8072" fill-opacity=".5"/>
</g>
<g clip-path="url(#clip_118)">
<path transform="matrix(1,0,0,-1,0,339.80888)" d="M128.16742 66.49687H131.41397 128.16742Z" fill="#fa8072" fill-opacity=".5"/>
</g>
<g clip-path="url(#clip_119)">
<path transform="matrix(1,0,0,-1,0,339.80888)" d="M131.41397 66.49687H134.6605 131.41397Z" fill="#fa8072" fill-opacity=".5"/>
</g>
<g clip-path="url(#clip_120)">
<path transform="matrix(1,0,0,-1,0,339.80888)" d="M134.6605 66.49687H137.90706 134.6605Z" fill="#fa8072" fill-opacity=".5"/>
</g>
<g clip-path="url(#clip_121)">
<path transform="matrix(1,0,0,-1,0,339.80888)" d="M137.90706 66.49687H141.1536 137.90706Z" fill="#fa8072" fill-opacity=".5"/>
</g>
<g clip-path="url(#clip_122)">
<path transform="matrix(1,0,0,-1,0,339.80888)" d="M141.1536 66.49687H144.40015 141.1536Z" fill="#fa8072" fill-opacity=".5"/>
</g>
<g clip-path="url(#clip_123)">
<path transform="matrix(1,0,0,-1,0,339.80888)" d="M144.40015 66.49687H147.6467 144.40015Z" fill="#fa8072" fill-opacity=".5"/>
</g>
<g clip-path="url(#clip_124)">
<path transform="matrix(1,0,0,-1,0,339.80888)" d="M147.6467 66.49687H150.89324 147.6467Z" fill="#fa8072" fill-opacity=".5"/>
</g>
<g clip-path="url(#clip_125)">
<path transform="matrix(1,0,0,-1,0,339.80888)" d="M150.89324 66.49687H154.13979 150.89324Z" fill="#fa8072" fill-opacity=".5"/>
</g>
<g clip-path="url(#clip_126)">
<path transform="matrix(1,0,0,-1,0,339.80888)" d="M154.13979 66.49687H157.38634 154.13979Z" fill="#fa8072" fill-opacity=".5"/>
</g>
<g clip-path="url(#clip_127)">
<path transform="matrix(1,0,0,-1,0,339.80888)" d="M157.38634 66.49687H160.63288 157.38634Z" fill="#fa8072" fill-opacity=".5"/>
</g>
<g clip-path="url(#clip_128)">
<path transform="matrix(1,0,0,-1,0,339.80888)" d="M160.63288 66.49687H163.87943 160.63288Z" fill="#fa8072" fill-opacity=".5"/>
</g>
<g clip-path="url(#clip_129)">
<path transform="matrix(1,0,0,-1,0,339.80888)" d="M163.87943 66.49687H167.12598 163.87943Z" fill="#fa8072" fill-opacity=".5"/>
</g>
<g clip-path="url(#clip_130)">
<path transform="matrix(1,0,0,-1,0,339.80888)" d="M167.12598 66.49687H170.37252 167.12598Z" fill="#fa8072" fill-opacity=".5"/>
</g>
<g clip-path="url(#clip_131)">
<path transform="matrix(1,0,0,-1,0,339.80888)" d="M170.37252 66.49687H173.61905 170.37252Z" fill="#fa8072" fill-opacity=".5"/>
</g>
<g clip-path="url(#clip_132)">
<path transform="matrix(1,0,0,-1,0,339.80888)" d="M173.61905 66.49687H176.8656 173.61905Z" fill="#fa8072" fill-opacity=".5"/>
</g>
<g clip-path="url(#clip_133)">
<path transform="matrix(1,0,0,-1,0,339.80888)" d="M176.8656 66.49687H180.11215 176.8656Z" fill="#fa8072" fill-opacity=".5"/>
</g>
<g clip-path="url(#clip_134)">
<path transform="matrix(1,0,0,-1,0,339.80888)" d="M180.11215 66.49687H183.35869 180.11215Z" fill="#fa8072" fill-opacity=".5"/>
</g>
<g clip-path="url(#clip_135)">
<path transform="matrix(1,0,0,-1,0,339.80888)" d="M183.35869 66.49687H186.60524 183.35869Z" fill="#fa8072" fill-opacity=".5"/>
</g>
<g clip-path="url(#clip_136)">
<path transform="matrix(1,0,0,-1,0,339.80888)" d="M186.60524 66.49687H189.85179 186.60524Z" fill="#fa8072" fill-opacity=".5"/>
</g>
<g clip-path="url(#clip_137)">
<path transform="matrix(1,0,0,-1,0,339.80888)" d="M189.85179 66.49687H193.09833 189.85179Z" fill="#fa8072" fill-opacity=".5"/>
</g>
<g clip-path="url(#clip_138)">
<path transform="matrix(1,0,0,-1,0,339.80888)" d="M193.09833 66.49687H196.34487 193.09833Z" fill="#fa8072" fill-opacity=".5"/>
</g>
<g clip-path="url(#clip_139)">
<path transform="matrix(1,0,0,-1,0,339.80888)" d="M196.34487 66.49687H199.59142 196.34487Z" fill="#fa8072" fill-opacity=".5"/>
</g>
<g clip-path="url(#clip_140)">
<path transform="matrix(1,0,0,-1,0,339.80888)" d="M199.59142 66.49687H202.83797 199.59142Z" fill="#fa8072" fill-opacity=".5"/>
</g>
<g clip-path="url(#clip_141)">
<path transform="matrix(1,0,0,-1,0,339.80888)" d="M202.83797 66.49687H206.0845 202.83797Z" fill="#fa8072" fill-opacity=".5"/>
</g>
<g clip-path="url(#clip_142)">
<path transform="matrix(1,0,0,-1,0,339.80888)" d="M206.0845 66.49687H209.33106 206.0845Z" fill="#fa8072" fill-opacity=".5"/>
</g>
<g clip-path="url(#clip_143)">
<path transform="matrix(1,0,0,-1,0,339.80888)" d="M209.33106 66.49687H212.5776 209.33106Z" fill="#fa8072" fill-opacity=".5"/>
</g>
<g clip-path="url(#clip_144)">
<path transform="matrix(1,0,0,-1,0,339.80888)" d="M212.5776 66.49687H215.82415 212.5776Z" fill="#fa8072" fill-opacity=".5"/>
</g>
<g clip-path="url(#clip_145)">
<path transform="matrix(1,0,0,-1,0,339.80888)" d="M215.82415 66.49687H219.0707 215.82415Z" fill="#fa8072" fill-opacity=".5"/>
</g>
<g clip-path="url(#clip_146)">
<path transform="matrix(1,0,0,-1,0,339.80888)" d="M219.0707 66.49687H222.31725 219.0707Z" fill="#fa8072" fill-opacity=".5"/>
</g>
<g clip-path="url(#clip_147)">
<path transform="matrix(1,0,0,-1,0,339.80888)" d="M222.31725 66.49687H225.56378 222.31725Z" fill="#fa8072" fill-opacity=".5"/>
</g>
<g clip-path="url(#clip_148)">
<path transform="matrix(1,0,0,-1,0,339.80888)" d="M225.56378 66.49687H228.81034 225.56378Z" fill="#fa8072" fill-opacity=".5"/>
</g>
<g clip-path="url(#clip_149)">
<path transform="matrix(1,0,0,-1,0,339.80888)" d="M228.81034 66.49687H232.05687 228.81034Z" fill="#fa8072" fill-opacity=".5"/>
</g>
<g clip-path="url(#clip_150)">
<path transform="matrix(1,0,0,-1,0,339.80888)" d="M232.05687 66.49687H235.30342 232.05687Z" fill="#fa8072" fill-opacity=".5"/>
</g>
<g clip-path="url(#clip_151)">
<path transform="matrix(1,0,0,-1,0,339.80888)" d="M235.30342 66.49687H238.54996 235.30342Z" fill="#fa8072" fill-opacity=".5"/>
</g>
<g clip-path="url(#clip_152)">
<path transform="matrix(1,0,0,-1,0,339.80888)" d="M238.54996 66.49687H241.79651 238.54996Z" fill="#fa8072" fill-opacity=".5"/>
</g>
<g clip-path="url(#clip_153)">
<path transform="matrix(1,0,0,-1,0,339.80888)" d="M241.79651 66.49687H245.04306 241.79651Z" fill="#fa8072" fill-opacity=".5"/>
</g>
<g clip-path="url(#clip_154)">
<path transform="matrix(1,0,0,-1,0,339.80888)" d="M245.04306 66.49687H248.28961 245.04306Z" fill="#fa8072" fill-opacity=".5"/>
</g>
<g clip-path="url(#clip_155)">
<path transform="matrix(1,0,0,-1,0,339.80888)" d="M248.28961 66.49687H251.53615 248.28961Z" fill="#fa8072" fill-opacity=".5"/>
</g>
<g clip-path="url(#clip_156)">
<path transform="matrix(1,0,0,-1,0,339.80888)" d="M251.53615 66.49687H254.78269 251.53615Z" fill="#fa8072" fill-opacity=".5"/>
</g>
<g clip-path="url(#clip_157)">
<path transform="matrix(1,0,0,-1,0,339.80888)" d="M254.78269 66.49687H258.02925 254.78269Z" fill="#fa8072" fill-opacity=".5"/>
</g>
<g clip-path="url(#clip_158)">
<path transform="matrix(1,0,0,-1,0,339.80888)" d="M258.02925 66.49687H261.2758 258.02925Z" fill="#fa8072" fill-opacity=".5"/>
</g>
<g clip-path="url(#clip_159)">
<path transform="matrix(1,0,0,-1,0,339.80888)" d="M261.2758 66.49687H264.52235 261.2758Z" fill="#fa8072" fill-opacity=".5"/>
</g>
<g clip-path="url(#clip_160)">
<path transform="matrix(1,0,0,-1,0,339.80888)" d="M264.52235 66.49687H267.7689 264.52235Z" fill="#fa8072" fill-opacity=".5"/>
</g>
<g clip-path="url(#clip_161)">
<path transform="matrix(1,0,0,-1,0,339.80888)" d="M267.7689 66.49687H271.0154V67.54415H267.7689Z" fill="#fa8072" fill-opacity=".5"/>
</g>
<g clip-path="url(#clip_162)">
<path transform="matrix(1,0,0,-1,0,339.80888)" d="M271.0154 66.49687H274.26197V69.115077H271.0154Z" fill="#fa8072" fill-opacity=".5"/>
</g>
<g clip-path="url(#clip_163)">
<path transform="matrix(1,0,0,-1,0,339.80888)" d="M274.26197 66.49687H277.5085V69.115077H274.26197Z" fill="#fa8072" fill-opacity=".5"/>
</g>
<g clip-path="url(#clip_164)">
<path transform="matrix(1,0,0,-1,0,339.80888)" d="M277.5085 66.49687H280.75505V82.20606H277.5085Z" fill="#fa8072" fill-opacity=".5"/>
</g>
<g clip-path="url(#clip_165)">
<path transform="matrix(1,0,0,-1,0,339.80888)" d="M280.75505 66.49687H284.00163V102.627788H280.75505Z" fill="#fa8072" fill-opacity=".5"/>
</g>
<g clip-path="url(#clip_166)">
<path transform="matrix(1,0,0,-1,0,339.80888)" d="M284.00163 66.49687H287.24815V113.10079H284.00163Z" fill="#fa8072" fill-opacity=".5"/>
</g>
<g clip-path="url(#clip_167)">
<path transform="matrix(1,0,0,-1,0,339.80888)" d="M287.24815 66.49687H290.4947V130.90453H287.24815Z" fill="#fa8072" fill-opacity=".5"/>
</g>
<g clip-path="url(#clip_168)">
<path transform="matrix(1,0,0,-1,0,339.80888)" d="M290.4947 66.49687H293.74125V193.21764H290.4947Z" fill="#fa8072" fill-opacity=".5"/>
</g>
<g clip-path="url(#clip_169)">
<path transform="matrix(1,0,0,-1,0,339.80888)" d="M293.74125 66.49687H296.9878V245.58158H293.74125Z" fill="#fa8072" fill-opacity=".5"/>
</g>
<g clip-path="url(#clip_170)">
<path transform="matrix(1,0,0,-1,0,339.80888)" d="M296.9878 66.49687H300.2343V288.52003H296.9878Z" fill="#fa8072" fill-opacity=".5"/>
</g>
<g clip-path="url(#clip_171)">
<path transform="matrix(1,0,0,-1,0,339.80888)" d="M300.2343 66.49687H303.4809V319.9369H300.2343Z" fill="#fa8072" fill-opacity=".5"/>
</g>
<g clip-path="url(#clip_172)">
<path transform="matrix(1,0,0,-1,0,339.80888)" d="M303.4809 66.49687H306.72743V280.66545H303.4809Z" fill="#fa8072" fill-opacity=".5"/>
</g>
<g clip-path="url(#clip_173)">
<path transform="matrix(1,0,0,-1,0,339.80888)" d="M306.72743 66.49687H309.97398V224.636H306.72743Z" fill="#fa8072" fill-opacity=".5"/>
</g>
<g clip-path="url(#clip_174)">
<path transform="matrix(1,0,0,-1,0,339.80888)" d="M309.97398 66.49687H313.22053V171.22478H309.97398Z" fill="#fa8072" fill-opacity=".5"/>
</g>
<g clip-path="url(#clip_175)">
<path transform="matrix(1,0,0,-1,0,339.80888)" d="M313.22053 66.49687H316.46705V113.10079H313.22053Z" fill="#fa8072" fill-opacity=".5"/>
</g>
<g clip-path="url(#clip_176)">
<path transform="matrix(1,0,0,-1,0,339.80888)" d="M316.46705 66.49687H319.7136V81.68242H316.46705Z" fill="#fa8072" fill-opacity=".5"/>
</g>
<g clip-path="url(#clip_177)">
<path transform="matrix(1,0,0,-1,0,339.80888)" d="M319.7136 66.49687H322.96015V72.78055H319.7136Z" fill="#fa8072" fill-opacity=".5"/>
</g>
<g clip-path="url(#clip_178)">
<path transform="matrix(1,0,0,-1,0,339.80888)" d="M322.96015 66.49687H326.2067V68.59142H322.96015Z" fill="#fa8072" fill-opacity=".5"/>
</g>
<g clip-path="url(#clip_179)">
<path transform="matrix(1,0,0,-1,0,339.80888)" d="M326.2067 66.49687H329.45326 326.2067Z" fill="#fa8072" fill-opacity=".5"/>
</g>
<g clip-path="url(#clip_180)">
<path transform="matrix(1,0,0,-1,0,339.80888)" d="M329.45326 66.49687H332.6998 329.45326Z" fill="#fa8072" fill-opacity=".5"/>
</g>
<g clip-path="url(#clip_181)">
<path transform="matrix(1,0,0,-1,0,339.80888)" d="M332.6998 66.49687H335.94633 332.6998Z" fill="#fa8072" fill-opacity=".5"/>
</g>
<g clip-path="url(#clip_182)">
<path transform="matrix(1,0,0,-1,0,339.80888)" d="M335.94633 66.49687H339.19288 335.94633Z" fill="#fa8072" fill-opacity=".5"/>
</g>
<g clip-path="url(#clip_183)">
<path transform="matrix(1,0,0,-1,0,339.80888)" d="M339.19288 66.49687H342.43943 339.19288Z" fill="#fa8072" fill-opacity=".5"/>
</g>
<g clip-path="url(#clip_184)">
<path transform="matrix(1,0,0,-1,0,339.80888)" d="M342.43943 66.49687H345.68598 342.43943Z" fill="#fa8072" fill-opacity=".5"/>
</g>
<g clip-path="url(#clip_185)">
<path transform="matrix(1,0,0,-1,0,339.80888)" d="M345.68598 66.49687H348.93254 345.68598Z" fill="#fa8072" fill-opacity=".5"/>
</g>
<g clip-path="url(#clip_186)">
<path transform="matrix(1,0,0,-1,0,339.80888)" d="M348.93254 66.49687H352.17906 348.93254Z" fill="#fa8072" fill-opacity=".5"/>
</g>
<g clip-path="url(#clip_187)">
<path transform="matrix(1,0,0,-1,0,339.80888)" d="M352.17906 66.49687H355.4256 352.17906Z" fill="#fa8072" fill-opacity=".5"/>
</g>
<g clip-path="url(#clip_188)">
<path transform="matrix(1,0,0,-1,0,339.80888)" d="M355.4256 66.49687H358.67216 355.4256Z" fill="#fa8072" fill-opacity=".5"/>
</g>
<g clip-path="url(#clip_189)">
<path transform="matrix(1,0,0,-1,0,339.80888)" d="M358.67216 66.49687H361.91868 358.67216Z" fill="#fa8072" fill-opacity=".5"/>
</g>
<g clip-path="url(#clip_190)">
<path transform="matrix(1,0,0,-1,0,339.80888)" d="M361.91868 66.49687H365.16526 361.91868Z" fill="#fa8072" fill-opacity=".5"/>
</g>
<g clip-path="url(#clip_191)">
<path transform="matrix(1,0,0,-1,0,339.80888)" d="M365.16526 66.49687H368.4118 365.16526Z" fill="#fa8072" fill-opacity=".5"/>
</g>
<g clip-path="url(#clip_192)">
<path transform="matrix(1,0,0,-1,0,339.80888)" d="M368.4118 66.49687H371.65834 368.4118Z" fill="#fa8072" fill-opacity=".5"/>
</g>
<g clip-path="url(#clip_193)">
<path transform="matrix(1,0,0,-1,0,339.80888)" d="M371.65834 66.49687H374.90489 371.65834Z" fill="#fa8072" fill-opacity=".5"/>
</g>
<g clip-path="url(#clip_194)">
<path transform="matrix(1,0,0,-1,0,339.80888)" d="M374.90489 66.49687H378.15144 374.90489Z" fill="#fa8072" fill-opacity=".5"/>
</g>
<g clip-path="url(#clip_195)">
<path transform="matrix(1,0,0,-1,0,339.80888)" d="M378.15144 66.49687H381.39796 378.15144Z" fill="#fa8072" fill-opacity=".5"/>
</g>
<g clip-path="url(#clip_196)">
<path transform="matrix(1,0,0,-1,0,339.80888)" d="M381.39796 66.49687H384.64454 381.39796Z" fill="#fa8072" fill-opacity=".5"/>
</g>
<g clip-path="url(#clip_197)">
<path transform="matrix(1,0,0,-1,0,339.80888)" d="M384.64454 66.49687H387.89106 384.64454Z" fill="#fa8072" fill-opacity=".5"/>
</g>
<g clip-path="url(#clip_198)">
<path transform="matrix(1,0,0,-1,0,339.80888)" d="M387.89106 66.49687H391.1376 387.89106Z" fill="#fa8072" fill-opacity=".5"/>
</g>
<g clip-path="url(#clip_199)">
<path transform="matrix(1,0,0,-1,0,339.80888)" d="M391.1376 66.49687H394.38417 391.1376Z" fill="#fa8072" fill-opacity=".5"/>
</g>
<path transform="matrix(1,0,0,-1,0,339.80888)" d="M69.7296 66.49687V62.996877"/>
<path transform="matrix(1,0,0,-1,0,339.80888)" stroke-width=".8" stroke-linecap="butt" stroke-linejoin="round" fill="none" stroke="#000000" d="M69.7296 66.49687V62.996877"/>
<use data-text="0" xlink:href="#font_200_48" transform="matrix(22,0,0,-22,52.229604,297.03074)"/>
<use data-text="." xlink:href="#font_200_46" transform="matrix(22,0,0,-22,66.2216,297.03074)"/>
<use data-text="0" xlink:href="#font_200_48" transform="matrix(22,0,0,-22,73.217609,297.03074)"/>
<path transform="matrix(1,0,0,-1,0,339.80888)" d="M150.89324 66.49687V62.996877"/>
<path transform="matrix(1,0,0,-1,0,339.80888)" stroke-width=".8" stroke-linecap="butt" stroke-linejoin="round" fill="none" stroke="#000000" d="M150.89324 66.49687V62.996877"/>
<use data-text="0" xlink:href="#font_200_48" transform="matrix(22,0,0,-22,133.39324,297.03074)"/>
<use data-text="." xlink:href="#font_200_46" transform="matrix(22,0,0,-22,147.38524,297.03074)"/>
<use data-text="5" xlink:href="#font_200_53" transform="matrix(22,0,0,-22,154.38124,297.03074)"/>
<path transform="matrix(1,0,0,-1,0,339.80888)" d="M232.05687 66.49687V62.996877"/>
<path transform="matrix(1,0,0,-1,0,339.80888)" stroke-width=".8" stroke-linecap="butt" stroke-linejoin="round" fill="none" stroke="#000000" d="M232.05687 66.49687V62.996877"/>
<use data-text="1" xlink:href="#font_200_49" transform="matrix(22,0,0,-22,214.55687,297.03074)"/>
<use data-text="." xlink:href="#font_200_46" transform="matrix(22,0,0,-22,228.54888,297.03074)"/>
<use data-text="0" xlink:href="#font_200_48" transform="matrix(22,0,0,-22,235.54488,297.03074)"/>
<path transform="matrix(1,0,0,-1,0,339.80888)" d="M313.22053 66.49687V62.996877"/>
<path transform="matrix(1,0,0,-1,0,339.80888)" stroke-width=".8" stroke-linecap="butt" stroke-linejoin="round" fill="none" stroke="#000000" d="M313.22053 66.49687V62.996877"/>
<use data-text="1" xlink:href="#font_200_49" transform="matrix(22,0,0,-22,295.72053,297.03074)"/>
<use data-text="." xlink:href="#font_200_46" transform="matrix(22,0,0,-22,309.71253,297.03074)"/>
<use data-text="5" xlink:href="#font_200_53" transform="matrix(22,0,0,-22,316.70854,297.03074)"/>
<path transform="matrix(1,0,0,-1,0,339.80888)" d="M394.38417 66.49687V62.996877"/>
<path transform="matrix(1,0,0,-1,0,339.80888)" stroke-width=".8" stroke-linecap="butt" stroke-linejoin="round" fill="none" stroke="#000000" d="M394.38417 66.49687V62.996877"/>
<use data-text="2" xlink:href="#font_200_50" transform="matrix(22,0,0,-22,376.88417,297.03074)"/>
<use data-text="." xlink:href="#font_200_46" transform="matrix(22,0,0,-22,390.87617,297.03074)"/>
<use data-text="0" xlink:href="#font_200_48" transform="matrix(22,0,0,-22,397.87217,297.03074)"/>
<use data-text="|" xlink:href="#font_200_124" transform="matrix(22,0,0,-22,176.55687,325.71199)"/>
<use data-text="x" xlink:href="#font_201_120" transform="matrix(22,0,0,-22,183.96898,325.71199)"/>
<use data-text="(" xlink:href="#font_200_40" transform="matrix(15.4,0,0,-15.4,197.94515,317.2901)"/>
<use data-text="g" xlink:href="#font_201_103" transform="matrix(15.4,0,0,-15.4,203.95325,317.2901)"/>
<use data-text=")" xlink:href="#font_200_41" transform="matrix(15.4,0,0,-15.4,213.72864,317.2901)"/>
<use data-text="x" xlink:href="#font_201_120" transform="matrix(22,0,0,-22,247.34418,325.71199)"/>
<use data-text="(" xlink:href="#font_200_40" transform="matrix(15.4,0,0,-15.4,261.32035,317.2901)"/>
<use data-text="t" xlink:href="#font_201_116" transform="matrix(15.4,0,0,-15.4,267.32847,317.2901)"/>
<use data-text=")" xlink:href="#font_200_41" transform="matrix(15.4,0,0,-15.4,273.36665,317.2901)"/>
<use data-text="|" xlink:href="#font_200_124" transform="matrix(22,0,0,-22,279.97633,325.71199)"/>
<g clip-path="url(#clip_202)">
<path transform="matrix(.022,0,0,-.022,198.45726,324.99324)" d="M-252 669-280 696C-287 702-293 707-299 710-304 713-309 715-313 715-325 715-334 709-340 697-346 685-349 665-350 639H-411C-410 683-401 717-385 741-368 765-345 777-316 777-303 777-291 774-281 770-271 765-260 757-248 747L-220 720C-212 713-206 708-201 705-195 702-191 701-187 701-174 701-165 707-159 719-153 731-150 750-150 777H-89C-89 733-98 699-115 675-131 651-154 639-184 639-196 639-208 641-218 646-228 650-240 658-252 669Z"/>
</g>
<g clip-path="url(#clip_203)">
<path transform="matrix(.022,0,0,-.022,224.62445,325.71199)" d="M106 355H732V272H106V355Z"/>
</g>
<g clip-path="url(#clip_204)">
<path transform="matrix(.022,0,0,-.022,261.83247,324.99324)" d="M-252 669-280 696C-287 702-293 707-299 710-304 713-309 715-313 715-325 715-334 709-340 697-346 685-349 665-350 639H-411C-410 683-401 717-385 741-368 765-345 777-316 777-303 777-291 774-281 770-271 765-260 757-248 747L-220 720C-212 713-206 708-201 705-195 702-191 701-187 701-174 701-165 707-159 719-153 731-150 750-150 777H-89C-89 733-98 699-115 675-131 651-154 639-184 639-196 639-208 641-218 646-228 650-240 658-252 669Z"/>
</g>
<path transform="matrix(1,0,0,-1,0,339.80888)" d="M53.496877 66.49687H49.996877"/>
<path transform="matrix(1,0,0,-1,0,339.80888)" stroke-width=".8" stroke-linecap="butt" stroke-linejoin="round" fill="none" stroke="#000000" d="M53.496877 66.49687H49.996877"/>
<use data-text="0" xlink:href="#font_200_48" transform="matrix(22,0,0,-22,32.496877,281.67137)"/>
<path transform="matrix(1,0,0,-1,0,339.80888)" d="M53.496877 126.40118H49.996877"/>
<path transform="matrix(1,0,0,-1,0,339.80888)" stroke-width=".8" stroke-linecap="butt" stroke-linejoin="round" fill="none" stroke="#000000" d="M53.496877 126.40118H49.996877"/>
<use data-text="2" xlink:href="#font_200_50" transform="matrix(22,0,0,-22,32.496877,221.76706)"/>
<path transform="matrix(1,0,0,-1,0,339.80888)" d="M53.496877 186.30548H49.996877"/>
<path transform="matrix(1,0,0,-1,0,339.80888)" stroke-width=".8" stroke-linecap="butt" stroke-linejoin="round" fill="none" stroke="#000000" d="M53.496877 186.30548H49.996877"/>
<use data-text="4" xlink:href="#font_200_52" transform="matrix(22,0,0,-22,32.496877,161.86277)"/>
<path transform="matrix(1,0,0,-1,0,339.80888)" d="M53.496877 246.20978H49.996877"/>
<path transform="matrix(1,0,0,-1,0,339.80888)" stroke-width=".8" stroke-linecap="butt" stroke-linejoin="round" fill="none" stroke="#000000" d="M53.496877 246.20978H49.996877"/>
<use data-text="6" xlink:href="#font_200_54" transform="matrix(22,0,0,-22,32.496877,101.958469)"/>
<path transform="matrix(1,0,0,-1,0,339.80888)" d="M53.496877 306.11408H49.996877"/>
<path transform="matrix(1,0,0,-1,0,339.80888)" stroke-width=".8" stroke-linecap="butt" stroke-linejoin="round" fill="none" stroke="#000000" d="M53.496877 306.11408H49.996877"/>
<use data-text="8" xlink:href="#font_200_56" transform="matrix(22,0,0,-22,32.496877,42.05417)"/>
<use data-text="P" xlink:href="#font_201_80" transform="matrix(0,-22,-22,-0,22.95,147.256)"/>
<g clip-path="url(#clip_205)">
<path transform="matrix(1,0,0,-1,0,339.80888)" stroke-width="1.5" stroke-linecap="butt" stroke-dasharray="5.55,2.4" stroke-linejoin="round" fill="none" stroke="#3cb371" stroke-opacity=".5" d="M300.16029 66.49687V332.6089"/>
</g>
<g clip-path="url(#clip_206)">
<path transform="matrix(1,0,0,-1,0,339.80888)" stroke-width="1.5" stroke-linecap="butt" stroke-dasharray="5.55,2.4" stroke-linejoin="round" fill="none" stroke="#fa8072" stroke-opacity=".5" d="M300.40284 66.49687V332.6089"/>
</g>
<path transform="matrix(1,0,0,-1,0,339.80888)" stroke-width=".8" stroke-linecap="square" stroke-miterlimit="10" stroke-linejoin="miter" fill="none" stroke="#000000" d="M53.496877 66.49687V332.6089"/>
<path transform="matrix(1,0,0,-1,0,339.80888)" stroke-width=".8" stroke-linecap="square" stroke-miterlimit="10" stroke-linejoin="miter" fill="none" stroke="#000000" d="M410.61689 66.49687V332.6089"/>
<path transform="matrix(1,0,0,-1,0,339.80888)" stroke-width=".8" stroke-linecap="square" stroke-miterlimit="10" stroke-linejoin="miter" fill="none" stroke="#000000" d="M53.496877 66.49687H410.61689"/>
<path transform="matrix(1,0,0,-1,0,339.80888)" stroke-width=".8" stroke-linecap="square" stroke-miterlimit="10" stroke-linejoin="miter" fill="none" stroke="#000000" d="M53.496877 332.6089H410.61689"/>
</svg>
